<svg xmlns="http://www.w3.org/2000/svg" viewBox="347 417 14 16" preserveAspectRatio="xMidYMid meet" pointer-events="auto">
	<g class="regionsUT">
		<path title="Chandigarh" d="M 354.99597,427.39213 C 354.85067,427.3134 354.62373,427.13243 354.49164,426.98998 C 354.35956,426.84752 353.9489,426.50387 353.57906,426.22631 C 353.20922,425.94874 352.74906,425.56136 352.55649,425.36546 L 352.20634,425.00928 L 352.22027,424.55999 L 352.2342,424.11071 L 352.60604,423.98669 L 352.97789,423.86267 L 353.95133,422.89004 C 354.48673,422.3551 354.94198,421.91742 354.96301,421.91742 C 355.01238,421.91742 355.56364,422.28588 355.70442,422.41297 C 355.79877,422.49815 355.81249,422.5577 355.81249,422.8821 C 355.81249,423.19521 355.78983,423.30155 355.66843,423.55816 C 355.53044,423.84986 355.52438,423.89007 355.52434,424.51408 C 355.52431,425.11118 355.53632,425.20103 355.66839,425.59177 C 355.79829,425.97606 355.81247,426.07749 355.81231,426.62143 C 355.81215,427.13821 355.79847,427.24722 355.71695,427.38092 C 355.63647,427.51291 355.59385,427.53688 355.44096,427.53615 C 355.3328,427.53563 355.15398,427.47775 354.99597,427.39213 L 354.99597,427.39213 z" fill="#f2f0f0" stroke-width="0.4" id="Chandigarh" stroke-opacity="0.5" stroke="rgb(86, 111, 105)" pointer-events="all" style="cursor: pointer;"><title>Chandigarh</title></path>
	</g>
</svg>