<svg xmlns="http://www.w3.org/2000/svg" viewBox="142 745 73 31" preserveAspectRatio="xMidYMid meet" pointer-events="auto">
	<g class="regionsUT">
		<path title="Daman" d="M 204.7492,771.52338 C 204.51145,771.46323 204.31332,771.41111 204.30892,771.40755 C 204.30452,771.404 205.00766,770.05203 205.87145,768.40317 C 207.07146,766.11256 207.49413,765.32737 207.66297,765.07512 L 207.88395,764.74499 L 208.38771,764.99709 L 208.89146,765.24918 L 209.02594,765.51934 C 209.12798,765.72433 209.19688,765.82716 209.31155,765.9456 C 209.46069,766.09966 209.46428,766.10658 209.58552,766.47396 L 209.70837,766.84623 L 209.70837,767.3097 C 209.70837,767.76439 209.70565,767.78945 209.56479,768.63053 C 209.43833,769.38565 209.40653,769.53167 209.29813,769.8553 L 209.17505,770.22273 L 208.04359,770.78856 L 206.91214,771.35439 L 206.07082,771.49543 C 205.6081,771.573 205.2187,771.63563 205.20549,771.6346 C 205.19229,771.63358 204.98695,771.58353 204.7492,771.52338 L 204.7492,771.52338 z" fill="#f2f0f0" stroke-width="0.4" id="Daman" stroke-opacity="0.5" stroke="rgb(86, 111, 105)" pointer-events="all" style="cursor: pointer;"><title>Daman</title></path>
		<path title="Diu" d="M 147.76077,753.98434 C 147.20601,753.77477 146.7062,753.58584 146.65006,753.5645 L 146.54799,753.52569 L 146.54914,753.14944 L 146.55029,752.77318 L 146.83403,752.06473 L 147.11778,751.35628 L 148.54208,750.78416 L 149.96639,750.21205 L 150.66779,750.91316 L 151.3692,751.61426 L 151.50188,752.27778 C 151.57486,752.64271 151.6298,752.94904 151.62397,752.95852 C 151.61813,752.968 151.30849,753.15879 150.93586,753.38249 C 150.26335,753.78624 150.25302,753.79137 149.53173,754.07972 C 149.13208,754.23948 148.79707,754.36912 148.78725,754.36779 C 148.77744,754.36646 148.31552,754.1939 147.76077,753.98433 L 147.76077,753.98434 z" fill="#f2f0f0" stroke-width="0.4" id="Diu" stroke-opacity="0.5" stroke="rgb(86, 111, 105)" pointer-events="all" style="cursor: pointer;" ><title>Diu</title></path>
	</g>
</svg>