<svg id="chart" viewBox="0 0 432 488" preserveAspectRatio="xMidYMid meet" pointer-events="auto" class="">
    <g class="regions">
        <path d="M390.27899846703804,181.69599963413202L387.63004598875705,195.1068738365757L368.2043944813486,193.19114314712715L359.1538068472146,218.09282336870092L352.97291773121106,220.22088892847387L343.48083801736357,201.06669369860538L332.0020439448126,178.28978111174L351.4276954522211,179.99290466619277L338.8451711803791,172.11571855139118L342.1563617782231,148.05457824304176L341.9356157383736,148.05457824304176L324.7174246295326,140.81382534679506L322.5099642309651,124.83974652937832L330.4568216658081,122.28366013828781L336.8584568216611,131.01668901238736L354.5181400102301,135.4894122523183L358.2708226877876,156.99832365107432L371.7363311190711,155.72069404234935L383.87736331118504,168.2833527803632L382.773633111894,181.4831143263873L382.773633111894,182.76041947364502L384.31885539089853,182.54753639894625Z" stroke-width="0.4" stroke-opacity="0.5" fill="rgb(247, 251, 255)" stroke="rgb(86,101,115)" pointer-events="all" style="cursor: pointer;"><title>North East Delhi</title></path>
        <path d="M282.99642309657065,221.9233092842005L278.14001021972217,232.1372325135344L287.63208993356966,234.69055294058126L290.0602963719866,264.04913032458353L278.3607562595862,256.39118799452626L266.8819621870207,248.73266910949678L243.04138988247723,249.37090104343224L225.3817066939082,274.04613213898847L181.67399080224277,269.36680673897354L189.17935615737224,287.4448286541119L181.67399080224277,290.20941959715856L155.1844660194256,261.4965469285489L140.17373530914483,262.98556169218864L130.68165559529734,230.43498326075132L119.20286152273184,234.47777868804405L96.90751149718562,221.71050829968226L112.58048032703664,192.55255821643368L136.42105263157282,210.2185931613203L147.23760858457536,194.68115902988575L168.64997445070185,191.913969268433L182.55697496168432,206.17483230925427L191.38681655595428,197.87397656674875L201.09964230965124,206.60049892855022L234.21154828820727,206.60049892855022L251.65048543689772,193.61686420246406L251.65048543689772,193.82972406061162L251.65048543689772,195.53258685805486L247.6770567194617,211.28271399527148L251.65048543689772,214.9006414455689L251.87123147676175,215.11345669452203L254.96167603474169,218.09282336870092L277.9192641798727,221.28490499356485Z" stroke-width="0.4" stroke-opacity="0.5" fill="rgb(246, 250, 255)" stroke="rgb(86,101,115)" pointer-events="all" style="cursor: pointer;"><title>West Delhi</title></path>
        <path d="M389.83750638732454,318.9141988873853L378.57945835462306,288.2954800153202L362.0235053653596,295.10043511525873L354.73888605006505,279.57596663689765L354.73888605006505,279.57596663689765L345.4675523760816,266.38894218369023L354.9596320899291,271.91919271882216L357.16709248849656,273.1953617047111L362.68574348492257,239.15870936854844L361.5820132856461,237.0310403244548L361.5820132856461,237.0310403244548L385.20183955032553,232.98834644916496L385.42258559018956,232.98834644916496L403.52376085845754,246.8179492742711L405.51047521717555,247.03069770294314L427.8058252427145,265.75081701262025L427.58507920285047,277.66182715252216L426.0398569238605,278.5125602557782L403.08226877874404,290.42207733022224Z" stroke-width="0.4" stroke-opacity="0.5" fill="rgb(247, 251, 255)" stroke="rgb(86,101,115)" pointer-events="all" style="cursor: pointer;"><title>East Delhi</title></path>
        <path d="M96.90751149718562,221.71050829968226L119.20286152273184,234.47777868804405L130.68165559529734,230.43498326075132L140.17373530914483,262.98556169218864L155.1844660194256,261.4965469285489L181.67399080224277,290.20941959715856L189.17935615737224,287.4448286541119L181.67399080224277,269.36680673897354L225.3817066939082,274.04613213898847L226.04394481348572,274.04613213898847L205.07307102708728,313.81171798636933L186.30965763924178,314.4495420687381L179.2457843638258,326.14227631146423L210.59172202349873,347.1858196783469L220.30454777721025,372.6873277017912L220.30454777721025,372.6873277017912L220.30454777721025,372.6873277017912L219.20081757791922,375.23712817674823L214.12365866120672,372.04986763490524L205.07307102708728,366.52504701002545L176.15533980583132,367.8000321504551L142.60194174756907,343.9976830675987L142.60194174756907,344.21022860791345L136.8625447112936,352.9242145501121L150.10730710269854,362.9125026393267L145.2508942258646,369.71248000836204L117.87838528359862,363.3375144946767L93.81706693919114,379.48665416900985L58.2769545222327,370.5624453360724L38.40981093511073,380.9739464957238L33.994890137975744,379.2741820686897L40.39652529381419,363.9750289599215L4.856412876855757,335.2829345871796L0,304.03124878550443L20.970873786412994,300.84176235477935L41.500255493105215,256.17845914517966L56.731732243235456,264.04913032458353L68.65201839551446,256.60391639899535L80.79305058763566,269.36680673897354L81.01379662749969,268.9414028519459L83.0005109862177,266.6016496847951L88.51916198262916,259.79478908480087L87.85692386305163,258.51845202083496L72.62544711292867,238.73317912211496L81.23454266734188,221.71050829968226L96.90751149718562,221.9233092842005L96.90751149718562,221.71050829968226Z" stroke-width="0.4" stroke-opacity="0.5" fill="rgb(247, 251, 255)" stroke="rgb(86,101,115)" pointer-events="all" style="cursor: pointer;"><title>South West Delhi</title></path>
        <path d="M299.1108840061206,200.00246580971725L303.52580480327015,205.1106579550178L324.05518650996964,174.6705486307619L319.6402657128201,164.2379207001468L299.99386816556216,165.30252373447001L287.63208993356966,149.9711615446031L292.04701073070464,138.68409368223L282.99642309657065,120.36655300753046L284.32089933571115,119.72750923229614L314.12161471640866,104.38924849804971L313.23863055698166,101.19348496595921L335.7547266223701,108.86314793595739L325.1589167092461,115.04106498296096L330.2360756259586,121.85763946773295L330.4568216658081,122.28366013828781L322.5099642309651,124.83974652937832L324.7174246295326,140.81382534679506L341.9356157383736,148.05457824304176L342.1563617782231,148.05457824304176L338.8451711803791,172.11571855139118L351.4276954522211,179.99290466619277L332.0020439448126,178.28978111174L343.48083801736357,201.06669369860538L352.97291773121106,220.22088892847387L361.3612672457821,236.6055011718854L361.5820132856461,237.0310403244548L361.5820132856461,237.0310403244548L362.68574348492257,239.15870936854844L357.16709248849656,273.1953617047111L354.9596320899291,271.91919271882216L345.4675523760816,266.38894218369023L342.81859989778604,262.77284663157843L308.38221768011863,245.11594582092584L304.62953500256117,243.20115788282783L290.0602963719866,264.04913032458353L287.63208993356966,234.69055294058126L278.14001021972217,232.1372325135344L282.99642309657065,221.9233092842005L277.9192641798727,218.5184400466751Z" stroke-width="0.4" stroke-opacity="0.5" fill="rgb(246, 250, 255)" stroke="rgb(86,101,115)" pointer-events="all" style="cursor: pointer;"><title>Central Delhi</title></path>
        <path d="M225.3817066939082,274.04613213898847L243.04138988247723,249.37090104343224L266.8819621870207,248.73266910949678L278.3607562595862,256.39118799452626L290.0602963719866,264.04913032458353L304.62953500256117,243.20115788282783L308.38221768011863,245.11594582092584L342.81859989778604,262.77284663157843L345.4675523760816,266.38894218369023L354.73888605006505,279.57596663689765L354.73888605006505,279.57596663689765L334.6509964230936,289.14612427051543L316.9913132345391,297.43953342450914L311.69340827797714,323.803836753661L305.29177312212414,316.1503867741885L277.4777721001592,328.26808391444865L271.9591211037332,341.23455074498634L283.2171691364347,348.4610464284924L279.90597853857616,359.5123440902353L248.56004087890324,360.5749058035617L248.3392948390392,360.78741681889005L246.57332652018522,374.17471904932245L262.0255493101722,390.74704311392634L259.3765968318912,399.4570587763883L237.52273888605123,394.78348413699496L239.06796116505575,387.56026650818603L219.20081757791922,375.23712817674823L220.30454777721025,372.6873277017912L220.30454777721025,372.6873277017912L220.30454777721025,372.6873277017912L210.59172202349873,347.1858196783469L179.2457843638258,326.14227631146423L186.30965763924178,314.4495420687381L205.07307102708728,313.81171798636933L226.04394481348572,274.04613213898847Z" stroke-width="0.4" stroke-opacity="0.5" fill="rgb(247, 251, 255)" stroke="rgb(86,101,115)" pointer-events="all" style="cursor: pointer;"><title>New Delhi</title></path>
        <path d="M237.52273888605123,394.78348413699496L259.3765968318912,399.4570587763883L262.0255493101722,390.74704311392634L246.57332652018522,374.17471904932245L248.3392948390392,360.78741681889005L248.56004087890324,360.5749058035617L279.90597853857616,359.5123440902353L283.2171691364347,348.4610464284924L271.9591211037332,341.23455074498634L277.4777721001592,328.26808391444865L305.29177312212414,316.1503867741885L311.69340827797714,323.803836753661L327.3663771078136,321.6779360643559L336.6377107818116,350.7989207436294L346.7920286152221,357.59970513074586L352.31067961163353,400.51920502565554L343.48083801736357,404.34284013595243L341.7148696985241,408.5911558550979L334.6509964230936,424.7331460015048L345.9090444557951,429.6177198564801L346.3505365355086,431.10428300100466L348.1165048543626,451.9138999203642L332.66428206439014,465.2892774840875L326.9248850281001,468.261346407784L311.9141543178266,471.02104748655256L293.37148696984514,470.5964829285658L286.5283597342932,475.9034134524263L284.98313745528867,476.11568495611573L277.6985181400087,455.73561463773876L275.4910577414412,454.674041524584L241.71691364333674,436.8379671071634L230.90035769034876,411.56487182277124Z" stroke-width="0.4" stroke-opacity="0.5" fill="rgb(247, 251, 255)" stroke="rgb(86,101,115)" pointer-events="all" style="cursor: pointer;"><title>South Delhi</title></path>
        <path d="M352.97291773121106,220.22088892847387L359.1538068472146,218.09282336870092L368.2043944813486,193.19114314712715L387.63004598875705,195.1068738365757L390.27899846703804,181.69599963413202L418.092999489003,177.43820861380664L411.4706182933005,191.4882410711616L419.6382217680075,207.66465767121917L411.69136433316453,212.7724644338923L405.51047521717555,247.03069770294314L403.52376085845754,246.8179492742711L385.42258559018956,232.98834644916496L385.20183955032553,232.98834644916496L361.5820132856461,237.0310403244548L361.3612672457821,236.6055011718854Z" stroke-width="0.4" stroke-opacity="0.5" fill="rgb(247, 251, 255)" stroke="rgb(86,101,115)" pointer-events="all" style="cursor: pointer;"><title>Shahdara</title></path>
        <path d="M354.73888605006505,279.57596663689765L362.0235053653596,295.10043511525873L378.57945835462306,288.2954800153202L389.83750638732454,318.9141988873853L389.175268267747,319.9771835922802L390.7204905467661,321.465343557109L432,363.9750289599215L423.17015840573004,378.6367631156718L403.744506898307,399.6694889092796L383.43587123147154,387.3478112002049L352.31067961163353,400.51920502565554L346.7920286152221,357.59970513074586L336.6377107818116,350.7989207436294L327.3663771078136,321.6779360643559L311.69340827797714,323.803836753661L316.9913132345391,297.43953342450914L334.6509964230936,289.14612427051543Z" stroke-width="0.4" stroke-opacity="0.5" fill="rgb(246, 250, 255)" stroke="rgb(86,101,115)" pointer-events="all" style="cursor: pointer;"><title>South East Delhi</title></path>
        <path d="M109.04854368932865,80.9513050650894L110.37301992846187,93.52324071856128L149.22432294327882,112.05866933820289L147.67910066428158,126.33076713425908L150.32805314256984,129.73873181569797L157.8334184976993,138.47111805384702L158.49565661726956,139.3230178815429L205.7353091466648,161.2569727465052L228.47215125191724,153.37833127582417L241.71691364333674,182.54753639894625L271.07613694429165,156.99832365107432L271.07613694429165,184.46346799395178L297.3449156872812,198.08682749905347L299.1108840061206,200.00246580971725L299.1108840061206,200.00246580971725L277.9192641798727,218.5184400466751L282.99642309657065,221.9233092842005L277.9192641798727,221.28490499356485L254.96167603474169,218.09282336870092L251.87123147676175,215.11345669452203L251.65048543689772,214.9006414455689L247.6770567194617,211.28271399527148L251.65048543689772,195.53258685805486L251.65048543689772,193.82972406061162L251.65048543689772,193.61686420246406L234.21154828820727,206.60049892855022L201.09964230965124,206.60049892855022L191.38681655595428,197.87397656674875L182.55697496168432,206.17483230925427L168.64997445070185,191.913969268433L147.23760858457536,194.68115902988575L136.42105263157282,210.2185931613203L112.58048032703664,192.55255821643368L92.49259070005064,177.6511024083593L102.4261624936189,158.27593716048432L89.40214614205615,137.6192110639604L98.89422585590364,124.83974652937832L97.12825753705692,101.83264574514396L97.12825753705692,101.61959260059666L96.68676545733615,101.61959260059666L87.19468574348866,94.58858718830015L95.36228921820293,75.62374230345085Z" stroke-width="0.4" stroke-opacity="0.5" fill="rgb(247, 251, 255)" stroke="rgb(86,101,115)" pointer-events="all" style="cursor: pointer;"><title>North West Delhi</title></path>
        <path d="M313.23863055698166,101.19348496595921L314.12161471640866,104.38924849804971L284.32089933571115,119.72750923229614L282.99642309657065,120.36655300753046L292.04701073070464,138.68409368223L287.63208993356966,149.9711615446031L299.99386816556216,165.30252373447001L319.6402657128201,164.2379207001468L324.05518650996964,174.6705486307619L303.52580480327015,205.1106579550178L299.1108840061206,200.00246580971725L299.1108840061206,200.00246580971725L297.3449156872812,198.08682749905347L271.07613694429165,184.46346799395178L271.07613694429165,156.99832365107432L241.71691364333674,182.54753639894625L228.47215125191724,153.37833127582417L205.7353091466648,161.2569727465052L158.49565661726956,139.3230178815429L157.8334184976993,138.47111805384702L150.32805314256984,129.73873181569797L147.67910066428158,126.33076713425908L149.22432294327882,112.05866933820289L110.37301992846187,93.52324071856128L109.04854368932865,80.9513050650894L107.72406745018816,68.37780646656756L108.16555952990166,66.67280491399288L119.20286152273184,72.42706991590967L119.42360756259586,72.21395483005472L119.64435360245989,72.21395483005472L131.56463975472434,55.58959375346603L133.99284619314858,55.16329212775236L170.4159427695413,62.19703901107641L185.6474195196788,27.23661706472558L199.99591211037477,27.449827042866673L206.83903934594127,11.88431504388791L239.28870720490522,36.40423960741464L255.84466019416868,32.77993017692279L257.6106285130372,55.376443165419914L258.7143587123137,55.58959375346603L268.4271844660252,57.0816352815782L270.1931527848792,57.50792881498273L270.1931527848792,57.29478227304571L285.6453755748662,36.40423960741464L320.30250383239763,41.94704952369284L321.6269800715381,44.9315134975368L325.82115482882364,62.6233109689274L322.73071027082915,85.00006508062143L307.94072560040513,81.16440173811498L308.8237097598467,99.70209411625183Z" stroke-width="0.4" stroke-opacity="0.5" fill="rgb(247, 251, 255)" stroke="rgb(86,101,115)" pointer-events="all" style="cursor: pointer;"><title>North Delhi</title></path></g><g class="state-borders" fill="none" stroke-width="1.5"></g><g class="district-borders" fill="none" stroke-width="1.5">
        <path d="M225.3817066939082,274.04613213898847L226.04394481348572,274.04613213898847L205.07307102708728,313.81171798636933L186.30965763924178,314.4495420687381L179.2457843638258,326.14227631146423L210.59172202349873,347.1858196783469L220.30454777721025,372.6873277017912L220.30454777721025,372.6873277017912L220.30454777721025,372.6873277017912L219.20081757791922,375.23712817674823L214.12365866120672,372.04986763490524L205.07307102708728,366.52504701002545L176.15533980583132,367.8000321504551L142.60194174756907,343.9976830675987L142.60194174756907,344.21022860791345L136.8625447112936,352.9242145501121L150.10730710269854,362.9125026393267L145.2508942258646,369.71248000836204L117.87838528359862,363.3375144946767L93.81706693919114,379.48665416900985L58.2769545222327,370.5624453360724L38.40981093511073,380.9739464957238L33.994890137975744,379.2741820686897L40.39652529381419,363.9750289599215L4.856412876855757,335.2829345871796L0,304.03124878550443L20.970873786412994,300.84176235477935L41.500255493105215,256.17845914517966L56.731732243235456,264.04913032458353L68.65201839551446,256.60391639899535L80.79305058763566,269.36680673897354L81.01379662749969,268.9414028519459L83.0005109862177,266.6016496847951L88.51916198262916,259.79478908480087L87.85692386305163,258.51845202083496L72.62544711292867,238.73317912211496L81.23454266734188,221.71050829968226L96.90751149718562,221.9233092842005L96.90751149718562,221.71050829968226L96.90751149718562,221.71050829968226M313.23863055698166,101.19348496595921L314.12161471640866,104.38924849804971L284.32089933571115,119.72750923229614L282.99642309657065,120.36655300753046L292.04701073070464,138.68409368223L287.63208993356966,149.9711615446031L299.99386816556216,165.30252373447001L319.6402657128201,164.2379207001468L324.05518650996964,174.6705486307619L303.52580480327015,205.1106579550178L299.1108840061206,200.00246580971725L299.1108840061206,200.00246580971725L297.3449156872812,198.08682749905347L271.07613694429165,184.46346799395178L271.07613694429165,156.99832365107432L241.71691364333674,182.54753639894625L228.47215125191724,153.37833127582417L205.7353091466648,161.2569727465052L158.49565661726956,139.3230178815429L157.8334184976993,138.47111805384702L150.32805314256984,129.73873181569797L147.67910066428158,126.33076713425908L149.22432294327882,112.05866933820289L110.37301992846187,93.52324071856128L109.04854368932865,80.9513050650894L107.72406745018816,68.37780646656756L108.16555952990166,66.67280491399288L119.20286152273184,72.42706991590967L119.42360756259586,72.21395483005472L119.64435360245989,72.21395483005472L131.56463975472434,55.58959375346603L133.99284619314858,55.16329212775236L170.4159427695413,62.19703901107641L185.6474195196788,27.23661706472558L199.99591211037477,27.449827042866673L206.83903934594127,11.88431504388791L239.28870720490522,36.40423960741464L255.84466019416868,32.77993017692279L257.6106285130372,55.376443165419914L258.7143587123137,55.58959375346603L268.4271844660252,57.0816352815782L270.1931527848792,57.50792881498273L270.1931527848792,57.29478227304571L285.6453755748662,36.40423960741464L320.30250383239763,41.94704952369284L321.6269800715381,44.9315134975368L325.82115482882364,62.6233109689274L322.73071027082915,85.00006508062143L307.94072560040513,81.16440173811498L308.8237097598467,99.70209411625183L313.23863055698166,101.19348496595921L335.7547266223701,108.86314793595739L325.1589167092461,115.04106498296096L330.2360756259586,121.85763946773295L330.4568216658081,122.28366013828781M352.97291773121106,220.22088892847387L361.3612672457821,236.6055011718854L361.5820132856461,237.0310403244548M345.4675523760816,266.38894218369023L342.81859989778604,262.77284663157843L308.38221768011863,245.11594582092584L304.62953500256117,243.20115788282783L290.0602963719866,264.04913032458353M282.99642309657065,221.9233092842005L278.14001021972217,232.1372325135344L287.63208993356966,234.69055294058126L290.0602963719866,264.04913032458353L278.3607562595862,256.39118799452626L266.8819621870207,248.73266910949678L243.04138988247723,249.37090104343224L225.3817066939082,274.04613213898847L181.67399080224277,269.36680673897354L189.17935615737224,287.4448286541119L181.67399080224277,290.20941959715856L155.1844660194256,261.4965469285489L140.17373530914483,262.98556169218864L130.68165559529734,230.43498326075132L119.20286152273184,234.47777868804405L96.90751149718562,221.71050829968226L112.58048032703664,192.55255821643368L136.42105263157282,210.2185931613203L147.23760858457536,194.68115902988575L168.64997445070185,191.913969268433L182.55697496168432,206.17483230925427L191.38681655595428,197.87397656674875L201.09964230965124,206.60049892855022L234.21154828820727,206.60049892855022L251.65048543689772,193.61686420246406L251.65048543689772,193.82972406061162L251.65048543689772,195.53258685805486L247.6770567194617,211.28271399527148L251.65048543689772,214.9006414455689L251.87123147676175,215.11345669452203L254.96167603474169,218.09282336870092L277.9192641798727,221.28490499356485L282.99642309657065,221.9233092842005L277.9192641798727,218.5184400466751L299.1108840061206,200.00246580971725M354.73888605006505,279.57596663689765L334.6509964230936,289.14612427051543L316.9913132345391,297.43953342450914L311.69340827797714,323.803836753661L305.29177312212414,316.1503867741885L277.4777721001592,328.26808391444865L271.9591211037332,341.23455074498634L283.2171691364347,348.4610464284924L279.90597853857616,359.5123440902353L248.56004087890324,360.5749058035617L248.3392948390392,360.78741681889005L246.57332652018522,374.17471904932245L262.0255493101722,390.74704311392634L259.3765968318912,399.4570587763883L237.52273888605123,394.78348413699496L239.06796116505575,387.56026650818603L219.20081757791922,375.23712817674823M311.69340827797714,323.803836753661L327.3663771078136,321.6779360643559L336.6377107818116,350.7989207436294L346.7920286152221,357.59970513074586L352.31067961163353,400.51920502565554L343.48083801736357,404.34284013595243L341.7148696985241,408.5911558550979L334.6509964230936,424.7331460015048L345.9090444557951,429.6177198564801L346.3505365355086,431.10428300100466L348.1165048543626,451.9138999203642L332.66428206439014,465.2892774840875L326.9248850281001,468.261346407784L311.9141543178266,471.02104748655256L293.37148696984514,470.5964829285658L286.5283597342932,475.9034134524263L284.98313745528867,476.11568495611573L277.6985181400087,455.73561463773876L275.4910577414412,454.674041524584L241.71691364333674,436.8379671071634L230.90035769034876,411.56487182277124L237.52273888605123,394.78348413699496M390.27899846703804,181.69599963413202L387.63004598875705,195.1068738365757L368.2043944813486,193.19114314712715L359.1538068472146,218.09282336870092L352.97291773121106,220.22088892847387L343.48083801736357,201.06669369860538L332.0020439448126,178.28978111174L351.4276954522211,179.99290466619277L338.8451711803791,172.11571855139118L342.1563617782231,148.05457824304176L341.9356157383736,148.05457824304176L324.7174246295326,140.81382534679506L322.5099642309651,124.83974652937832L330.4568216658081,122.28366013828781L336.8584568216611,131.01668901238736L354.5181400102301,135.4894122523183L358.2708226877876,156.99832365107432L371.7363311190711,155.72069404234935L383.87736331118504,168.2833527803632L382.773633111894,181.4831143263873L382.773633111894,182.76041947364502L384.31885539089853,182.54753639894625L390.27899846703804,181.69599963413202L418.092999489003,177.43820861380664L411.4706182933005,191.4882410711616L419.6382217680075,207.66465767121917L411.69136433316453,212.7724644338923L405.51047521717555,247.03069770294314M389.83750638732454,318.9141988873853L378.57945835462306,288.2954800153202L362.0235053653596,295.10043511525873L354.73888605006505,279.57596663689765L354.73888605006505,279.57596663689765L345.4675523760816,266.38894218369023L354.9596320899291,271.91919271882216L357.16709248849656,273.1953617047111L362.68574348492257,239.15870936854844L361.5820132856461,237.0310403244548L361.5820132856461,237.0310403244548L385.20183955032553,232.98834644916496L385.42258559018956,232.98834644916496L403.52376085845754,246.8179492742711L405.51047521717555,247.03069770294314L427.8058252427145,265.75081701262025L427.58507920285047,277.66182715252216L426.0398569238605,278.5125602557782L403.08226877874404,290.42207733022224L389.83750638732454,318.9141988873853L389.175268267747,319.9771835922802L390.7204905467661,321.465343557109L432,363.9750289599215L423.17015840573004,378.6367631156718L403.744506898307,399.6694889092796L383.43587123147154,387.3478112002049L352.31067961163353,400.51920502565554M112.58048032703664,192.55255821643368L92.49259070005064,177.6511024083593L102.4261624936189,158.27593716048432L89.40214614205615,137.6192110639604L98.89422585590364,124.83974652937832L97.12825753705692,101.83264574514396L97.12825753705692,101.61959260059666L96.68676545733615,101.61959260059666L87.19468574348866,94.58858718830015L95.36228921820293,75.62374230345085L109.04854368932865,80.9513050650894" stroke="rgba(0, 123, 255, 0.18823529411764706)"></path></g></svg>