<svg width="100%" id="ga_state" viewBox="0 0 432 488" preserveAspectRatio="xMidYMid meet" pointer-events="auto" class="">
	<g class="regions">
		<path d="M178.03707684457186,199.3841392902732L184.0968861745423,191.06781284179397L190.15669550452003,182.75087192391766L189.97846581834165,182.3728145438272L186.59210178101057,175.18948275004368L188.90908770129317,170.08525739747347L192.4736814248099,161.5776994439493L192.4736814248099,161.38863527437934L183.3839674298506,149.8551180491031L192.4736814248099,141.34602460803035L228.65430771847605,174.43331585125452L225.98086242584395,177.26891548274943L234.00119830374751,189.3666703928202L230.61483426640916,192.01288087104604L240.5956966922531,198.62813498642754L241.66507480930886,213.18032732203028L241.84330449548725,213.55828132828265L248.43780288398557,211.10155765976288L266.79546056008985,202.40810578488345L270.00359491124254,206.9439034209181L277.4892417306328,196.73810203079665L306.18422120492323,197.1161111588617L317.0562320616373,181.2386347770098L343.96891467418027,167.6275846686858L356.8014520788347,190.50076821561743L353.2368583553107,206.9439034209181L356.9796817650131,221.87294934792953L381.7536081434373,234.72168744183455L378.5454737922628,255.69222932398498L388.526336218114,274.3924145416586L383.35767531901365,280.6251256652158L357.1579114511769,280.6251256652158L344.14714436035865,294.03374070050904L348.42465682857437,303.47548030080725L370.34690822818084,312.53881503173307L378.5454737922628,333.1174674312415L361.7918832917494,353.5036763098533L361.613653605571,372.3765662573769L355.1973849032511,381.245754194706L367.67346293554874,411.81091531651145L352.70216929679736,433.31488446025105L345.2165224774071,435.38961751685565L350.9198724350281,445.76272574427185L344.68183341887925,456.5120592677831L336.3050381686262,452.3633116430219L317.9473804925219,474.6139523842912L306.3624508911016,457.643510173144L298.87680407171865,456.88921079405736L298.1638853270124,456.88921079405736L293.3516838002761,464.9976725361894L297.2727368961423,481.96704215372756L277.4892417306328,474.8024989478081L257.3492871927738,487.9999999999982L254.85407158631278,482.7211789630601L235.60526547933114,478.9504461002234L238.63517014432728,456.32348304543484L230.79306395258754,435.7668377172149L223.66387650555407,427.84495551613327L206.7320563188623,423.12929207366415L203.16746259535284,404.4533758794041L197.8205720100741,405.77399440146837L194.96889703126362,398.03872809404857L166.63037692932994,387.66133650509164L174.294253434884,381.62315128469163L169.6602815943188,375.5846493343988L178.74999558927084,373.320129392725L179.1064549616276,361.6193990339498L186.23564240866108,355.76858688817356L152.0155426629135,241.9012289634693L145.0645849020584,232.83225869950275L129.736831890943,238.87831961808297L112.27032264573063,229.62015739961316L111.0227148424965,220.55020220404822L103.35883833694243,220.36123706187118L99.43778524106892,212.4244155120805L105.14113519869716,209.40071762989282L111.73563358720276,217.71569187243404L116.90429448629584,211.47951862871378L121.53826632686105,215.63700573928782L129.02391314623674,211.47951862871378L132.23204749741126,218.28259963052915L146.66865207764204,219.22743956945033L156.11482544495811,212.61339393927392L181.06698150956072,212.61339393927392L173.93779406252725,205.05400991570787Z" stroke-width="0.4" stroke-opacity="0.5" fill="#f2f0f0" stroke="rgb(86,111,105)" pointer-events="all" id="South Goa" style="cursor: pointer;"><title>South Goa</title></path>
		<path d="M343.96891467418027,167.6275846686858L317.0562320616373,181.2386347770098L306.18422120492323,197.1161111588617L277.4892417306328,196.73810203079665L270.00359491124254,206.9439034209181L266.79546056008985,202.40810578488345L248.43780288398557,211.10155765976288L241.84330449548725,213.55828132828265L241.66507480930886,213.18032732203028L240.5956966922531,198.62813498642754L230.61483426640916,192.01288087104604L234.00119830374751,189.3666703928202L225.98086242584395,177.26891548274943L228.65430771847605,174.43331585125452L192.4736814248099,141.34602460803035L183.3839674298506,149.8551180491031L192.4736814248099,161.38863527437934L192.4736814248099,161.5776994439493L188.90908770129317,170.08525739747347L186.59210178101057,175.18948275004368L189.97846581834165,182.3728145438272L190.15669550452003,182.75087192391766L184.0968861745423,191.06781284179397L178.03707684457186,199.3841392902732L162.35286446110695,207.69985195450863L150.05501611498767,198.250130932116L140.96530212002108,201.46312497185681L133.6578849868165,188.79961719577295L109.41864766691288,189.93372073269438L101.57654147518042,182.56184339275023L109.24041798073449,183.8850364385662L115.65668668306898,167.43853069182296L103.53706802311353,162.71207777009658L90.16984155993123,165.92608741390904L84.46649160231027,137.7531020471597L72.3468729423621,113.73428496461747L75.19854792117258,99.35834690390766L67.53467141561123,91.98050050105303L50.424621542748355,42.214534891167204L43.473663781893265,38.42913647866226L47.39471687775949,39.18622652401973L52.56337777685985,42.025268046632846L70.38634639442171,43.539393738585204L77.87199321381195,35.02216713404414L100.15070398577518,40.51112163465041L100.32893367195356,40.51112163465041L100.50716335813195,40.1325817936704L108.883958608385,33.88648735657989L118.68659134805057,32.372229503473136L120.29065852363419,32.18294581318878L120.82534758215479,31.99366179873141L121.18180695451156,30.29009107955062L129.5586022047719,14.578144577653802L134.90549279004335,10.413157153976499L136.50955996562698,1.3253655746011646L137.22247871031868,0L137.93539745502494,0.18933891580854834L149.5203270564598,14.010201009437878L147.2033411361699,26.69357774742457L180.53229245103284,31.04723686358375L187.30502052570955,45.43202172232304L183.02750805749383,55.08392124449347L193.72128922803677,59.24722615837527L195.5035860897915,89.3319235236595L195.68181577596988,92.16968215849192L207.80143443591805,102.3850142851552L223.66387650555407,105.41159944660103L228.83253740465443,96.33159726975464L265.19139338449895,85.54813273420405L271.7858917730118,83.65618906000054L274.4593370656439,80.4398109172198L274.9940261241718,80.25060930435393L278.73684953385964,80.06140736936868L283.5490510606105,82.33180933127187L298.69857438554027,79.49379963164392L300.1244118749528,69.65480464959L307.253599321979,63.97806470369869L312.42226022107207,65.68111718323416L310.4617336731462,71.92541932831591L319.37321798192716,74.00677532409827L319.90790704044775,81.00741382320302L336.3050381686262,71.35777001255701L344.50360373270814,79.1153928624226L340.40432095066353,94.43983696467512L350.9198724350281,100.30418929474945L340.9390100091914,126.78451913711251L349.49403494562284,127.73012902414848L358.04905988206156,137.94220611105266L358.22728956823994,150.61145062339892L343.96891467418027,167.43853069182296Z" stroke-width="0.4" stroke-opacity="0.5" fill="#f2f0f0" stroke="rgb(86,111,105)" pointer-events="all" id="North Goa" style="cursor: pointer;"><title>North Goa</title></path></g>
		<g class="state-borders" fill="none" stroke-width="1.5"></g>
		<g class="district-borders" fill="none" stroke-width="1.5">
		<path d="M343.96891467418027,167.6275846686858L317.0562320616373,181.2386347770098L306.18422120492323,197.1161111588617L277.4892417306328,196.73810203079665L270.00359491124254,206.9439034209181L266.79546056008985,202.40810578488345L248.43780288398557,211.10155765976288L241.84330449548725,213.55828132828265L241.66507480930886,213.18032732203028L240.5956966922531,198.62813498642754L230.61483426640916,192.01288087104604L234.00119830374751,189.3666703928202L225.98086242584395,177.26891548274943L228.65430771847605,174.43331585125452L192.4736814248099,141.34602460803035L183.3839674298506,149.8551180491031L192.4736814248099,161.38863527437934L192.4736814248099,161.5776994439493L188.90908770129317,170.08525739747347L186.59210178101057,175.18948275004368L189.97846581834165,182.3728145438272L190.15669550452003,182.75087192391766L184.0968861745423,191.06781284179397L178.03707684457186,199.3841392902732L162.35286446110695,207.69985195450863L150.05501611498767,198.250130932116L140.96530212002108,201.46312497185681L133.6578849868165,188.79961719577295L109.41864766691288,189.93372073269438L101.57654147518042,182.56184339275023L109.24041798073449,183.8850364385662L115.65668668306898,167.43853069182296L103.53706802311353,162.71207777009658L90.16984155993123,165.92608741390904L84.46649160231027,137.7531020471597L72.3468729423621,113.73428496461747L75.19854792117258,99.35834690390766L67.53467141561123,91.98050050105303L50.424621542748355,42.214534891167204L43.473663781893265,38.42913647866226L47.39471687775949,39.18622652401973L52.56337777685985,42.025268046632846L70.38634639442171,43.539393738585204L77.87199321381195,35.02216713404414L100.15070398577518,40.51112163465041L100.32893367195356,40.51112163465041L100.50716335813195,40.1325817936704L108.883958608385,33.88648735657989L118.68659134805057,32.372229503473136L120.29065852363419,32.18294581318878L120.82534758215479,31.99366179873141L121.18180695451156,30.29009107955062L129.5586022047719,14.578144577653802L134.90549279004335,10.413157153976499L136.50955996562698,1.3253655746011646L137.22247871031868,0L137.93539745502494,0.18933891580854834L149.5203270564598,14.010201009437878L147.2033411361699,26.69357774742457L180.53229245103284,31.04723686358375L187.30502052570955,45.43202172232304L183.02750805749383,55.08392124449347L193.72128922803677,59.24722615837527L195.5035860897915,89.3319235236595L195.68181577596988,92.16968215849192L207.80143443591805,102.3850142851552L223.66387650555407,105.41159944660103L228.83253740465443,96.33159726975464L265.19139338449895,85.54813273420405L271.7858917730118,83.65618906000054L274.4593370656439,80.4398109172198L274.9940261241718,80.25060930435393L278.73684953385964,80.06140736936868L283.5490510606105,82.33180933127187L298.69857438554027,79.49379963164392L300.1244118749528,69.65480464959L307.253599321979,63.97806470369869L312.42226022107207,65.68111718323416L310.4617336731462,71.92541932831591L319.37321798192716,74.00677532409827L319.90790704044775,81.00741382320302L336.3050381686262,71.35777001255701L344.50360373270814,79.1153928624226L340.40432095066353,94.43983696467512L350.9198724350281,100.30418929474945L340.9390100091914,126.78451913711251L349.49403494562284,127.73012902414848L358.04905988206156,137.94220611105266L358.22728956823994,150.61145062339892L343.96891467418027,167.43853069182296L343.96891467418027,167.6275846686858L356.8014520788347,190.50076821561743L353.2368583553107,206.9439034209181L356.9796817650131,221.87294934792953L381.7536081434373,234.72168744183455L378.5454737922628,255.69222932398498L388.526336218114,274.3924145416586L383.35767531901365,280.6251256652158L357.1579114511769,280.6251256652158L344.14714436035865,294.03374070050904L348.42465682857437,303.47548030080725L370.34690822818084,312.53881503173307L378.5454737922628,333.1174674312415L361.7918832917494,353.5036763098533L361.613653605571,372.3765662573769L355.1973849032511,381.245754194706L367.67346293554874,411.81091531651145L352.70216929679736,433.31488446025105L345.2165224774071,435.38961751685565L350.9198724350281,445.76272574427185L344.68183341887925,456.5120592677831L336.3050381686262,452.3633116430219L317.9473804925219,474.6139523842912L306.3624508911016,457.643510173144L298.87680407171865,456.88921079405736L298.1638853270124,456.88921079405736L293.3516838002761,464.9976725361894L297.2727368961423,481.96704215372756L277.4892417306328,474.8024989478081L257.3492871927738,487.9999999999982L254.85407158631278,482.7211789630601L235.60526547933114,478.9504461002234L238.63517014432728,456.32348304543484L230.79306395258754,435.7668377172149L223.66387650555407,427.84495551613327L206.7320563188623,423.12929207366415L203.16746259535284,404.4533758794041L197.8205720100741,405.77399440146837L194.96889703126362,398.03872809404857L166.63037692932994,387.66133650509164L174.294253434884,381.62315128469163L169.6602815943188,375.5846493343988L178.74999558927084,373.320129392725L179.1064549616276,361.6193990339498L186.23564240866108,355.76858688817356L152.0155426629135,241.9012289634693L145.0645849020584,232.83225869950275L129.736831890943,238.87831961808297L112.27032264573063,229.62015739961316L111.0227148424965,220.55020220404822L103.35883833694243,220.36123706187118L99.43778524106892,212.4244155120805L105.14113519869716,209.40071762989282L111.73563358720276,217.71569187243404L116.90429448629584,211.47951862871378L121.53826632686105,215.63700573928782L129.02391314623674,211.47951862871378L132.23204749741126,218.28259963052915L146.66865207764204,219.22743956945033L156.11482544495811,212.61339393927392L181.06698150956072,212.61339393927392L173.93779406252725,205.05400991570787L178.03707684457186,199.3841392902732" stroke="rgba(86, 111, 105, 0.18823529411764706)">
		</path>
	</g>
</svg>