<svg xmlns="http://www.w3.org/2000/svg" viewBox="271 239 195 133" preserveAspectRatio="xMidYMid meet" pointer-events="auto">
<g class="regions">
<path d="M 416.19566,367.06837 C 415.42356,366.10078 415.00294,364.8466 415.16349,363.99075 C 415.55471,361.9054 413.90648,356.62056 412.72327,356.16653 C 411.71833,355.78089 410.78357,356.00957 409.99804,356.83325 C 409.55913,357.29347 408.38885,358.21047 407.39742,358.87102 C 405.72324,359.98645 405.46762,360.07202 403.80967,360.07202 L 402.02453,360.07202 L 401.85833,360.95789 C 401.76693,361.44511 401.82905,362.20383 401.99637,362.64392 C 402.25748,363.33068 402.22567,363.50359 401.77203,363.86376 C 401.48131,364.09457 401.04372,364.68078 400.79959,365.16645 C 400.44832,365.86528 400.18715,366.04948 399.5476,366.04948 C 398.82846,366.04948 398.73947,365.95853 398.73947,365.22355 C 398.73947,364.3321 399.58578,362.44383 400.3786,361.56639 C 400.64864,361.26752 401.02868,360.24638 401.22312,359.2972 C 401.55337,357.68497 401.54245,357.54641 401.05708,357.1915 C 400.01268,356.42781 399.12731,356.72154 397.28834,358.44181 L 395.54563,360.07202 L 393.53222,360.07202 C 390.68526,360.07202 390.16884,359.57536 388.67404,355.39967 L 387.53639,352.22168 L 386.55626,352.13923 C 385.64427,352.06253 385.56079,351.97881 385.35582,350.93538 C 385.15749,349.92575 385.01371,349.76744 383.91328,349.34719 C 382.76839,348.90995 382.61851,348.90905 381.54528,349.33295 C 380.91512,349.58186 379.7882,350.12584 379.04102,350.54181 C 377.75911,351.25548 377.58955,351.28259 376.03399,351.02261 C 374.47146,350.76147 374.33,350.78479 373.32182,351.46987 C 372.73681,351.86739 372.13371,352.18959 371.98161,352.18585 C 371.8295,352.18212 371.1712,351.67538 370.51872,351.05976 L 369.33239,349.94047 L 369.77154,349.01956 C 370.01307,348.51307 370.21068,347.73077 370.21068,347.28112 C 370.21068,346.74011 370.60127,345.94675 371.36542,344.93565 C 372.47105,343.47271 372.52794,343.30277 372.70312,340.9397 C 373.03205,336.50268 373.07901,336.3894 375.30511,334.66246 L 377.27495,333.13432 L 377.26699,331.04819 C 377.25964,329.12271 377.19716,328.89406 376.45571,328.07903 C 375.75988,327.31415 375.47574,327.196 374.33216,327.196 C 372.78885,327.196 372.3088,326.79221 371.86359,325.11958 C 371.67031,324.39346 371.18784,323.65426 370.50383,323.03631 C 369.08261,321.7523 368.71738,321.58829 366.8144,321.37944 C 363.0953,320.97127 361.52812,320.40564 359.7841,318.84207 C 359.20504,318.32293 358.10465,317.61767 357.33878,317.27484 C 354.71342,316.09963 352.89482,313.3873 353.15924,311.04134 C 353.25977,310.1495 353.61302,309.3922 354.43856,308.29878 C 355.06581,307.468 355.76502,306.34308 355.99237,305.79897 C 356.57061,304.41504 356.26089,301.90007 355.24862,299.75963 C 354.59875,298.38548 354.45185,297.71648 354.4515,296.12957 C 354.45095,293.61701 353.9283,292.56325 352.07959,291.34739 C 350.70874,290.44581 350.6639,290.37707 350.81794,289.41375 C 350.91135,288.82968 350.83788,288.15374 350.64104,287.78593 C 350.45589,287.43999 350.15365,286.50836 349.96937,285.71565 L 349.63433,284.27436 L 352.65447,283.33683 C 354.31553,282.82118 356.00208,282.3194 356.40235,282.22174 C 356.80263,282.12408 357.60893,281.51807 358.19414,280.87503 C 359.0609,279.92263 359.54518,279.64165 360.80633,279.35942 L 362.3545,279.01295 L 362.79501,277.42856 C 363.12756,276.23242 363.35775,275.84418 363.73436,275.84418 C 364.06798,275.84418 364.23611,275.64168 364.24194,275.23285 C 364.25104,274.59541 365.1786,273.98785 370.88994,270.87834 C 372.23487,270.14611 373.5798,269.32654 373.87867,269.05708 C 374.17754,268.78763 375.56978,268.15654 376.97254,267.65465 C 378.67732,267.04471 379.66832,266.52924 379.96127,266.10006 C 380.20231,265.74692 381.08629,264.69766 381.92566,263.76839 C 382.76504,262.83911 383.60523,261.61386 383.79278,261.0456 L 384.13375,260.01241 L 387.65219,260.20368 C 389.58733,260.30887 391.66012,260.56764 392.25839,260.77872 C 393.17114,261.10076 393.48495,261.10449 394.20882,260.80191 C 395.41711,260.29683 395.84841,259.69076 395.66218,258.75961 L 395.50597,257.97854 L 397.8433,257.85585 C 400.58426,257.71199 401.00328,257.39387 401.28902,255.2398 C 401.45408,253.99561 401.57451,253.82116 402.89742,252.91003 C 404.4496,251.84101 411.90599,248.56437 413.76036,248.13642 C 415.42329,247.75266 417.67516,247.7998 421.71525,248.30296 C 423.9791,248.58491 425.85456,248.67553 426.85051,248.55109 C 428.27592,248.373 428.57574,248.20967 430.12784,246.76576 C 432.05938,244.96884 433.44664,244.41253 434.81045,244.88796 C 435.69813,245.19741 436.09068,245.91224 436.36736,247.72295 C 436.55839,248.97341 437.02765,249.62968 438.52259,250.73733 L 439.58809,251.52679 L 444.09249,251.52679 C 448.07182,251.52679 448.82523,251.45284 450.55546,250.89243 C 452.66906,250.20784 453.08001,250.26395 453.08001,251.23716 C 453.08001,253.08856 453.3982,253.58759 455.90382,255.6659 C 457.26477,256.79472 458.95678,258.09808 459.66391,258.56224 L 460.94963,259.40617 L 460.95452,261.5209 C 460.95979,263.80836 460.69559,264.52609 458.55186,268.04838 C 457.08192,270.4635 457.08629,270.44643 456.88208,274.62152 C 456.72197,277.89537 456.60157,278.61869 456.01809,279.81295 C 454.94631,282.00669 453.37049,284.53071 451.92266,286.37266 C 450.7657,287.84459 450.46816,288.07081 449.68894,288.07081 C 449.19452,288.07081 447.97651,288.32207 446.98224,288.62917 C 445.01652,289.23631 444.11686,290.18772 444.11482,291.66141 C 444.11425,292.09302 443.77468,292.78539 443.29654,293.32997 C 442.52591,294.20771 442.36424,294.2666 440.46194,294.36266 C 439.35242,294.41869 438.3447,294.56412 438.22257,294.68583 C 438.10044,294.80754 437.91987,296.82297 437.82129,299.16457 C 437.64591,303.33086 437.6179,303.48309 436.51223,306.27489 C 434.71478,310.81343 433.12654,312.01001 430.80039,310.57815 C 429.92458,310.03905 429.44147,309.98827 424.68708,309.93571 C 418.87954,309.8715 418.57376,309.95743 418.57376,311.65383 C 418.57376,313.11121 419.63591,316.38362 420.35771,317.15001 C 420.96336,317.79308 421.0023,318.02843 420.97662,320.8899 L 420.94921,323.94354 L 419.27742,323.77227 C 418.00441,323.64183 417.52945,323.69283 417.28608,323.98606 C 416.77004,324.60788 416.31146,328.07411 416.52216,329.76048 C 416.69622,331.15368 416.86527,331.45842 418.33627,333.03092 C 419.6521,334.43755 420.4562,335.00405 422.59445,336.03083 C 424.04425,336.72704 426.48985,337.71812 428.02905,338.23324 C 429.5683,338.74836 431.48529,339.46067 432.28907,339.81614 C 433.57379,340.38429 433.73133,340.53923 433.59183,341.09727 C 433.50456,341.44642 433.10307,342.16002 432.69964,342.68305 C 432.29619,343.20608 431.62644,344.39715 431.21131,345.32987 C 430.15349,347.70651 430.32752,348.74617 432.10923,350.69567 C 432.85726,351.51414 434.28671,353.36439 435.28576,354.80732 C 437.41013,357.87553 437.44781,357.53446 434.62208,360.8154 C 431.64185,364.27569 430.84356,364.58232 430.22139,362.50567 C 429.88285,361.37578 429.23475,360.88713 428.07472,360.88713 C 427.35935,360.88713 422.98282,364.70284 422.20809,366.00204 C 421.49231,367.20232 420.90093,367.408 418.1655,367.408 C 417.13211,367.408 416.36053,367.27496 416.19566,367.06837 z" stroke-width="0.4" stroke-opacity="0.5" id="Leh (ladakh)" fill="#f2f0f0" stroke="rgb(86, 111, 105)" pointer-events="all" style="cursor: pointer;"><title>Leh Ladakh</title></path>
<path title="Kargil" d="M 368.71058,349.53165 C 368.5615,349.42612 368.11072,348.83224 367.70884,348.21193 C 367.00909,347.13187 366.89412,347.07066 364.99435,346.76679 C 361.71323,346.24198 361.86591,346.35987 360.93257,343.63064 C 360.04137,341.02467 359.64334,340.40721 358.46018,339.79538 C 358.04887,339.58268 357.71236,339.27989 357.71236,339.12249 C 357.71236,338.61975 354.9314,335.61878 354.46552,335.61878 C 353.70754,335.61878 353.36511,335.02264 353.36511,333.70306 C 353.36511,329.80765 349.79595,325.88803 346.51785,326.18346 C 345.8153,326.24677 344.62705,326.60216 343.8773,326.97321 C 342.94076,327.43669 342.42641,327.56012 342.23386,327.36758 C 341.863,326.99672 341.87436,324.5913 342.2503,323.88886 C 342.71948,323.01219 342.14468,321.31261 340.36853,318.32478 C 337.34916,313.24565 337.00435,312.77045 336.22516,312.61461 C 335.71249,312.51207 335.3529,312.16754 335.0378,311.47691 C 334.33975,309.94696 333.45449,309.08844 331.44145,307.98917 C 329.38162,306.86435 328.9812,306.47967 328.73898,305.39299 C 328.5036,304.33698 326.66138,302.74275 325.67647,302.74275 C 325.03011,302.74275 324.75976,302.52399 324.17683,301.5293 C 323.32948,300.0834 321.91982,298.93892 320.98628,298.93892 C 320.61549,298.93892 320.04228,298.65169 319.71248,298.30064 C 319.19633,297.75123 319.15439,297.55313 319.41119,296.87769 C 319.57527,296.44612 319.77531,295.05218 319.85571,293.78005 C 319.93611,292.50792 320.17264,290.86413 320.38134,290.12719 C 320.59004,289.39024 320.76079,288.32763 320.76079,287.76583 C 320.76079,287.20402 320.88306,286.6688 321.03249,286.57644 C 321.18193,286.48408 321.3042,285.36573 321.3042,284.0912 L 321.3042,281.77388 L 322.45341,281.96804 C 323.08548,282.07483 325.01118,282.53354 326.73273,282.98739 C 328.96286,283.57533 330.83934,283.86785 333.25911,284.00481 C 336.22286,284.17255 341.52473,285.07158 344.3725,285.88929 C 345.15319,286.11345 345.59434,286.02984 347.20791,285.35189 C 348.2589,284.91032 349.16541,284.59565 349.2224,284.65263 C 349.51607,284.9463 350.19112,288.12116 350.22846,289.38425 C 350.27117,290.82882 350.27569,290.83591 351.61444,291.55787 C 353.42563,292.53463 354.18022,294.00085 354.18022,296.54342 C 354.18022,297.94014 354.34991,298.75605 354.88872,299.95005 C 355.31725,300.89967 355.65235,302.22499 355.73675,303.30392 C 355.89344,305.30705 355.64351,305.9831 353.88555,308.3115 C 352.62465,309.98156 352.20736,312.09648 352.92319,313.18898 C 353.16626,313.55994 353.36511,314.02476 353.36511,314.22192 C 353.36511,314.82612 356.14503,317.32354 357.44066,317.8833 C 358.11312,318.17384 359.24934,318.91896 359.96558,319.53914 C 361.45493,320.82873 363.00945,321.36054 366.37048,321.73031 C 368.59329,321.97485 368.67269,322.00906 369.95916,323.27619 C 370.68274,323.98888 371.34945,324.91212 371.44076,325.32783 C 371.53206,325.74354 371.85172,326.39507 372.15111,326.77568 C 372.60321,327.35043 372.92295,327.4677 374.03807,327.4677 C 375.20691,327.4677 375.48467,327.582 376.18401,328.35073 C 376.90077,329.13863 376.98818,329.42662 376.99529,331.02381 L 377.00325,332.81384 L 374.85935,334.47567 C 372.45149,336.3421 372.53643,336.13818 372.16676,340.9397 C 371.98523,343.29762 371.92524,343.4759 370.82201,344.93565 C 369.9449,346.09622 369.66496,346.71134 369.65765,347.49412 C 369.64667,348.66982 369.11349,349.8169 368.71058,349.53166 L 368.71058,349.53165 z" fill="#f2f0f0" stroke-width="0.4" stroke-opacity="0.5" stroke="rgb(86, 111, 105)" pointer-events="all" style="cursor: pointer;"><title>Kargil</title></path>
<path title="Kishtwar" d="M 336.70702,344.13848 C 336.60817,344.03961 336.44865,343.36603 336.35256,342.64163 C 336.18335,341.36608 336.14938,341.32454 335.27538,341.32454 C 334.70467,341.32454 334.27686,341.4962 334.1116,341.79151 C 333.91764,342.13809 333.56481,342.23787 332.74302,342.17853 C 331.7891,342.10966 331.52384,342.22113 330.82758,342.98344 C 330.1982,343.67252 329.98459,343.7776 329.8621,343.45837 C 329.77558,343.23292 329.8366,342.7018 329.99769,342.27811 C 330.15878,341.85442 330.19433,341.41683 330.0767,341.30571 C 329.5973,340.85283 326.2685,340.0509 325.34632,340.16612 L 324.36196,340.28912 L 324.24069,338.70114 C 324.13713,337.34532 323.89023,336.7465 322.55195,334.60537 L 320.98448,332.09759 L 322.36701,328.29656 C 323.12739,326.20599 323.74796,324.09443 323.74605,323.60421 C 323.74054,322.18928 322.47718,318.60572 321.26386,316.56339 C 319.96588,314.37858 319.43083,313.00011 319.4142,311.79804 C 319.40486,311.12244 319.63498,310.73699 320.47902,310.01452 C 321.18551,309.4098 321.75434,308.57396 322.13324,307.58385 C 322.90866,305.55755 324.89594,303.28616 325.89338,303.28616 C 326.81991,303.28616 327.84021,304.33575 328.58676,306.05682 C 329.07625,307.18527 329.35891,307.44316 331.02697,308.28318 C 332.95276,309.253 334.08441,310.32701 334.83172,311.89413 C 335.06985,312.39347 335.57191,312.88583 335.99249,313.03244 C 336.7568,313.29888 337.8687,314.85812 340.4365,319.26437 C 341.8476,321.68576 341.87808,321.86227 341.53268,325.61225 C 341.37856,327.28542 341.41137,327.44921 341.95936,327.74249 C 342.45179,328.00602 342.82038,327.94019 344.12127,327.35639 C 346.18687,326.4294 347.4659,326.45291 349.31013,327.45179 C 351.32564,328.54343 352.61277,330.61691 352.7557,333.00232 C 352.87873,335.05549 353.25797,335.89048 354.06745,335.89048 C 354.45716,335.89048 354.99565,336.2916 355.55636,336.99954 L 356.43475,338.1086 L 355.5859,338.95745 C 354.89437,339.64899 354.54771,339.79354 353.71532,339.73748 C 353.15336,339.69963 352.43943,339.42991 352.1288,339.13809 C 351.63305,338.67236 351.16764,338.60806 348.3211,338.61198 C 344.12828,338.61775 343.3014,339.00748 342.07134,341.55757 C 341.23688,343.28748 340.51698,344.03121 340.18961,343.50152 C 339.88679,343.01153 338.08709,343.19061 337.46786,343.77235 C 337.14828,344.07259 336.8059,344.23735 336.70703,344.13848 L 336.70702,344.13848 z" fill="#f2f0f0" stroke-width="0.4" stroke-opacity="0.5" stroke="rgb(86, 111, 105)" pointer-events="all" style="cursor: pointer;"><title>Kishtwar</title></path>
<path title="Doda" d="M 325.76981,348.63222 C 325.47387,348.15339 323.41774,347.31448 322.52408,347.30796 C 321.43102,347.29999 320.63011,346.50476 319.00261,343.81152 C 318.16376,342.42338 317.433,341.52149 317.07409,341.43141 C 316.63264,341.32061 316.52599,341.1305 316.6224,340.6262 C 316.71474,340.14312 316.62849,339.96602 316.30084,339.96602 C 315.6306,339.96602 315.46795,339.20204 316.01054,338.60249 C 316.40759,338.16375 316.42895,338.00249 316.13665,337.65029 C 315.84259,337.29599 315.88322,337.09308 316.38378,336.41605 C 316.84029,335.79858 316.96357,335.30565 316.90195,334.34416 C 316.82627,333.16303 316.88001,333.04764 317.74403,332.53626 L 318.66695,331.99003 L 319.18943,332.63526 C 319.63268,333.18265 319.79145,333.2308 320.23656,332.95283 C 320.775,332.61656 320.85452,332.71215 323.35816,336.70559 C 323.49869,336.92975 323.6748,337.90788 323.74952,338.87921 L 323.88537,340.64528 L 325.65144,340.67991 C 327.63535,340.71881 329.60951,341.33672 329.55523,341.9018 C 329.53548,342.10734 329.43906,342.58116 329.34095,342.95475 C 329.20339,343.4786 329.30028,343.7191 329.76445,344.0059 C 330.40321,344.40058 330.45366,344.36851 331.23576,343.0703 C 331.44645,342.7206 331.85931,342.60047 332.8016,342.61471 C 333.79562,342.62974 334.14332,342.51821 334.35903,342.11515 C 334.69006,341.49661 335.70444,341.41778 335.70444,342.01058 C 335.70444,342.23847 335.94897,343.12066 336.24784,343.97101 C 336.93212,345.9179 336.93106,346.54784 336.24249,347.171 C 335.75967,347.60794 335.5066,347.63388 334.13679,347.38692 C 332.14129,347.02715 330.56435,347.21758 329.80928,347.90949 C 328.93487,348.71077 326.12865,349.21284 325.76981,348.63222 L 325.76981,348.63222 z" fill="#f2f0f0" stroke-width="0.4" stroke-opacity="0.5" stroke="rgb(86, 111, 105)" pointer-events="all" style="cursor: pointer;"><title>Doda</title></path>
<path title="Kathua" d="M 318.99472,366.69952 C 318.1125,366.37606 317.66173,366.35996 316.60014,366.61404 C 315.37829,366.90648 315.24713,366.88482 314.60373,366.28448 C 313.09062,364.87263 312.85299,364.28467 312.75272,361.70465 C 312.70041,360.35841 312.76322,359.25692 312.89231,359.25692 C 313.02139,359.25692 313.49724,358.71881 313.94974,358.06112 C 314.50031,357.2609 315.2012,356.67032 316.06849,356.27583 C 316.7813,355.9516 317.54791,355.5696 317.77206,355.42693 C 317.99621,355.28426 319.61717,354.45269 321.37417,353.57901 C 323.696,352.42447 324.79086,351.71099 325.38179,350.9674 C 325.82897,350.4047 326.19484,349.84709 326.19484,349.72827 C 326.19484,349.47618 326.71666,349.31015 328.26217,349.07051 C 329.37038,348.89867 329.37966,348.90437 329.53315,349.85027 C 329.6182,350.37433 329.96133,351.17311 330.29566,351.62532 C 330.69167,352.16094 330.94711,352.97289 331.02854,353.95489 C 331.29866,357.21219 329.74753,359.82344 326.54187,361.50797 C 324.81568,362.41506 322.39101,364.57603 322.39101,365.2074 C 322.39101,365.58594 320.77161,367.13945 320.40026,367.11715 C 320.22495,367.10661 319.59247,366.91869 318.99472,366.69952 L 318.99472,366.69952 z" fill="#f2f0f0" stroke-width="0.4" stroke-opacity="0.5" id="Kathua" stroke="rgb(86, 111, 105)" pointer-events="all" style="cursor: pointer;"><title>Kathua</title></path>
<path title="Samba" d="M 310.96487,362.08668 C 310.44988,361.55092 309.52653,360.81604 308.91296,360.45359 C 307.68443,359.72786 304.20259,358.44421 303.44484,358.43765 C 302.25795,358.42738 302.20459,358.01159 303.21046,356.61149 C 303.74752,355.86395 304.18692,355.1141 304.18692,354.94515 C 304.18692,354.77621 304.31503,354.63797 304.4716,354.63797 C 304.62818,354.63797 305.02554,354.35129 305.35463,354.00091 C 305.74548,353.5848 306.40059,353.30391 307.24358,353.191 C 308.44761,353.02975 308.53475,353.0588 308.54281,353.62428 C 308.55507,354.48457 309.05016,354.98968 310.30024,355.4173 C 312.56217,356.19106 313.96822,356.89112 313.96822,357.24355 C 313.96822,357.44433 313.56334,358.01347 313.06847,358.50833 C 312.19605,359.38076 312.17226,359.46354 312.28502,361.23442 C 312.34966,362.24967 312.29026,363.06075 312.15125,363.06075 C 312.01372,363.06075 311.47985,362.62242 310.96487,362.08667 L 310.96487,362.08668 z" fill="#f2f0f0" stroke-width="0.4" id="Samba" stroke-opacity="0.5" fill="#f2f0f0" stroke="rgb(86, 111, 105)" pointer-events="all" style="cursor: pointer;"><title>Samba</title></path>
<path title="Jammu" d="M 298.97554,357.62816 C 297.82779,357.36813 296.48362,356.91878 295.9885,356.62962 C 295.20738,356.17341 295.06044,355.9105 294.87796,354.64248 C 294.64813,353.04547 294.80785,352.3459 296.06804,349.43 C 296.49867,348.43358 296.78204,347.43858 296.69775,347.2189 C 296.61344,346.99922 296.00918,346.6696 295.35494,346.48643 C 294.34763,346.20441 293.96528,346.22276 292.85908,346.6063 C 292.1406,346.85541 290.75502,347.12926 289.78002,347.21488 C 288.12919,347.35984 287.87231,347.30256 286.04411,346.38189 C 284.96435,345.83813 284.08092,345.29444 284.08092,345.17367 C 284.08092,345.0529 285.02495,344.80733 286.17876,344.62796 C 287.33258,344.44858 288.39629,344.18212 288.54258,344.03584 C 288.68886,343.88954 289.33148,343.76986 289.97061,343.76986 C 290.8883,343.76986 291.22005,343.6365 291.54821,343.13566 C 292.18745,342.16008 293.52739,341.86543 295.47578,342.27202 C 296.38084,342.46089 297.29939,342.7632 297.51703,342.94382 C 297.73467,343.12444 298.77949,343.6876 299.83886,344.19529 C 300.89823,344.70298 302.30139,345.48742 302.95699,345.93848 C 303.61259,346.38954 304.33588,346.75859 304.56431,346.75859 C 304.79274,346.75859 305.639,347.25169 306.44488,347.85436 C 307.97457,348.99834 308.53417,350.07779 308.53417,351.88454 C 308.53417,352.71582 308.50436,352.73605 307.27945,352.73605 C 306.27275,352.73605 305.84122,352.89718 305.09637,353.55116 C 304.58577,353.99947 304.05001,354.36627 303.90577,354.36627 C 303.76153,354.36627 303.6429,354.58023 303.64215,354.84175 C 303.64066,355.36309 301.77015,357.96076 301.33405,358.04714 C 301.18461,358.07673 300.12328,357.8882 298.97554,357.62816 L 298.97554,357.62816 z" fill="#f2f0f0" stroke-width="0.4" stroke-opacity="0.5" id="Jammu" stroke="rgb(86, 111, 105)" pointer-events="all" style="cursor: pointer;"><title>Jammu</title></path>
<path title="Rajouri" d="M 281.19929,341.39246 C 279.71476,338.46153 279.47905,338.14509 278.32239,337.53038 C 276.80165,336.72217 276.83265,336.85653 276.57637,329.96367 L 276.39137,324.98781 L 277.38579,324.16813 C 277.93272,323.71729 278.31073,323.23601 278.2258,323.09859 C 278.00015,322.73347 278.12612,322.75986 281.52013,323.78876 C 283.22557,324.30575 285.078,325.03936 285.63666,325.41898 C 286.84822,326.24224 287.77808,326.28681 288.69987,325.56578 C 289.23561,325.14672 289.81369,325.03318 291.43592,325.02842 C 293.40732,325.02263 293.54001,325.06286 294.63211,325.99766 C 295.25878,326.53406 296.13665,327.50366 296.58293,328.15231 C 297.33211,329.2412 297.39436,329.51416 297.39436,331.71056 C 297.39436,334.07711 297.3889,334.09592 296.3417,335.33784 C 295.34573,336.51899 295.29646,336.66356 295.42699,338.02201 C 295.55622,339.36702 295.50684,339.5187 294.64566,340.4213 C 294.14006,340.95123 293.20414,341.61256 292.56586,341.8909 C 291.92758,342.16924 291.33374,342.58362 291.24621,342.81172 C 291.14089,343.08617 290.72604,343.22646 290.01976,343.22646 C 289.43273,343.22646 288.68166,343.39605 288.35068,343.60334 C 287.84498,343.92005 284.33293,344.58497 283.16582,344.58497 C 282.97359,344.58497 282.08866,343.14834 281.19929,341.39246 L 281.19929,341.39246 z" fill="#f2f0f0" stroke-width="0.4" stroke-opacity="0.5" stroke="rgb(86, 111, 105)" id="Rajouri" pointer-events="all" style="cursor: pointer;"><title>Rajouri</title></path>
<path title="Punch" d="M 285.89639,325.01269 C 285.13779,324.41597 285.03543,324.3773 280.93361,323.13781 L 278.19386,322.30991 L 277.21011,319.11511 C 276.11637,315.56316 275.74577,313.82846 276.10137,313.92541 C 276.82465,314.12261 283.49,313.50888 284.11063,313.18794 C 284.50877,312.98205 285.8261,312.7309 287.038,312.62984 C 288.35937,312.51964 289.3639,312.29853 289.54734,312.07751 C 289.85892,311.70207 290.87349,311.55964 290.87349,311.89133 C 290.87349,311.99164 290.67812,312.2896 290.43932,312.55346 C 289.9035,313.14553 290.15166,313.61086 291.00322,313.61086 C 291.45119,313.61086 291.83348,313.91775 292.27243,314.62975 C 292.61792,315.19013 293.23354,315.92982 293.64049,316.2735 C 294.27633,316.81049 294.39173,317.13531 294.46094,318.58297 C 294.52392,319.90019 294.43778,320.37128 294.066,320.74306 C 293.7107,321.09836 293.59052,321.66491 293.59052,322.9846 L 293.59052,324.75067 L 291.33297,324.75067 C 289.76862,324.75067 288.91349,324.87316 288.54802,325.14959 C 287.8013,325.71438 286.7173,325.65842 285.89639,325.01269 L 285.89639,325.01269 z" fill="#f2f0f0" stroke-width="0.4" stroke-opacity="0.5" stroke="rgb(86, 111, 105)" pointer-events="all" style="cursor: pointer;"><title>Punch</title></path>
<path title="Baramula" d="M 275.97618,310.97109 C 275.9354,309.48807 276.0887,307.1714 276.32292,305.73148 C 276.55383,304.31184 276.74326,302.51416 276.74386,301.73665 C 276.74446,300.95914 276.88212,300.02195 277.04976,299.654 C 277.32865,299.04192 277.4731,298.9957 278.74791,299.11063 C 285.85218,299.75112 286.58128,299.68976 288.07747,298.32551 C 288.40761,298.02448 289.11703,297.74332 289.65395,297.70071 C 290.19087,297.65811 291.04355,297.30795 291.54881,296.92257 C 292.05407,296.5372 292.53674,296.22189 292.62143,296.22189 C 292.70612,296.22189 292.77541,296.75712 292.77541,297.41128 C 292.77541,298.07627 292.93657,298.73443 293.14093,298.90403 C 293.83784,299.48242 295.1734,299.5667 296.16739,299.09502 C 297.51151,298.45719 299.72003,298.22967 300.25527,298.67388 C 300.90027,299.20918 300.26462,299.47327 298.3195,299.47816 C 297.06419,299.48132 296.55471,299.60249 296.21401,299.97897 C 295.79557,300.44133 295.79736,300.55365 296.23983,301.60642 C 296.66124,302.60906 296.81726,302.73754 297.61644,302.73999 C 298.34759,302.74223 298.49078,302.83253 298.37478,303.21823 C 298.29611,303.47975 298.03244,304.58503 297.78881,305.67443 C 297.43398,307.26108 297.41298,307.73601 297.68323,308.06165 C 298.21176,308.69848 296.76328,310.07873 295.56645,310.07873 C 295.05111,310.07873 294.3006,310.34098 293.83872,310.68247 C 293.20202,311.1532 292.64504,311.28788 291.3105,311.2938 C 290.36911,311.29798 289.42716,311.43823 289.2173,311.60548 C 289.00742,311.77273 288.28552,311.98273 287.61306,312.07214 C 286.94059,312.16156 285.8402,312.36847 285.16773,312.53195 C 283.57464,312.91924 281.24477,313.23496 278.36697,313.4535 L 276.04929,313.62952 L 275.97618,310.97109 z" fill="#f2f0f0" stroke-width="0.4" id="Baramula" stroke-opacity="0.5" stroke="rgb(86, 111, 105)" pointer-events="all" style="cursor: pointer;"><title>Baramula</title></path>
<path title="Kupwara" d="M 281.09219,298.87343 C 279.22424,298.73201 277.64548,298.56714 277.58385,298.50705 C 277.52222,298.44697 277.61392,298.08587 277.78763,297.70462 C 277.96134,297.32336 278.10346,296.25278 278.10346,295.32553 C 278.10346,293.49181 278.91609,288.86308 279.54543,287.11207 C 279.7618,286.51004 280.43663,285.04285 281.04505,283.85164 C 281.94865,282.08249 282.47676,281.42453 283.92837,280.25935 C 285.28827,279.1678 285.922,278.83291 286.62768,278.83291 C 287.52937,278.83291 292.34966,280.67752 293.43556,281.43811 C 293.73673,281.64906 294.38386,281.82164 294.87364,281.82164 C 295.36341,281.82164 295.76414,281.92249 295.76414,282.04576 C 295.76414,282.73336 294.34164,286.28904 293.7631,287.04754 C 292.74837,288.37791 292.43791,289.38838 292.4856,291.20532 C 292.52297,292.62861 292.42243,292.99213 291.72524,293.95457 C 291.28336,294.56458 290.54414,295.33259 290.08254,295.66128 C 289.62094,295.98997 289.24327,296.4034 289.24327,296.58002 C 289.24324,297.31797 286.18073,299.23898 285.1133,299.17059 C 284.76964,299.14857 282.96015,299.01485 281.09219,298.87343 z" fill="#f2f0f0" stroke-width="0.4" stroke-opacity="0.5" id="Kupwara" stroke="rgb(86, 111, 105)" pointer-events="all" style="cursor: pointer;"><title>Kupwara</title></path>
<path title="Bandipore" d="M 294.20185,298.88377 C 293.3301,298.65464 293.31882,298.63094 293.31882,297.02923 C 293.31882,296.13688 293.22673,295.40678 293.11417,295.40678 C 293.00161,295.40678 292.30763,295.83471 291.57198,296.35774 C 290.83633,296.88077 290.13369,297.3087 290.01056,297.3087 C 289.56665,297.3087 289.79871,296.34509 290.3212,296.01879 C 290.61519,295.83519 291.35868,295.04868 291.97341,294.27099 C 293.01186,292.95726 293.0864,292.74995 293.02488,291.34695 C 292.94245,289.46714 293.20568,288.49398 294.14874,287.19213 C 294.55463,286.63182 295.21841,285.22055 295.62381,284.05596 L 296.36091,281.93854 L 299.93429,281.46843 C 304.44719,280.87471 309.50755,280.87053 312.7955,281.45782 C 315.1957,281.88654 315.40367,281.88439 316.95459,281.41481 C 318.33227,280.99767 318.7568,280.97135 319.67396,281.24613 L 320.76079,281.57176 L 320.76079,283.85428 C 320.76079,285.10968 320.63852,286.21238 320.48909,286.30474 C 320.33965,286.3971 320.21738,287.12995 320.21738,287.9333 C 320.21738,288.73665 320.08712,289.73656 319.92791,290.15532 C 319.7687,290.57408 319.57435,291.95754 319.49603,293.22967 C 319.41771,294.5018 319.23282,295.94 319.08518,296.42566 C 318.85472,297.18369 318.69278,297.3087 317.94118,297.3087 C 317.45963,297.3087 316.94948,297.42145 316.80752,297.55926 C 316.66555,297.69707 316.10999,297.89049 315.57293,297.98909 C 314.62673,298.16281 314.5341,298.10137 312.5842,296.0067 C 310.2313,293.47909 309.43614,293.1341 308.74377,294.34049 C 308.45912,294.83647 307.73442,295.40472 306.88414,295.79866 C 306.11788,296.15368 305.16696,296.74402 304.771,297.11053 C 304.04067,297.78653 300.65479,298.81857 300.65479,298.36517 C 300.65479,297.91949 297.30638,298.11416 296.17169,298.6258 C 295.36288,298.9905 294.85901,299.05649 294.20185,298.88377 z" fill="#f2f0f0" stroke-width="0.4" stroke-opacity="0.5" id="Bandipore" stroke="rgb(86, 111, 105)" pointer-events="all" style="cursor: pointer;"><title>Bandipore</title></path>
<path title="Ganderbal" d="M 312.74556,301.51393 C 311.99427,300.8664 311.3869,300.57597 310.7782,300.57317 C 309.60318,300.56778 301.7054,299.76513 301.23552,299.60336 C 300.5443,299.36538 301.40435,298.76835 302.93036,298.42685 C 303.74748,298.24399 304.62145,297.84608 304.90342,297.52856 C 305.18182,297.21505 306.03211,296.68064 306.79297,296.34098 C 307.55383,296.00132 308.49298,295.34712 308.87998,294.8872 C 309.37041,294.30435 309.7263,294.10573 310.05452,294.23169 C 310.31353,294.33108 311.38652,295.31889 312.43896,296.42684 C 314.56247,298.66235 314.05737,298.51449 317.70413,297.96805 C 318.33924,297.87289 318.85529,297.89957 318.85091,298.02734 C 318.83786,298.40783 317.20414,300.09178 317.0234,299.91103 C 316.75899,299.64664 315.05503,301.4385 315.05503,301.98094 C 315.05503,302.7755 313.95002,302.55205 312.74556,301.51393 z" fill="#f2f0f0" stroke-width="0.4" stroke-opacity="0.5" stroke="rgb(86, 111, 105)" pointer-events="all" style="cursor: pointer;"><title>Ganderbal</title></path>
<path title="Anantnag" d="M 318.29818,331.05604 C 314.67705,327.14952 311.5229,323.40263 311.5229,323.00751 C 311.5229,322.6967 311.25859,322.57705 310.57194,322.57705 C 310.04891,322.57705 309.62098,322.45478 309.62098,322.30535 C 309.62098,322.15591 309.36203,321.7747 309.04554,321.45821 L 308.47011,320.88277 L 309.01878,319.89591 L 309.56745,318.90906 L 308.12446,317.30483 C 307.33083,316.42251 306.74411,315.53741 306.82066,315.33795 C 306.8972,315.13848 307.46689,314.83992 308.08662,314.67449 C 308.70636,314.50906 310.08095,313.97422 311.14125,313.48597 L 313.06908,312.59824 L 313.24694,311.30056 C 313.34478,310.58684 313.42482,308.76053 313.42482,307.24209 C 313.42482,304.10911 313.75132,303.07957 314.78333,302.95837 C 315.27442,302.9007 315.488,302.69044 315.55433,302.19935 C 315.66259,301.39782 316.63327,300.26632 317.12837,300.3645 C 317.31912,300.40233 317.82322,300.01854 318.24861,299.51165 C 318.92443,298.70633 319.09522,298.62917 319.60186,298.90031 C 319.92074,299.07098 320.47502,299.21062 320.83357,299.21062 C 321.57581,299.21062 323.31257,300.78059 324.1772,302.23314 L 324.74073,303.17987 L 323.47185,304.59658 C 322.77395,305.37577 322.03503,306.53065 321.82981,307.16297 C 321.62037,307.80829 320.87025,308.93771 320.11993,309.73744 L 318.78319,311.16222 L 319.09651,312.72617 C 319.2804,313.64407 319.92735,315.18149 320.66263,316.44795 C 322.15978,319.02663 323.20611,321.95965 323.20611,323.57768 C 323.20611,324.91022 320.96228,331.38825 320.23191,332.16431 C 319.79726,332.62615 319.70413,332.57278 318.29818,331.05603 L 318.29818,331.05604 z" fill="#f2f0f0" stroke-width="0.4" id="Anantnag" stroke-opacity="0.5" stroke="rgb(86, 111, 105)" pointer-events="all" style="cursor: pointer;"><title>Anantnag</title></path>
<path title="Ramban" d="M 313.56067,340.32501 C 309.95736,339.19916 309.75684,339.15092 308.68068,339.15092 C 308.01116,339.15092 307.51508,338.98225 307.28218,338.67544 C 306.66827,337.86671 306.82602,335.58296 307.61482,333.86 C 308.19666,332.58912 308.29434,332.07092 308.15299,331.00536 C 308.01871,329.99315 308.06956,329.66923 308.38148,329.54953 C 308.85238,329.36882 310.02799,327.597 310.88949,325.76956 C 311.22411,325.05973 311.58351,324.47897 311.68815,324.47897 C 311.91155,324.47897 314.08452,326.85374 316.43181,329.66318 C 318.24787,331.8368 318.23634,331.57943 316.57129,332.77788 C 316.09895,333.11785 316.08159,333.25945 316.38723,334.27959 C 316.69054,335.29191 316.67119,335.46483 316.19615,335.98783 C 315.51031,336.74291 315.34567,337.27863 315.62944,337.8318 C 315.78058,338.12642 315.72177,338.39241 315.45688,338.61225 C 314.87577,339.09452 314.95787,339.99149 315.59844,340.159 C 315.89731,340.23715 316.14184,340.47024 316.14184,340.67697 C 316.14184,341.14156 316.19916,341.14938 313.56067,340.325 L 313.56067,340.32501 z" fill="#f2f0f0" stroke-width="0.4" stroke-opacity="0.5" stroke="rgb(86, 111, 105)" pointer-events="all" style="cursor: pointer;"><title>Ramban</title></path>
<path title="Udhampur" d="M 313.2815,356.10917 C 312.68786,355.74985 311.92706,355.45524 311.59082,355.45447 C 311.25459,355.4537 310.97949,355.33081 310.97949,355.18138 C 310.97949,355.03194 310.68076,354.90967 310.31564,354.90967 C 309.30093,354.90967 308.80587,353.96018 308.80587,352.01403 C 308.80587,349.84471 308.48437,349.00298 307.237,347.90654 L 306.22469,347.01671 L 306.86339,346.48233 C 307.43186,346.00667 307.46919,345.85363 307.20301,345.09005 C 306.74202,343.7677 306.84126,343.10805 307.60902,342.39078 C 308.20944,341.82986 308.29505,341.56069 308.1858,340.57736 C 308.05874,339.43362 308.06576,339.42262 308.92317,339.42262 C 309.39928,339.42262 310.02616,339.60213 310.31623,339.82153 C 310.6063,340.04093 311.21044,340.23228 311.65875,340.24676 C 312.10706,340.26122 313.57301,340.66248 314.91642,341.13843 L 317.35898,342.00379 L 318.85612,344.38103 C 320.57217,347.10588 321.0146,347.48132 322.93997,347.84646 C 323.70825,347.99215 324.69364,348.36544 325.12974,348.67597 C 325.81927,349.16696 325.88283,349.31787 325.61724,349.83357 C 324.97591,351.07881 324.06096,351.75356 321.13949,353.13576 C 319.47981,353.92099 318.04148,354.69355 317.94319,354.85259 C 317.8449,355.01161 317.3077,355.28989 316.74939,355.47097 C 316.19108,355.65205 315.42527,356.01672 315.04757,356.28135 C 314.38102,356.74835 314.32915,356.7433 313.2815,356.10918 L 313.2815,356.10917 z" fill="#f2f0f0" stroke-width="0.4" stroke-opacity="0.5" id="Udhampur" stroke="rgb(86, 111, 105)" pointer-events="all" style="cursor: pointer;"><title>Udhampur</title></path>
<path title="Reasi" d="M 305.40959,346.48689 C 305.31723,346.33745 305.01685,346.21519 304.74206,346.21519 C 304.46728,346.21519 303.40467,345.70603 302.3807,345.08373 C 301.35674,344.46143 299.90761,343.66121 299.16042,343.30546 C 298.41324,342.94971 297.49625,342.48253 297.12265,342.2673 C 296.74906,342.05205 296.13773,341.87228 295.76414,341.86779 C 295.39055,341.86329 294.9029,341.74456 294.68047,341.60393 C 294.34433,341.3914 294.42705,341.19245 295.1706,340.42531 C 296.01629,339.55278 296.0551,339.42666 295.8812,338.11574 C 295.70295,336.77214 295.73201,336.68962 296.81751,335.45644 L 297.93776,334.18377 L 297.93776,331.89905 C 297.93776,330.39565 297.79784,329.34376 297.52862,328.82313 C 297.15236,328.09554 297.15925,328.01064 297.61429,327.76711 C 298.18782,327.46017 299.34399,327.68957 301.41203,328.52064 C 302.26867,328.86489 303.4512,329.09792 304.34156,329.09792 C 306.44109,329.09792 307.70717,329.67118 307.76131,330.64634 C 307.83828,332.03253 307.69189,332.70174 307.02286,334.02199 C 306.07,335.90239 306.12078,337.66717 307.17565,339.33053 C 308.207,340.95679 308.19843,341.39433 307.11864,342.2394 C 306.24691,342.92162 306.24665,342.9226 306.5471,344.36478 C 306.80007,345.57902 306.7809,345.88296 306.42615,346.28311 C 305.94824,346.82219 305.65335,346.8813 305.40959,346.48689 z" fill="#f2f0f0" stroke-width="0.4" stroke-opacity="0.5" id="Reasi" stroke="rgb(86, 111, 105)" pointer-events="all" style="cursor: pointer;"><title>Reasi</title></path>
<path title="Kulgam" d="M 306.66898,328.95144 C 306.16615,328.73312 305.04533,328.55451 304.17826,328.55451 C 303.15015,328.55451 302.14499,328.35057 301.28865,327.96822 C 300.44887,327.59326 299.3822,327.3729 298.32952,327.35689 C 296.74369,327.33276 296.63192,327.28301 295.27286,325.99625 C 293.89368,324.69042 293.86222,324.62605 293.86222,323.10871 C 293.86222,320.94379 294.18164,320.73757 296.39433,321.47391 C 297.61618,321.88052 298.21569,322.23874 298.41822,322.68326 C 298.82784,323.58227 301.4699,324.08658 301.4699,323.26576 C 301.4699,322.59903 303.06976,320.99899 304.06477,320.67061 C 305.15387,320.31118 305.42228,319.62404 305.15911,317.86912 C 305.01391,316.90082 305.07879,316.61435 305.53728,316.19942 C 306.08221,315.70627 306.11317,315.72322 307.55277,317.30382 L 309.01484,318.90906 L 308.48254,319.9568 C 307.95702,320.99128 307.9569,321.01195 308.47343,321.58703 C 308.76117,321.90739 309.07211,322.38346 309.16441,322.64498 C 309.28137,322.97637 309.62297,323.12046 310.29171,323.12046 C 311.04778,323.12046 311.25119,323.22816 311.25119,323.62848 C 311.25119,324.33593 309.16096,328.31609 308.48587,328.89414 C 307.82725,329.45809 307.83538,329.45783 306.66898,328.95143 L 306.66898,328.95144 z" fill="#f2f0f0" stroke-width="0.4" stroke-opacity="0.5" stroke="rgb(86, 111, 105)" pointer-events="all" style="cursor: pointer;"><title>Kulgam</title></path>
<path title="Shupiyan" d="M 298.93239,322.71776 C 298.7109,322.49627 298.4882,322.19214 298.4375,322.04192 C 298.3868,321.89169 297.61172,321.48559 296.7151,321.13946 C 295.24064,320.57027 295.07678,320.4276 295.00008,319.64623 C 294.92299,318.86084 295.01606,318.74199 296.02405,318.33867 C 296.63388,318.09467 297.37725,317.58429 297.676,317.2045 L 298.21917,316.51397 L 298.85259,317.10905 C 299.37015,317.59527 299.6135,317.65565 300.183,317.43912 C 300.56636,317.29337 300.95983,316.92259 301.0574,316.61515 C 301.18795,316.20386 301.46534,316.05619 302.10746,316.05619 C 303.19665,316.05619 305.00203,317.68543 305.00203,318.66835 C 305.00203,319.38682 304.13413,320.40343 303.52075,320.40343 C 303.02966,320.40343 301.19819,322.25745 301.19819,322.75458 C 301.19819,323.26062 299.44678,323.23214 298.93239,322.71775 L 298.93239,322.71776 z" fill="#f2f0f0" stroke-width="0.4" stroke-opacity="0.5" stroke="rgb(86, 111, 105)" pointer-events="all" style="cursor: pointer;"><title>Shupiyan</title></path>
<path title="Badgam" d="M 294.94903,317.53067 C 294.94903,317.06128 294.59947,316.51773 293.88531,315.87661 C 293.30026,315.3514 292.67409,314.56561 292.49383,314.13042 C 292.31357,313.69523 292.02808,313.33729 291.85941,313.335 C 291.69075,313.33271 291.37421,313.21791 291.156,313.07988 C 290.50075,312.66541 291.53086,311.7943 292.92311,311.58552 C 293.58403,311.48641 294.22836,311.22025 294.35494,310.99405 C 294.48152,310.76786 295.12548,310.51443 295.78595,310.43089 C 297.52171,310.21131 298.88633,308.85652 298.20212,308.03211 C 297.96049,307.74096 297.96686,307.19446 298.22896,305.7278 C 298.41793,304.67035 298.65399,303.75482 298.75352,303.69331 C 299.11721,303.46854 301.24776,304.73968 301.46499,305.31103 C 301.58886,305.63682 302.43494,306.29702 303.36141,306.79083 C 304.55936,307.42933 305.15932,307.9448 305.47499,308.60677 C 305.90236,309.50296 305.89565,309.55304 305.25513,310.24968 C 304.89178,310.64488 303.73861,311.62484 302.69256,312.42737 C 299.49097,314.88362 297.6287,316.46219 297.35443,316.95229 C 297.14591,317.32487 295.51479,318.22981 295.0517,318.22981 C 294.99524,318.22981 294.94903,317.91519 294.94903,317.53067 L 294.94903,317.53067 z" fill="#f2f0f0" stroke-width="0.4" id="Badgam" stroke-opacity="0.5" fill="#f2f0f0" stroke="rgb(86, 111, 105)" pointer-events="all" style="cursor: pointer;"><title>Badgam</title></path>
<path title="Srinagar" d="M 305.81392,308.30744 C 305.45497,307.72665 304.60164,307.01415 303.62073,306.4762 C 302.73763,305.99189 301.94966,305.39533 301.86968,305.15052 C 301.70192,304.63702 299.76496,303.28616 299.19644,303.28616 C 298.98568,303.28616 298.83023,303.07219 298.85098,302.81068 C 298.8793,302.45399 298.64932,302.31503 297.9305,302.25449 C 297.16148,302.18972 296.90025,302.01104 296.60746,301.34957 C 296.35309,300.77492 296.32884,300.43915 296.52738,300.24062 C 296.88326,299.88474 301.36736,300.0784 307.30552,300.70609 C 311.4008,301.13899 311.70561,301.21159 312.68512,301.98737 C 313.27511,302.45465 313.68831,303.0006 313.64206,303.25173 C 313.5973,303.49482 312.79955,304.06862 311.86929,304.52684 C 310.0932,305.4017 308.14646,307.00858 307.86908,307.8287 C 307.77906,308.09488 307.41201,308.52539 307.05343,308.78539 C 306.41012,309.25185 306.39367,309.24551 305.81392,308.30744 L 305.81392,308.30744 z" fill="#f2f0f0" stroke-width="0.4" stroke-opacity="0.5" id="Srinagar" stroke="rgb(86, 111, 105)" pointer-events="all" style="cursor: pointer;"><title>Srinagar</title></path>
<path title="Pulwama" d="M 299.00499,316.71185 C 298.69714,316.34091 298.79683,316.14999 299.71891,315.34464 C 300.30836,314.8298 301.4631,313.90013 302.28501,313.27871 C 303.74667,312.17358 307.29417,309.1234 307.74475,308.58436 C 307.86966,308.43492 308.36396,307.84461 308.8432,307.27255 C 309.60426,306.36408 312.10129,304.65443 312.67763,304.64722 C 312.9233,304.64415 312.95147,310.20389 312.71186,311.40194 C 312.50382,312.44218 311.57436,313.0545 308.80587,313.97519 C 307.55281,314.3919 306.33182,315.02769 305.63515,315.62623 C 304.39751,316.68955 303.9805,316.81416 303.74177,316.19204 C 303.56694,315.73642 300.92649,315.59081 300.92649,316.03678 C 300.92649,316.41052 300.12609,317.143 299.71769,317.143 C 299.52251,317.143 299.20179,316.94898 299.00499,316.71185 L 299.00499,316.71185 z" fill="#f2f0f0" stroke-width="0.4" stroke-opacity="0.5" id="Pulwama" stroke="rgb(86, 111, 105)" pointer-events="all" style="cursor: pointer;"><title>Pulwama</title></path>
</g>
</svg>