<svg width="500" height="600" id="kl_state" viewBox="0 0 432 488" preserveAspectRatio="xMidYMid meet" pointer-events="auto" class="">
	<g class="regions">
		<path d="M138.71399268007463,55.12975146910617L136.3214798932113,55.08901470105502L131.3403467140015,57.655318129555326L126.39843505588851,57.370184633719646L125.18256790190935,58.347773409203L125.37867550738974,61.32106832722866L121.41730187667963,62.9094151334225L119.33856125858529,62.62433369007408L116.20083957089537,65.96368244247446L113.06311788320454,66.08584641687548L115.49485219116377,71.46055087288096L114.59275720595451,72.68193566103014L114.9457508958194,74.35107849634892L114.59275720595451,76.22366131889703L114.5143141637609,76.30507523100755L113.37689005197535,75.61304972276912L112.20024441909027,76.95637833663523L108.08198470399566,64.66056790972266L99.02181333078988,44.37322961861446L96.15864229077397,41.15363258999059L91.80505344910125,32.10419886484533L89.9224204364873,26.191965450261023L89.72631283100691,26.84441084418927L88.00056590277654,22.236190371499788L89.68709130991192,20.72713928666326L88.35355959264143,20.48242062916688L88.11823046606605,21.787562062835377L87.33380004414357,19.829827070368538L89.25565457785342,17.341674265750953L86.90236331208689,20.03376419406277L82.62721751260688,9.549463407067378L84.54907204631763,10.977518873567078L83.05865424466538,9.100630796995347L82.35266686493378,9.345449484556639L80.47003385231983,4.775143948997311L80.62691993670433,3.958938534131903L82.0388946961657,4.489474795050455L87.41224308633537,1.5918064489756034L90.74607237950659,1.632620790874853L91.21673063265916,2.0407608894213354L92.23649018115884,1.6734350723968419L92.74636995540914,1.5101775840364553L93.21702820856262,1.3061043649477142L93.37391429294712,0.122449912996899L93.45235733513891,-2.2737367544323206e-13L94.39367384144498,0.979584073876822L94.86433209460029,0.4489803547335214L94.94277513679117,0.4489803547335214L95.57031947433006,3.020272503346405L92.70714843431324,6.203445462687569L95.76642707981046,7.346033605761022L94.66822448911807,8.692594848665294L99.92390831600005,8.2845528956816L100.39456656915445,10.977518873567078L98.7864842042136,11.834316903815989L99.53169310503927,14.037390585167032L101.9634274129985,14.32296143765916L103.64995282013206,13.262254928293032L103.64995282013206,9.79427813389293L105.80713648042183,10.610311626950761L106.4739023390548,12.487097671907577L108.74875056263045,13.180660444999376L110.82749118072479,12.323903917040525L110.5529405330526,13.262254928293032L111.65114312374408,13.507036942255809L109.21940881578485,16.444253250501333L111.72958616593678,19.014063691954107L116.04395348650996,18.15748650240016L115.69095979664598,19.87061461415078L116.86760542952834,21.134998957383914L115.92628892322227,22.521677370233647L116.78916238733655,22.154622122891396L118.04425106241342,24.76468827978715L119.88766255393148,24.76468827978715L123.69215010025619,19.462736497482638L124.24125139560238,19.421948358364716L127.731966773159,22.276974406684076L129.22238457481126,22.154622122891396L128.0849604630239,24.152975833324717L125.41789702848655,23.05185978936015L124.79035269094857,24.479224132065383L123.53526401587169,24.560785613638245L123.2999348892954,26.80363345112687L124.39813747998778,29.576361424300785L126.82987178794701,29.739454557957515L126.98675787233151,31.859579346157943L129.96759347563693,32.26727736492103L130.39903020769543,36.14011483146487L132.90920755784737,36.01782281877013L134.20351775402014,34.75410770729445L133.73285950086665,33.12342402048239L135.2624988236148,31.981889370808858L138.87087876445912,32.26727736492103L139.3415370176117,33.6126390167733L139.57686614419072,35.20252921492806L136.47836597759488,37.52605402600898L133.57597341648125,36.8330929152653L133.53675189538444,36.8330929152653L133.53675189538444,41.805732342367264L134.9487266548458,43.965705850968334L139.4592015809003,46.08476571557185L138.28255594801794,48.89635182846132L140.55740417159177,53.09284212741272L140.4005180872091,53.25580020503526Z" stroke-width="0.4" stroke-opacity="0.5" fill="#f2f0f0" stroke="rgb(86,111,105)" id="Kasaragod" pointer-events="all" style="cursor: pointer;"><title>Kasaragod</title></path>
		<path d="M194.33010959438707,93.15287825555197L194.36933111548478,93.0715111282475L201.429204912788,94.16994841431892L208.56752175228394,90.30489514819237L213.19566124162793,88.92148967002936L213.07799667833842,89.04355747647378L213.11721819943432,102.14256655559461L213.8624271002618,102.99664849173723L217.70613616768242,100.84106113231155L221.35373762962172,100.71904207270336L223.19714912114068,101.77652392234972L223.43247824771788,105.51808059744963L224.92289604937105,107.59200179189043L227.2369657940426,108.16128825544502L230.9237887770787,107.14469766173056L233.86540285929004,110.15370537692547L235.0028269710756,113.77224586383818L237.90521953218922,114.95122641645344L238.6112069119199,115.19514764009023L245.16120093497557,112.99978518074363L244.80820724510886,114.70730320913685L244.80820724510886,114.7479572147954L244.80820724510886,114.7479572147954L246.6123972155301,116.53667892990666L244.0629983442832,118.16269712704957L244.14144138647498,118.44724126823417L245.47497310374274,122.3899332446208L245.47497310374274,122.43057686753696L245.51419462483864,122.43057686753696L248.37736566485637,125.1129350024662L247.1222769897804,126.86040390294579L242.41569445824553,127.02295401928473L241.35671338864995,130.0299738812048L237.47378280013436,131.61463468700072L237.43456127903664,131.61463468700072L236.84623846259456,130.720733630636L233.27708004284614,133.36172902131307L232.61031418421226,131.33021447705255L230.8061242137901,130.1518738027853L226.0603201611575,133.64613022876551L225.94265559786982,133.72738722842496L226.37409232992832,134.49931790728533L227.74684556829106,138.19618853292377L226.02109864006343,138.11494344287803L226.02109864006343,138.11494344287803L226.02109864006343,138.11494344287803L224.96211757046603,140.18662576544853L221.70673131948752,141.28334194717536L221.43218067181533,141.36457861966755L221.39295915071943,141.68952315442812L220.88307937646914,144.08588268929657L216.29416140822195,146.48205509066656L214.2154207901267,144.08588268929657L210.3324902016093,142.58310285117318L210.72470541257007,140.1053859660135L209.3911736953023,138.84614147425327L209.3911736953023,138.84614147425327L204.99836333253643,140.87715535116376L198.21304018290448,136.1649964071214L195.89897043823294,132.30535839990625L191.38849551217936,130.27377323475866L190.0941853160066,125.68188944868643L190.44717900587148,122.06478228982496L192.05526137081324,120.4796211673065L185.1522736578936,119.1382658330424L180.8771278584154,114.78861116534267L178.95527332470465,114.7479572147954L179.73970374662804,113.69093515087388L178.01395681839858,112.87781588344524L179.15138093018595,109.62511787103449L176.8373111855135,108.28327679863219L179.38671005676315,106.57539178968932L179.54359614114765,106.53472666843322L179.50437462005084,106.53472666843322L178.71994419812927,104.05404926648475L180.72024177403,102.42726326248362L193.3103500458892,103.8913746717144L193.7417867779468,102.22390875029282L191.62382463875474,100.43432898191645L194.290888073293,98.68531715752056L193.5456791724655,96.00058641941837L193.2711285247924,95.02426026765738L194.05555894671397,93.68175911289882L194.64388176315788,93.19356173503775Z" stroke-width="0.4" stroke-opacity="0.5" fill="#f2f0f0" id="Wayanad" stroke="rgb(86,111,105)" pointer-events="all" style="cursor: pointer;"><title>Wayanad</title></path>
		<path d="M179.15138093018595,109.62511787103449L178.01395681839858,112.87781588344524L179.73970374662804,113.69093515087388L178.95527332470465,114.7479572147954L180.8771278584154,114.78861116534267L185.1522736578936,119.1382658330424L192.05526137081324,120.4796211673065L190.44717900587148,122.06478228982496L190.0941853160066,125.68188944868643L191.38849551217936,130.27377323475866L195.89897043823294,132.30535839990625L198.21304018290448,136.1649964071214L204.99836333253643,140.87715535116376L209.3911736953023,138.84614147425327L209.3911736953023,138.84614147425327L210.72470541257007,140.1053859660135L210.3324902016093,142.58310285117318L214.2154207901267,144.08588268929657L216.29416140822195,146.48205509066656L216.29416140822195,146.48205509066656L216.25493988712515,149.93383964411987L215.0782942542428,149.12168985393578L213.6270979736846,151.15202421699792L212.29356625641594,150.9896023869178L211.74446496107066,153.4258401244142L210.88159149695457,157.24222673895838L210.92081301805229,157.24222673895838L213.58787645258872,158.90667370742403L213.23488276272383,161.3016969475318L209.9794965117444,162.11352736935805L205.9004583177457,166.78114188746258L202.5274075034804,166.45646086362308L200.40944536428833,167.67399730987268L198.36992626728988,166.33470460968647L192.36903353958223,169.8654434817713L190.48640052696737,169.21614209310474L190.13340683710248,170.55531146049475L185.77981799543159,173.23347860749118L186.36814081187276,175.0187964848344L188.79987511983472,175.42453641111842L189.1528688096987,176.80401303727717L186.68191298064357,176.88515683926084L185.3483812633749,178.87311473582668L186.05436864310468,180.17130534029593L184.6031723625474,180.0090344336436L182.56365326554896,182.1184912320764L180.24958352087742,178.4268493826562L180.75946329512772,177.73715414415915L174.28791231426567,160.85518118563505L173.0328236391888,160.1245051989688L172.52294386494032,156.75505463163927L168.914563924096,149.24351368703083L165.30618398325169,145.18245936164794L162.09001925336815,145.22307256033628L160.40349384623642,143.5985027020522L151.7355376839896,120.03250936235918L153.50050613331587,119.09761776859227L155.22625306154623,122.14607035712766L158.52086083361974,120.88608068553913L157.18732911635288,118.08139830643904L165.502291588733,113.08109776964375L168.20857654436531,108.64923943623353L170.87563997890265,108.89321203517238L172.20917169617042,110.72294300406952L174.79779208851505,110.27568578112664L174.05258318768938,108.68990167452989L176.13132380578372,108.20195115858837Z" stroke-width="0.4" stroke-opacity="0.5" fill="#f2f0f0" stroke="rgb(86,111,105)" id="Kozhikode" pointer-events="all" style="cursor: pointer;"><title>Kozhikode</title></path>
		<path d="M216.29416140822195,146.48205509066656L220.88307937646914,144.08588268929657L221.39295915071943,141.68952315442812L221.43218067181533,141.36457861966755L221.70673131948752,141.28334194717536L224.96211757046603,140.18662576544853L226.02109864006343,138.11494344287803L226.02109864006343,138.11494344287803L226.02109864006343,138.11494344287803L227.86451013158057,140.87715535116376L227.43307339952298,144.6138689398167L231.3944470302331,142.98926682696742L232.49264962092457,144.85755183849687L235.82647891409488,146.11654934711737L237.55222584232433,144.65448289058918L243.4746755278402,148.02525367167482L245.67108070922404,147.4567158324569L245.35730854045505,149.44655233845788L250.14233411418263,153.1822249965876L256.2216698840821,155.09049213656863L255.20191033558422,156.9580439400802L259.4378346139656,156.47086736638903L259.6731637405419,159.47500101169203L258.30041050217824,161.3422889716835L259.2025054873893,162.80356658098026L257.20220791148677,164.10242245589484L256.6531066161406,166.05060483799957L249.35790369226015,169.41905022329934L248.92646696020165,173.11174869482693L248.2204795804737,173.55808940162547L244.18066290757088,172.66540164463595L243.94533378099277,175.05937071295034L245.16120093497557,176.88515683926084L244.61209963962938,182.56470444701063L242.18036533166742,183.33542154759516L242.4549159793405,184.71455271305126L237.74833344780382,185.85026274425923L236.17947260396068,187.39151850025496L236.37558020944107,189.50048420213238L232.45342809982776,189.94659364841868L231.35522550913538,191.56875714869102L231.35522550913538,191.60931017833377L231.82588376228978,193.10973603200637L234.2968395913449,192.21759943474808L236.02258651957618,192.78532560942767L235.6303713086154,194.89393445593555L236.68935237821006,195.58325717351227L240.61150448782246,195.82654399767284L239.5133018971328,198.29985510918505L236.06180804067208,197.6916815569855L235.2381560976528,202.43512965040713L236.57168781492146,203.89451132300496L236.49324477272967,205.7997156812071L232.57109266311636,204.13773517150707L229.66870010200182,204.6647138781086L227.98217469486826,207.82640533168706L225.90343407677392,207.8669378276163L224.06002258525677,204.74578676047327L223.00104151565938,206.52933861063002L221.66750979839162,206.6509408287177L221.11840850304634,205.23221977316962L219.62799070139317,205.7186454484604L219.15733244823969,204.70525034478123L217.15703487233714,207.38054452090887L214.999851212051,206.73200871966105L215.03907273314508,208.6775770735494L213.39176884710741,208.27225999134703L212.99955363614663,209.9745576102723L212.13668017203145,209.3666044564202L211.39147127120668,212.52783626701762L209.62650282188042,212.8520477421987L208.25374958351495,212.97362621033813L205.782793754458,211.91993101818753L205.74357223336392,212.0009857096627L203.97860378403675,214.79724861173645L206.4103380919969,217.10702348762743L205.2336924591118,220.67267021047292L205.4298000645931,221.32092777028583L205.9004583177457,222.9415154402409L206.0573444021311,223.34664981664605L206.17500896541878,223.34664981664605L206.2926735287092,223.508702163537L208.13608502022726,223.83280445167884L208.37141414680355,224.39997574029258L208.44985718899534,224.68355770344897L208.41063566789853,224.68355770344897L208.29297110461084,224.84560343803787L208.21452806241905,225.41275720242788L208.01842045693775,225.29122507863622L206.5672241763823,227.47873445186474L203.70405313636365,228.0863500885573L202.37052141909498,228.97749937687695L199.27202125250187,229.3825592547048L198.99747060482878,229.01800558904756L196.52651477577092,229.54458180986853L191.50616007546705,217.83639203569896L182.56365326554896,182.1184912320764L184.6031723625474,180.0090344336436L186.05436864310468,180.17130534029593L185.3483812633749,178.87311473582668L186.68191298064357,176.88515683926084L189.1528688096987,176.80401303727717L188.79987511983472,175.42453641111842L186.36814081187276,175.0187964848344L185.77981799543159,173.23347860749118L190.13340683710248,170.55531146049475L190.48640052696737,169.21614209310474L192.36903353958223,169.8654434817713L198.36992626728988,166.33470460968647L200.40944536428833,167.67399730987268L202.5274075034804,166.45646086362308L205.9004583177457,166.78114188746258L209.9794965117444,162.11352736935805L213.23488276272383,161.3016969475318L213.58787645258872,158.90667370742403L210.92081301805229,157.24222673895838L210.88159149695457,157.24222673895838L211.74446496107066,153.4258401244142L212.29356625641594,150.9896023869178L213.6270979736846,151.15202421699792L215.0782942542428,149.12168985393578L216.25493988712515,149.93383964411987L216.29416140822195,146.48205509066656Z" stroke-width="0.4" stroke-opacity="0.5" fill="#f2f0f0" stroke="rgb(86,111,105)" id="Malappuram" pointer-events="all" style="cursor: pointer;"><title>Malappuram</title></path>
		<path d="M196.52651477577092,229.54458180986853L198.99747060482878,229.01800558904756L199.27202125250187,229.3825592547048L202.37052141909498,228.97749937687695L203.70405313636365,228.0863500885573L206.5672241763823,227.47873445186474L208.01842045693775,225.29122507863622L208.21452806241905,225.41275720242788L208.29297110461084,224.84560343803787L208.41063566789853,224.68355770344897L208.44985718899534,224.68355770344897L208.48907871009123,224.76458067086946L211.35224975010897,224.88611474653203L214.136977747934,226.83059872102444L215.23518033862638,225.53428887592236L217.47080704110613,226.70907184761654L217.82380073097102,226.0204110679042L217.82380073097102,226.0609209254901L218.412123547414,227.316701717986L218.5297881107017,227.19517664314708L218.6866741950871,227.0736511187406L219.39266157481688,226.506526059095L221.51062371400712,222.53637604924893L222.72649086798629,222.41483325383228L222.9618199945644,220.59163711116412L221.35373762962172,219.1330069362075L227.0408581885622,220.18646859914134L227.86451013158057,222.98202910350665L231.78666224119388,221.92865755637217L238.7288714752085,223.3871629785549L239.9055171080936,221.19938045733352L241.67048555741894,220.6321536859448L243.2785679223589,223.02254271662923L251.0444290993937,222.41483325383228L251.9465240846048,224.7240692121918L249.67167586102914,228.0863500885573L247.98515045389559,228.45091407974928L249.08335304458706,231.85331662227372L246.22018200456932,233.47338488755486L245.55341614593635,235.94383603594542L246.73006177881962,237.28023272392875L245.04353637168606,239.38596057635164L243.82766921770508,239.30497351506233L247.82826436951018,243.55652745506995L247.0438339475886,245.6618579342055L248.0635934960883,247.0788325073661L251.554308873644,251.12700049081764L256.80999270052416,253.02947053413232L260.536037204658,256.7531427489587L263.7522019345415,256.67219773281795L267.4782464386735,262.7425353960723L270.772854210747,262.98532624042286L271.5180631115727,262.05461855287945L274.26356958830365,264.4824980203955L277.16596214941546,263.38997378192835L282.42164597629835,264.6848134622319L281.3626649067037,267.43618381748865L286.69679177577564,267.39572410224673L287.9518804508525,266.060526490631L289.75607042127467,267.39572410224673L289.91295650565917,267.072044647688L290.26595019552406,267.2743446677691L290.0698425900446,268.32628538111544L289.324633689218,270.5109815042174L289.5207412946984,270.7537168756951L291.48181734950504,272.9787106917215L294.1096592629474,271.5628223101671L294.1096592629474,273.9495716845149L296.0707353177522,275.68896208525143L294.42343143171456,274.9204051289746L292.6976845034851,274.15183092304983L290.57972236429305,273.1809756715811L290.0698425900446,273.54504962019223L287.28511459221954,272.8978043646921L286.85367786016104,273.0596168272655L286.65757025468156,272.9787106917215L282.93152575054955,274.7586014669016L280.6566775269721,273.7068590199626L275.16566457351473,275.2035596980313L271.5572846326704,273.46414463324436L267.2429173120954,274.1922826272969L262.53633478056054,271.03690595972967L262.53633478056054,271.0773613513113L261.39891066877226,272.00782212524246L262.18334109069565,272.9787106917215L260.1438219936954,273.1809756715811L245.31808701935915,272.00782212524246L242.7686881481104,276.2148069124348L237.19923215246126,278.8439101477811L236.29713716724928,281.1897093656223L234.17917502805722,281.59414134703L234.2968395913449,284.101513725916L233.15941547955845,283.7779920465748L232.84564331078946,284.38459270853696L230.25702291844573,284.8698655664243L228.84504815898345,282.079453457442L228.76660511679165,281.95812607065477L224.49145931731346,281.4323691243362L223.86391497977456,282.8478503236229L218.4513450685081,283.8993130316396L211.78368648216747,262.459277211713ZM296.8159442185788,276.3361545731775L297.0120518240601,276.53839972006494L296.9336087818674,276.4979507861135Z" stroke-width="0.4" stroke-opacity="0.5" fill="#f2f0f0" stroke="rgb(86,111,105)" id="Thrissur" pointer-events="all" style="cursor: pointer;"><title>Thrissur</title></path>
		<path d="M312.818324825801,275.52716205363845L313.0144324312805,274.9204051289746L313.2497615578577,274.31363745314684L312.26922353045484,273.0191637834271L317.6425719206254,270.1064187129275L317.7994580050108,270.34915696359894L321.8000531568159,267.8407783234836L326.85962937821387,265.0489782181221L332.66441450044294,265.57498708000185L331.84076255742366,269.49956552519325L335.6844716248452,275.2035596980313L335.2138133716908,278.8439101477811L337.920098327324,278.6416785845604L338.3123135382848,278.6416785845604L339.0575224391123,280.13816397989217L336.86111725772935,283.73755162345765L336.11590835690185,290.40958170884164L336.07668683580596,290.5308794573052L333.21351579578914,289.68178631791375L329.6835788971366,290.9352022258515L329.6443573760407,290.9756342438593L329.3305852072717,294.21004337917293L335.72369314594107,300.59712031978506L334.7431551185382,302.41601125645843L335.84135770922876,303.305212516158L336.66500965224805,307.62964354489054L333.880281654423,308.96323950806413L330.8602245300208,314.0546887180569L331.1347751776939,316.1961115785182L330.2326801924828,317.00416214309985L332.89974362702014,319.75139687672936L331.37010430426926,320.47857063214906L331.2524397409816,322.9023762172046L333.2919588379809,323.62948585373533L333.880281654423,325.5683727125336L331.3308827831752,326.65895049511596L332.38986385276985,328.7188403904331L331.0563321355021,331.3440193121837L331.4485473464629,332.91903489933566L329.2913636861758,333.8074749194277L329.6443573760407,336.75532408470326L326.85962937821387,340.75270921975334L326.5066356883508,341.76208038526556L325.4476546187543,345.6378059170672L325.6437622242356,345.7185458235465L329.840464981522,345.55706583222377L332.54674993715525,348.98836231838527L336.35123748347905,349.9167755386368L341.4500352259747,346.72777961122824L342.7443454221484,347.0910969584854L342.273687168994,349.149827175213L343.76410497064717,349.8764102349894L346.0781747153196,346.7681483835097L346.5880544895699,347.41404268386054L345.685959504357,347.5755144782379L345.9212886309342,349.4323889640825L344.90152908243545,350.56261436010357L346.5096114473781,352.0964360521996L346.5096114473781,352.78259872458045L348.62757358656745,355.72891665177553L350.2748774726042,354.84101001461397L350.5102065991814,355.20424713123793L351.529966147682,356.81859105743877L350.1179913882206,358.1907279276476L349.412004008489,362.1857780499082L347.76470012245227,362.9121045771982L346.9802697005307,362.3471851722006L346.3527253629927,362.3875368431693L345.7644025465506,363.07350854395634L343.9994340972262,366.01900793485754L343.80332649174306,366.4628301137983L343.80332649174306,366.4224828612954L343.80332649174306,366.4628301137983L343.80332649174306,366.4628301137983L343.76410497064717,367.7135732975463L343.6464404073595,371.46555167422355L343.45033280188,372.3934023125154L342.2344656478999,375.3785052758433L339.5674022133626,375.41884288136634L339.488959171169,378.202033305098L337.6455476796509,379.5330517557277L337.7239907218427,382.27560861624033L334.1156107809984,380.5010357116438L332.8605221059224,381.2673387663199L331.52699038865467,379.8153829710142L333.8018386122294,370.57802087027505L332.78207906373063,368.6818618231464L331.21321821988386,365.81726883394765L329.8796865026179,363.39631437485036L329.840464981522,363.3559637992812L327.1734015469847,362.75069990941427L326.8988508993116,360.81378917367215L325.565319182042,361.94366605102834L324.07490138038884,360.9348490563965L321.9961607622954,362.26648169874045L318.4662238636429,361.2576734787258L316.7404769354125,362.06472224780225L314.073413500877,363.5173658388097L314.6225147962232,366.7452596590805L308.7000651107064,367.6732273975018L308.6216220685128,367.6732273975018L308.6608435896105,367.63288145385707L309.4452740115321,364.12261724833616L304.2680332268428,361.70155247327205L304.7779130010931,361.4997899521061L305.7192295074001,361.1366146495666L305.2093497331498,358.06965907559186L303.48360280492125,356.8589487513108L302.2677356509412,358.95748812453155L297.3258239928282,355.56748067087267L297.0120518240601,353.7512771895873L295.40396945911834,353.5494712775943L295.01175424815665,349.149827175213L296.423729007618,348.5443302954832L296.1099568388481,343.78073881084356L297.2081594295396,343.3770160677702L300.0713304695564,345.476325569005L300.6596532859985,344.7496551707252L298.85546331557816,342.32731601536784L299.79677982188514,341.2372108726413L297.1689379084437,338.69350516957866L295.63929858569554,334.37283446915126L293.4036718832158,332.4344220400478L292.7369060245819,333.04018709787374L287.12822850783414,326.61855931639275L284.029728341241,324.5989423979636L281.4018864277996,323.5890912614666L280.1467977527236,325.0028748818895L274.10668350391916,321.40771554027015L273.51836068747707,321.1653322427187L269.90998074663275,321.084537444681L267.9489046918261,319.91299232539814L268.0665692551156,319.5494015363645L268.1450122973074,319.2666061376617L268.4195629449805,318.5394076680104L268.3803414238846,314.74157426860984L268.1057907762115,313.2061646777454L268.3411199027878,313.08494530024336L268.6941135926527,312.96372550822866L270.14530987321086,312.35762032874663L273.63602525076476,313.3273836407866L275.4009937000901,313.44860218941153L275.4794367422837,313.367789869704L274.02824046172736,312.03435999315843L278.22494321901286,308.47830135151867L276.969854543936,306.70013775521784L277.4012912759945,305.3664561849562L280.4997914425876,304.7198045094799L282.65697510287646,305.85143714504625L282.50008901849105,302.6989413723536L284.5003865943936,299.95038079992287L288.9324184782572,302.37559248233265L290.5012793221031,301.1225873912897L285.87313983275817,299.222784564769L283.04919031383724,296.59522771097113L288.69708935168,296.9994800848676L287.8734374086607,294.8973166117644L289.1677476048326,294.169615119863L293.1683427566377,295.8675616426799L293.4036718832158,293.52275658969484L299.79677982188514,284.46547199164274L306.3859953660358,286.40651799913985L310.1512613912637,284.34415299595526L310.2297044334573,284.34415299595526L315.48538826033655,284.6272299896591L317.0934706252792,283.7779920465748L314.4656287118378,280.7852726343208L311.17102093976246,281.23015277747686L309.2491664060526,279.69326971976284L313.759641332108,277.7922930176494L312.9752109101846,275.4462617513059Z" stroke-width="0.4" stroke-opacity="0.5" fill="#f2f0f0" stroke="rgb(86,111,105)" id="Idukki" pointer-events="all" style="cursor: pointer;"><title>Idukki</title></path>
		<path d="M223.86391497977456,282.8478503236229L224.49145931731346,281.4323691243362L228.76660511679165,281.95812607065477L228.84504815898345,282.079453457442L230.25702291844573,284.8698655664243L232.84564331078946,284.38459270853696L233.15941547955845,283.7779920465748L234.2968395913449,284.101513725916L234.17917502805722,281.59414134703L236.29713716724928,281.1897093656223L237.19923215246126,278.8439101477811L242.7686881481104,276.2148069124348L245.31808701935915,272.00782212524246L260.1438219936954,273.1809756715811L262.18334109069565,272.9787106917215L261.39891066877226,272.00782212524246L262.53633478056054,271.0773613513113L262.53633478056054,271.03690595972967L267.2429173120954,274.1922826272969L271.5572846326704,273.46414463324436L275.16566457351473,275.2035596980313L280.6566775269721,273.7068590199626L282.93152575054955,274.7586014669016L286.65757025468156,272.9787106917215L286.85367786016104,273.0596168272655L287.28511459221954,272.8978043646921L290.0698425900446,273.54504962019223L290.57972236429305,273.1809756715811L292.6976845034851,274.15183092304983L294.42343143171456,274.9204051289746L296.0707353177522,275.68896208525143L296.5021720498089,275.8507613528948L296.8159442185788,276.3361545731775L296.9336087818674,276.4979507861135L298.0318113725589,278.034976751831L298.2279189780402,278.3989991374028L298.26714049913426,278.3989991374028L301.1695330602488,277.9945295819157L305.680007986306,280.0168297523355L312.7791033047033,275.68896208525143L312.818324825801,275.52716205363845L312.9752109101846,275.4462617513059L313.759641332108,277.7922930176494L309.2491664060526,279.69326971976284L311.17102093976246,281.23015277747686L314.4656287118378,280.7852726343208L317.0934706252792,283.7779920465748L315.48538826033655,284.6272299896591L310.2297044334573,284.34415299595526L310.1512613912637,284.34415299595526L306.3859953660358,286.40651799913985L299.79677982188514,284.46547199164274L293.4036718832158,293.52275658969484L293.1683427566377,295.8675616426799L289.1677476048326,294.169615119863L287.8734374086607,294.8973166117644L288.69708935168,296.9994800848676L283.04919031383724,296.59522771097113L285.87313983275817,299.222784564769L290.5012793221031,301.1225873912897L288.9324184782572,302.37559248233265L284.5003865943936,299.95038079992287L282.50008901849105,302.6989413723536L282.65697510287646,305.85143714504625L280.4997914425876,304.7198045094799L277.4012912759945,305.3664561849562L276.969854543936,306.70013775521784L278.22494321901286,308.47830135151867L274.02824046172736,312.03435999315843L275.4794367422837,313.367789869704L275.4009937000901,313.44860218941153L273.63602525076476,313.3273836407866L270.14530987321086,312.35762032874663L268.6941135926527,312.96372550822866L268.3411199027878,313.08494530024336L268.1057907762115,313.2061646777454L268.3803414238846,314.74157426860984L268.4195629449805,318.5394076680104L268.1450122973074,319.2666061376617L268.0665692551156,319.5494015363645L267.7920186074425,319.34740505186846L267.3213603542881,319.42820378297756L266.26237928469345,319.7917958075268L266.77225905894284,321.40771554027015L262.85010694932953,320.76135642454415L262.8893284704254,323.06395741325355L260.849809373427,323.22553787959487L260.2614865569849,325.2856249121237L259.4378346139656,325.3664102254611L259.2809485295811,325.3664102254611L259.2417270084861,325.3664102254611L258.53573962875544,323.14474773763004L256.49622053175517,322.9023762172046L255.00580273010291,319.993789775232L251.554308873644,320.8825496498748L249.82856194541364,320.2361810269085L245.20042245606965,322.98316690644947L242.4549159793405,320.59976481748004L240.92527665659145,321.32692129049883L240.80761209330376,321.40771554027015L238.7288714752085,316.31732033372055L236.49324477272967,316.96376005085267L232.76720026859766,315.7516759401635L232.76720026859766,319.6705988778633L231.55133311461668,320.0341884315312L231.0022318192705,322.25604413358747L232.02199136777108,324.3161869498374L230.8453457348869,326.53777682260716L231.31600398803948,330.6574525313572L226.4133138510242,308.43788953779654L226.7270860197914,305.68977756730783L224.60912388060297,303.87105614438565L218.9612248427593,284.101513725916Z" stroke-width="0.4" stroke-opacity="0.5" fill="#f2f0f0" id="Ernakulam" stroke="rgb(86,111,105)" pointer-events="all" style="cursor: pointer;"><title>6.79% from Ernakulam</title></path>
		<path d="M230.8453457348869,326.53777682260716L232.02199136777108,324.3161869498374L231.0022318192705,322.25604413358747L231.55133311461668,320.0341884315312L232.76720026859766,319.6705988778633L232.76720026859766,315.7516759401635L236.49324477272967,316.96376005085267L238.7288714752085,316.31732033372055L240.80761209330376,321.40771554027015L241.67048555741894,323.22553787959487L239.98396015028538,326.13386162636925L241.67048555741894,330.6574525313572L241.12138426207275,336.4726640206957L243.98455530209048,337.7244275717069L242.84713119030403,352.66151212406544L245.20042245606965,350.96625785508604L246.49473265224242,352.41933772757716L250.73065693062472,351.12771401115526L250.65221388843293,353.22657951810754L252.14263169008518,353.7512771895873L252.26029625337287,356.98002156841517L255.3195748988719,358.15037168765764L253.82915709721874,363.8805178663837L253.82915709721874,363.8805178663837L255.5549040254491,364.68750968051506L255.0450242511988,368.11702990035553L255.00580273010291,368.2380660312921L255.0450242511988,368.2380660312921L255.8686761942172,368.5204821450999L255.3195748988719,371.10247343256276L255.3195748988719,371.10247343256276L255.3195748988719,371.10247343256276L255.3195748988719,371.1428156331775L256.77077117942827,372.31272055979787L256.7315496583342,372.3530614578515L256.1040053207944,373.6842867623326L252.53484690104597,374.57174407943694L251.5150873525481,375.98356481793303L251.6719734369317,376.02390177484756L252.4956253799519,376.346595874188L254.33903687146903,376.99197577717916L259.6731637405419,376.83063183810486L260.6929232890416,374.77343600138977L259.6731637405419,373.92632265516124L261.43813218986816,373.40190958244705L269.4001009723843,375.05580287432826L268.7333351137486,376.5482782818425L270.69441116855705,380.29937443202857L272.9692593921309,380.33970677401317L273.63602525076476,381.67064992903386L270.9689618162274,383.2838516250024L271.2435124639005,385.5018919025157L269.2432148879989,386.6310262897525L270.02764530992044,389.45371570940415L274.57734175707174,392.76002915363654L272.930037871035,393.60672198461555L272.8908163499391,395.2194184730597L269.1647718458071,395.7435302310025L268.9686642403258,395.7435302310025L268.890221198134,396.2273193483485L268.6156705504609,396.7111023714342L268.6156705504609,396.5498420406875L264.1444171455023,397.5980220959473L263.3599867235789,399.17023862426777L260.6144802468507,399.9361670131641L258.8495117975244,397.114250237581L255.4764609832564,397.03362100266247L254.5743659980444,397.2351937728513L255.00580273010291,398.32366847428693L252.0249671267975,398.48492136664925L252.0249671267975,398.56554755950265L251.9465240846048,398.56554755950265L252.92706211200857,402.39509746420754L238.17977017986232,369.9728741694039L235.1989345765569,359.68387787211975Z" stroke-width="0.4" stroke-opacity="0.5" fill="#f2f0f0" stroke="rgb(86,111,105)" id="Alappuzha" pointer-events="all" style="cursor: pointer;"><title>Alappuzha</title></path>
		<path d="M268.0665692551156,319.5494015363645L267.9489046918261,319.91299232539814L269.90998074663275,321.084537444681L273.51836068747707,321.1653322427187L274.10668350391916,321.40771554027015L280.1467977527236,325.0028748818895L281.4018864277996,323.5890912614666L284.029728341241,324.5989423979636L287.12822850783414,326.61855931639275L292.7369060245819,333.04018709787374L293.4036718832158,332.4344220400478L295.63929858569554,334.37283446915126L297.1689379084437,338.69350516957866L299.79677982188514,341.2372108726413L298.85546331557816,342.32731601536784L300.6596532859985,344.7496551707252L300.0713304695564,345.476325569005L297.2081594295396,343.3770160677702L296.1099568388481,343.78073881084356L296.423729007618,348.5443302954832L295.01175424815665,349.149827175213L295.40396945911834,353.5494712775943L297.0120518240601,353.7512771895873L297.3258239928282,355.56748067087267L302.2677356509412,358.95748812453155L303.48360280492125,356.8589487513108L305.2093497331498,358.06965907559186L305.7192295074001,361.1366146495666L304.7779130010931,361.4997899521061L303.64048888930665,361.6612000567833L301.6794128344991,363.4366649066259L301.2087545813447,363.7594675845286L301.2087545813447,363.8401678162047L301.4833052290178,365.41378735561557L302.58150781971017,364.80855694344075L305.9153371128814,366.05935562400725L299.56145069530794,366.9873404243957L299.52222917421204,366.94699373926517L292.0309186448512,362.46824005359815L291.48181734950504,363.7594675845286L289.75607042127467,363.03315761798194L288.7755323938718,363.7191174030253L286.30457656481485,362.3068334573909L282.57853206068285,364.68750968051506L280.8135636113575,363.03315761798194L280.5390129636844,360.652375381983L276.5384178118793,362.8314023309432L275.6755443477632,360.36989955570186L273.08692395541857,359.5224591594397L269.51776553567197,360.1277757057086L268.7333351137486,361.9033138977229L267.8704616496343,360.9348490563965L267.7527970863466,361.98401816047544L264.1051956244046,363.39631437485036L264.26208170879,367.2697659987348L262.73244238604,366.2610934147011L260.6537017679457,367.43115108156314L260.0261574304077,365.97866020203253L256.0255622786026,367.8346107360924L255.8686761942172,368.5204821450999L255.0450242511988,368.2380660312921L255.00580273010291,368.2380660312921L255.0450242511988,368.11702990035553L255.5549040254491,364.68750968051506L253.82915709721874,363.8805178663837L253.82915709721874,363.8805178663837L255.3195748988719,358.15037168765764L252.26029625337287,356.98002156841517L252.14263169008518,353.7512771895873L250.65221388843293,353.22657951810754L250.73065693062472,351.12771401115526L246.49473265224242,352.41933772757716L245.20042245606965,350.96625785508604L242.84713119030403,352.66151212406544L243.98455530209048,337.7244275717069L241.12138426207275,336.4726640206957L241.67048555741894,330.6574525313572L239.98396015028538,326.13386162636925L241.67048555741894,323.22553787959487L240.80761209330376,321.40771554027015L240.92527665659145,321.32692129049883L242.4549159793405,320.59976481748004L245.20042245606965,322.98316690644947L249.82856194541364,320.2361810269085L251.554308873644,320.8825496498748L255.00580273010291,319.993789775232L256.49622053175517,322.9023762172046L258.53573962875544,323.14474773763004L259.2417270084861,325.3664102254611L259.2809485295811,325.3664102254611L259.4378346139656,325.3664102254611L260.2614865569849,325.2856249121237L260.849809373427,323.22553787959487L262.8893284704254,323.06395741325355L262.85010694932953,320.76135642454415L266.77225905894284,321.40771554027015L266.26237928469345,319.7917958075268L267.3213603542881,319.42820378297756L267.7920186074425,319.34740505186846Z" stroke-width="0.4" stroke-opacity="0.5" fill="#f2f0f0" stroke="rgb(86,111,105)" id="Kottayam" pointer-events="all" style="cursor: pointer;"><title>Kottayam</title></path>
		<path d="M304.7779130010931,361.4997899521061L304.2680332268428,361.70155247327205L309.4452740115321,364.12261724833616L308.6608435896105,367.63288145385707L308.6216220685128,367.6732273975018L308.7000651107064,367.6732273975018L314.6225147962232,366.7452596590805L314.073413500877,363.5173658388097L316.7404769354125,362.06472224780225L318.4662238636429,361.2576734787258L321.9961607622954,362.26648169874045L324.07490138038884,360.9348490563965L325.565319182042,361.94366605102834L326.8988508993116,360.81378917367215L327.1734015469847,362.75069990941427L329.840464981522,363.3559637992812L329.8796865026179,363.39631437485036L331.21321821988386,365.81726883394765L332.78207906373063,368.6818618231464L333.8018386122294,370.57802087027505L331.52699038865467,379.8153829710142L332.8605221059224,381.2673387663199L334.1156107809984,380.5010357116438L337.7239907218427,382.27560861624033L337.6455476796509,379.5330517557277L338.3515350593825,382.19494801637427L336.93956029992114,386.4293976084866L337.6847692007468,388.3649888534537L334.507825991961,391.3085121390584L335.76291466703697,391.6713965581879L336.15512987799957,395.2194184730597L333.9195031755189,398.40429500491643L330.1934586713851,400.9842548869101L329.3698067283676,403.9671185251216L329.3305852072717,404.0880405763187L319.01532515898907,401.6292178895094L313.7204198110103,399.17023862426777L313.3674261211472,398.08178786888334L309.6021600959175,397.7592780295969L300.1889950328459,393.00194330176635L299.75755830078924,396.75141734836654L303.36593824163356,397.7189641095687L302.0716280454617,399.1299261820119L296.737501176387,397.67865014728534L295.32552641692655,398.56554755950265L294.34498838952277,397.5980220959473L290.77582996977526,401.8307666182927L284.5396081154895,399.4524245388534L282.61775358177874,401.5485981034517L283.20607639822174,403.6849656031153L283.20607639822174,403.72527328934905L282.89230422945184,403.7655809335995L281.95098772314486,403.9268110907749L281.87254468095216,403.9268110907749L281.4018864277996,402.23386092078556L280.5782344847803,403.1609618605098L274.69500632036033,402.0323142953099L272.8908163499391,403.4028106237067L272.7731517866496,399.3718002027399L271.8710568014394,399.21055102433434L270.57674660526664,399.4927366436441L268.8117781559413,398.64617358348926L268.576449029365,398.5252344841855L268.5372275082682,398.5252344841855L268.576449029365,398.16241490628545L268.6156705504609,396.7111023714342L268.890221198134,396.2273193483485L268.9686642403258,395.7435302310025L269.1647718458071,395.7435302310025L272.8908163499391,395.2194184730597L272.930037871035,393.60672198461555L274.57734175707174,392.76002915363654L270.02764530992044,389.45371570940415L269.2432148879989,386.6310262897525L271.2435124639005,385.5018919025157L270.9689618162274,383.2838516250024L273.63602525076476,381.67064992903386L272.9692593921309,380.33970677401317L270.69441116855705,380.29937443202857L268.7333351137486,376.5482782818425L269.4001009723843,375.05580287432826L261.43813218986816,373.40190958244705L259.6731637405419,373.92632265516124L260.6929232890416,374.77343600138977L259.6731637405419,376.83063183810486L254.33903687146903,376.99197577717916L252.4956253799519,376.346595874188L251.6719734369317,376.02390177484756L251.5150873525481,375.98356481793303L252.53484690104597,374.57174407943694L256.1040053207944,373.6842867623326L256.7315496583342,372.3530614578515L256.77077117942827,372.31272055979787L255.3195748988719,371.1428156331775L255.3195748988719,371.10247343256276L255.3195748988719,371.10247343256276L255.3195748988719,371.10247343256276L255.8686761942172,368.5204821450999L256.0255622786026,367.8346107360924L260.0261574304077,365.97866020203253L260.6537017679457,367.43115108156314L262.73244238604,366.2610934147011L264.26208170879,367.2697659987348L264.1051956244046,363.39631437485036L267.7527970863466,361.98401816047544L267.8704616496343,360.9348490563965L268.7333351137486,361.9033138977229L269.51776553567197,360.1277757057086L273.08692395541857,359.5224591594397L275.6755443477632,360.36989955570186L276.5384178118793,362.8314023309432L280.5390129636844,360.652375381983L280.8135636113575,363.03315761798194L282.57853206068285,364.68750968051506L286.30457656481485,362.3068334573909L288.7755323938718,363.7191174030253L289.75607042127467,363.03315761798194L291.48181734950504,363.7594675845286L292.0309186448512,362.46824005359815L299.52222917421204,366.94699373926517L299.56145069530794,366.9873404243957L305.9153371128814,366.05935562400725L302.58150781971017,364.80855694344075L301.4833052290178,365.41378735561557L301.2087545813447,363.8401678162047L301.2087545813447,363.7594675845286L301.6794128344991,363.4366649066259L303.64048888930665,361.6612000567833Z" stroke-width="0.4" stroke-opacity="0.5" fill="#f2f0f0" stroke="rgb(86,111,105)" id="Pathanamthitta" pointer-events="all" style="cursor: pointer;"><title>Pathanamthitta</title></path>
		<path d="M252.0249671267975,398.56554755950265L252.0249671267975,398.48492136664925L255.00580273010291,398.32366847428693L254.5743659980444,397.2351937728513L255.4764609832564,397.03362100266247L258.8495117975244,397.114250237581L260.6144802468507,399.9361670131641L263.3599867235789,399.17023862426777L264.1444171455023,397.5980220959473L268.6156705504609,396.5498420406875L268.6156705504609,396.7111023714342L268.576449029365,398.16241490628545L268.5372275082682,398.5252344841855L268.576449029365,398.5252344841855L268.8117781559413,398.64617358348926L270.57674660526664,399.4927366436441L271.8710568014394,399.21055102433434L272.7731517866496,399.3718002027399L272.8908163499391,403.4028106237067L274.69500632036033,402.0323142953099L280.5782344847803,403.1609618605098L281.4018864277996,402.23386092078556L281.87254468095216,403.9268110907749L281.95098772314486,403.9268110907749L282.89230422945184,403.7655809335995L283.20607639822174,403.72527328934905L283.20607639822174,403.6849656031153L282.61775358177874,401.5485981034517L284.5396081154895,399.4524245388534L290.77582996977526,401.8307666182927L294.34498838952277,397.5980220959473L295.32552641692655,398.56554755950265L296.737501176387,397.67865014728534L302.0716280454617,399.1299261820119L303.36593824163356,397.7189641095687L299.75755830078924,396.75141734836654L300.1889950328459,393.00194330176635L309.6021600959175,397.7592780295969L313.3674261211472,398.08178786888334L313.7204198110103,399.17023862426777L319.01532515898907,401.6292178895094L329.3305852072717,404.0880405763187L328.62459782754013,406.74823022371413L325.40843309766024,406.9094479743792L323.25124943736955,409.44853931109947L328.50693326425244,416.66188062384265L328.15393957438755,419.72412648956924L331.1739966987898,419.6032528876881L331.1739966987898,422.1012319026803L335.0177057662113,425.16305486860654L335.72369314594107,428.7885914330874L332.31142081057624,432.57490955913636L332.03687016290314,435.07207141418223L330.3111232346746,435.63592506428233L330.7425599667313,436.763608519105L330.3503447557705,436.72333465714405L328.85992695411915,436.48169063453304L327.95783196890625,436.32059380900125L319.01532515898907,430.1178718312881L312.9752109101846,428.3857704077733L311.01413485537887,428.7885914330874L309.7982677013988,431.56794522112205L308.46473598413104,432.05129127959947L310.2297044334573,436.0386728038019L307.9548562098789,436.4011423028237L305.6015649441124,434.46793367558735L304.6994699589013,436.0386728038019L300.6204317649026,437.6093502649072L298.5024696257133,436.0386728038019L299.16923548434715,435.03179584911857L296.9336087818674,432.3735187273395L295.24708337473294,432.93741049253777L292.109361687043,431.89017657847216L288.0303234930461,426.9758646105L286.42224112810254,428.1440758302225L284.4611650732977,426.6535933880257L283.6767346513752,428.6677455546783L285.6770322272778,430.35955440002226L284.4611650732977,431.2859906444643L285.4809246217965,431.9304553148413L283.20607639822174,432.1721268778638L282.06865228643346,434.306828735555L277.95039257133976,433.01796580796656L276.6168608540702,434.3471050314895L274.81267088364984,434.306828735555L273.79291133515017,435.7970246467303L273.7144682929584,435.91784890773647L273.6752467718625,435.9581235803056L266.10549320030896,426.8952970506042L263.0462145548099,424.67962491239336L261.35968914767636,424.71991096781187L259.4378346139656,422.26238640072893L258.14352441779465,418.8780034733975L259.0456194030048,418.6362506948967L258.14352441779465,418.6362506948967Z" stroke-width="0.4" stroke-opacity="0.5" fill="#f2f0f0" stroke="rgb(86,111,105)" id="Kollam" pointer-events="all" style="cursor: pointer;"><title>Kollam</title></path>
		<path d="M273.7144682929584,435.91784890773647L273.79291133515017,435.7970246467303L274.81267088364984,434.306828735555L276.6168608540702,434.3471050314895L277.95039257133976,433.01796580796656L282.06865228643346,434.306828735555L283.20607639822174,432.1721268778638L285.4809246217965,431.9304553148413L284.4611650732977,431.2859906444643L285.6770322272778,430.35955440002226L283.6767346513752,428.6677455546783L284.4611650732977,426.6535933880257L286.42224112810254,428.1440758302225L288.0303234930461,426.9758646105L292.109361687043,431.89017657847216L295.24708337473294,432.93741049253777L296.9336087818674,432.3735187273395L299.16923548434715,435.03179584911857L298.5024696257133,436.0386728038019L300.6204317649026,437.6093502649072L304.6994699589013,436.0386728038019L305.6015649441124,434.46793367558735L307.9548562098789,436.4011423028237L310.2297044334573,436.0386728038019L308.46473598413104,432.05129127959947L309.7982677013988,431.56794522112205L311.01413485537887,428.7885914330874L312.9752109101846,428.3857704077733L319.01532515898907,430.1178718312881L327.95783196890625,436.32059380900125L328.85992695411915,436.48169063453304L328.78148391192553,436.6427868116788L328.70304086973374,436.6427868116788L327.99705349000396,439.58267828790997L325.9967559141005,438.7772500023983L325.7222052664274,439.58267828790997L329.6443573760407,445.78393606935686L329.01681303850273,447.4347596751941L332.58597145824933,451.9842426074184L334.0763892599025,452.58811797434396L333.8410601333271,454.480202819812L336.11590835690185,457.0967713521276L336.312015962385,457.1772784969726L336.35123748347905,457.2175320099906L337.8416552851304,460.5986859045205L335.48836401936387,464.94547489222043L335.48836401936387,464.9857207953919L333.05662971140373,466.07234534818747L330.3503447557705,464.34178163275794L329.05603455959863,465.5491593187412L331.80154103632776,471.38432126435066L329.5659143338489,471.7062373332544L325.48687613985203,478.18426946622856L323.64346464833216,478.1038031812699L324.74166723902454,479.27054917983753L323.83957225381346,481.28210395923804L326.1144204773882,480.8798007169298L325.3299900554666,482.60967732999484L326.7419648149262,484.70152612540494L326.7419648149262,484.7417529689692L326.0359774351964,485.18424571556864L325.565319182042,483.69584255801703L321.3293949036615,484.54061836732683L318.0347871315862,488L306.1506662394586,479.02915612231254L303.32671672053766,474.080291402542L275.5971013055714,439.945115745173Z" stroke-width="0.4" stroke-opacity="0.5" fill="#f2f0f0" stroke="rgb(86,111,105)" id="Thiruvananthapuram" pointer-events="all" style="cursor: pointer;"><title>Thiruvananthapuram</title></path>
		<path d="M112.20024441909027,76.95637833663523L113.37689005197535,75.61304972276912L114.5143141637609,76.30507523100755L114.59275720595451,76.22366131889703L114.9457508958194,74.35107849634892L114.59275720595451,72.68193566103014L115.49485219116377,71.46055087288096L113.06311788320454,66.08584641687548L116.20083957089537,65.96368244247446L119.33856125858529,62.62433369007408L121.41730187667963,62.9094151334225L125.37867550738974,61.32106832722866L125.18256790190935,58.347773409203L126.39843505588851,57.370184633719646L131.3403467140015,57.655318129555326L136.3214798932113,55.08901470105502L138.71399268007463,55.12975146910617L138.67477115897873,55.170488179282984L146.20530320943544,55.12975146910617L152.0493098527586,63.235219046382554L151.30410095193292,64.86418343065839L153.42206309112316,65.84151795171601L156.0499050045646,69.62837728892578L157.65798736950546,70.72769532850543L160.56037993061818,69.75052579638191L162.32534837994626,70.56483602658727L163.69810161830992,74.88029890024973L165.0316333355786,75.9794182170017L169.4636652194422,74.92100776332609L169.34600065615268,76.67143501953888L171.03252606328624,77.40414077725063L170.71875389451725,79.03230987442839L174.83701360961186,77.40414077725063L180.09269743649293,78.05541932289952L179.15138093018595,80.66038814629678L179.15138093018595,80.70108894044006L179.19060245128185,80.78249035866338L179.89658983101162,82.69535844724055L182.21065957568317,85.29991400306358L182.91664695541385,88.3925233188495L184.7992799680287,88.67735253679984L187.23101427598885,91.93234777093858L194.33010959438707,93.15287825555197L194.64388176315788,93.19356173503775L194.05555894671397,93.68175911289882L193.2711285247924,95.02426026765738L193.5456791724655,96.00058641941837L194.290888073293,98.68531715752056L191.62382463875474,100.43432898191645L193.7417867779468,102.22390875029282L193.3103500458892,103.8913746717144L180.72024177403,102.42726326248362L178.71994419812927,104.05404926648475L179.50437462005084,106.53472666843322L179.54359614114765,106.53472666843322L179.38671005676315,106.57539178968932L176.8373111855135,108.28327679863219L179.15138093018595,109.62511787103449L176.13132380578372,108.20195115858837L174.05258318768938,108.68990167452989L174.79779208851505,110.27568578112664L172.20917169617042,110.72294300406952L170.87563997890265,108.89321203517238L168.20857654436531,108.64923943623353L165.502291588733,113.08109776964375L157.18732911635288,118.08139830643904L158.52086083361974,120.88608068553913L155.22625306154623,122.14607035712766L153.50050613331587,119.09761776859227L151.7747592050864,118.77243127603629L151.30410095193292,118.6504854351058L150.44122748781774,118.48789021148286L145.30320822422527,112.10533212872883L142.91069543736012,111.5767791244964L143.7343473803803,110.68228353305653L142.24392957872624,110.35700577399939L141.22417003022656,107.87664638168462L135.6939355556733,102.3459216246647L132.51699234688567,101.93921009415885L128.59484023727236,97.05823669830374L126.90831483013972,92.01371804204041L125.65322615506284,91.68823560955752L121.37808035558464,85.78824240226754L118.828681484335,84.16044943995803L116.00473196541498,86.03240355324078Z" stroke-width="0.4" stroke-opacity="0.5" fill="#f2f0f0" stroke="rgb(86,111,105)" id="Kannur" pointer-events="all" style="cursor: pointer;"><title>Kannur</title></path>
		<path d="M208.44985718899534,224.68355770344897L208.37141414680355,224.39997574029258L208.13608502022726,223.83280445167884L206.2926735287092,223.508702163537L206.17500896541878,223.34664981664605L206.0573444021311,223.34664981664605L205.9004583177457,222.9415154402409L205.4298000645931,221.32092777028583L205.2336924591118,220.67267021047292L206.4103380919969,217.10702348762743L203.97860378403675,214.79724861173645L205.74357223336392,212.0009857096627L205.782793754458,211.91993101818753L208.25374958351495,212.97362621033813L209.62650282188042,212.8520477421987L211.39147127120668,212.52783626701762L212.13668017203145,209.3666044564202L212.99955363614663,209.9745576102723L213.39176884710741,208.27225999134703L215.03907273314508,208.6775770735494L214.999851212051,206.73200871966105L217.15703487233714,207.38054452090887L219.15733244823969,204.70525034478123L219.62799070139317,205.7186454484604L221.11840850304634,205.23221977316962L221.66750979839162,206.6509408287177L223.00104151565938,206.52933861063002L224.06002258525677,204.74578676047327L225.90343407677392,207.8669378276163L227.98217469486826,207.82640533168706L229.66870010200182,204.6647138781086L232.57109266311636,204.13773517150707L236.49324477272967,205.7997156812071L236.57168781492146,203.89451132300496L235.2381560976528,202.43512965040713L236.06180804067208,197.6916815569855L239.5133018971328,198.29985510918505L240.61150448782246,195.82654399767284L236.68935237821006,195.58325717351227L235.6303713086154,194.89393445593555L236.02258651957618,192.78532560942767L234.2968395913449,192.21759943474808L231.82588376228978,193.10973603200637L231.35522550913538,191.60931017833377L231.35522550913538,191.56875714869102L232.45342809982776,189.94659364841868L236.37558020944107,189.50048420213238L236.17947260396068,187.39151850025496L237.74833344780382,185.85026274425923L242.4549159793405,184.71455271305126L242.18036533166742,183.33542154759516L244.61209963962938,182.56470444701063L245.16120093497557,176.88515683926084L243.94533378099277,175.05937071295034L244.18066290757088,172.66540164463595L248.2204795804737,173.55808940162547L249.20101760787475,173.7609694447608L249.90700498760634,175.05937071295034L251.5150873525481,174.2478762044484L251.3974227892586,172.74655612569632L253.94682166050825,172.50309205316012L254.26059382927724,172.46251452416436L257.94741681231335,175.26224106853283L268.0665692551156,174.32902659775982L274.69500632036033,169.90602437160783L275.36177217899603,169.45963169154902L275.7932089110536,169.6625382439472L276.3815317274939,169.54079447027198L276.3815317274939,169.41905022329934L279.4408103729929,172.01615824280407L278.69560147216544,174.65362607639827L275.126443052417,177.3314440145773L276.2638671642062,180.04960223846388L276.9306330228401,179.0353914811251L279.0093736409344,181.14491327842939L280.7743420902598,180.73924694962943L280.2644623160113,184.30893213009426L281.4803294699914,186.8642552120557L280.3036838371072,187.47263515255486L280.617456005878,189.2571491416868L283.9905068201433,190.83879379332075L286.38301960700846,189.5815954755401L285.4417031007015,191.3659912267592L282.73541814506825,192.25815163937796L277.4797343181863,191.04156306897744L277.32284823380087,191.04156306897744L275.63632282666913,192.5420156285645L271.8318352803435,200.2053908995956L270.92974029513243,202.0297341072942L271.400398548285,202.47566892373789L272.3809365756888,203.48913416074697L273.1653669976122,204.29988338373232L279.9899116683382,207.2589450500966L284.3435005100082,207.21841179143803L289.324633689218,209.2450124551865L292.0309186448512,212.81152148494198L291.63870343389044,215.0403905324174L291.63870343389044,215.1619608108981L297.0512733451551,216.25607287041157L297.1689379084437,216.7423330892086L297.678817682694,219.05197001514216L295.835406191175,224.1569035330872L295.71774162788734,224.4404875995392L295.71774162788734,224.4404875995392L295.67852010679053,224.5215111677992L296.1099568388481,225.89888119510806L295.835406191175,226.22295985581422L293.6390010097912,229.18002993905998L293.3252288410231,229.62559278837398L293.87433013636837,230.03064469072228L295.05097576925345,234.56688603654743L287.8342158875648,235.01237613282478L287.40277915550723,236.22731862840283L288.1479880563338,238.49509203164826L290.42283627990946,239.2239862561721L290.0698425900446,244.81164431793354L290.89349453306386,245.6618579342055L288.0303234930461,257.9672946678461L289.8345134634674,259.6670339546647L288.7755323938718,261.04295074143147L291.48181734950504,263.99693603740593L289.91295650565917,267.072044647688L289.75607042127467,267.39572410224673L287.9518804508525,266.060526490631L286.69679177577564,267.39572410224673L281.3626649067037,267.43618381748865L282.42164597629835,264.6848134622319L277.16596214941546,263.38997378192835L274.26356958830365,264.4824980203955L271.5180631115727,262.05461855287945L270.772854210747,262.98532624042286L267.4782464386735,262.7425353960723L263.7522019345415,256.67219773281795L260.536037204658,256.7531427489587L256.80999270052416,253.02947053413232L251.554308873644,251.12700049081764L248.0635934960883,247.0788325073661L247.0438339475886,245.6618579342055L247.82826436951018,243.55652745506995L243.82766921770508,239.30497351506233L245.04353637168606,239.38596057635164L246.73006177881962,237.28023272392875L245.55341614593635,235.94383603594542L246.22018200456932,233.47338488755486L249.08335304458706,231.85331662227372L247.98515045389559,228.45091407974928L249.67167586102914,228.0863500885573L251.9465240846048,224.7240692121918L251.0444290993937,222.41483325383228L243.2785679223589,223.02254271662923L241.67048555741894,220.6321536859448L239.9055171080936,221.19938045733352L238.7288714752085,223.3871629785549L231.78666224119388,221.92865755637217L227.86451013158057,222.98202910350665L227.0408581885622,220.18646859914134L221.35373762962172,219.1330069362075L222.9618199945644,220.59163711116412L222.72649086798629,222.41483325383228L221.51062371400712,222.53637604924893L219.39266157481688,226.506526059095L218.6866741950871,227.0736511187406L218.5297881107017,227.19517664314708L218.412123547414,227.316701717986L217.82380073097102,226.0609209254901L217.82380073097102,226.0204110679042L217.47080704110613,226.70907184761654L215.23518033862638,225.53428887592236L214.136977747934,226.83059872102444L211.35224975010897,224.88611474653203L208.48907871009123,224.76458067086946Z" stroke-width="0.4" stroke-opacity="0.5" fill="#f2f0f0" stroke="rgb(86,111,105)" id="Palakkad" pointer-events="all" style="cursor: pointer;"><title>Palakkad</title></path>
	</g>
	<g class="state-borders" fill="none" stroke-width="1.5"></g>
	<g class="district-borders" fill="none" stroke-width="1.5">
		<path d="M138.71399268007463,55.12975146910617L136.3214798932113,55.08901470105502L131.3403467140015,57.655318129555326L126.39843505588851,57.370184633719646L125.18256790190935,58.347773409203L125.37867550738974,61.32106832722866L121.41730187667963,62.9094151334225L119.33856125858529,62.62433369007408L116.20083957089537,65.96368244247446L113.06311788320454,66.08584641687548L115.49485219116377,71.46055087288096L114.59275720595451,72.68193566103014L114.9457508958194,74.35107849634892L114.59275720595451,76.22366131889703L114.5143141637609,76.30507523100755L113.37689005197535,75.61304972276912L112.20024441909027,76.95637833663523L108.08198470399566,64.66056790972266L99.02181333078988,44.37322961861446L96.15864229077397,41.15363258999059L91.80505344910125,32.10419886484533L89.9224204364873,26.191965450261023L89.72631283100691,26.84441084418927L88.00056590277654,22.236190371499788L89.68709130991192,20.72713928666326L88.35355959264143,20.48242062916688L88.11823046606605,21.787562062835377L87.33380004414357,19.829827070368538L89.25565457785342,17.341674265750953L86.90236331208689,20.03376419406277L82.62721751260688,9.549463407067378L84.54907204631763,10.977518873567078L83.05865424466538,9.100630796995347L82.35266686493378,9.345449484556639L80.47003385231983,4.775143948997311L80.62691993670433,3.958938534131903L82.0388946961657,4.489474795050455L87.41224308633537,1.5918064489756034L90.74607237950659,1.632620790874853L91.21673063265916,2.0407608894213354L92.23649018115884,1.6734350723968419L92.74636995540914,1.5101775840364553L93.21702820856262,1.3061043649477142L93.37391429294712,0.122449912996899L93.45235733513891,-2.2737367544323206e-13L94.39367384144498,0.979584073876822L94.86433209460029,0.4489803547335214L94.94277513679117,0.4489803547335214L95.57031947433006,3.020272503346405L92.70714843431324,6.203445462687569L95.76642707981046,7.346033605761022L94.66822448911807,8.692594848665294L99.92390831600005,8.2845528956816L100.39456656915445,10.977518873567078L98.7864842042136,11.834316903815989L99.53169310503927,14.037390585167032L101.9634274129985,14.32296143765916L103.64995282013206,13.262254928293032L103.64995282013206,9.79427813389293L105.80713648042183,10.610311626950761L106.4739023390548,12.487097671907577L108.74875056263045,13.180660444999376L110.82749118072479,12.323903917040525L110.5529405330526,13.262254928293032L111.65114312374408,13.507036942255809L109.21940881578485,16.444253250501333L111.72958616593678,19.014063691954107L116.04395348650996,18.15748650240016L115.69095979664598,19.87061461415078L116.86760542952834,21.134998957383914L115.92628892322227,22.521677370233647L116.78916238733655,22.154622122891396L118.04425106241342,24.76468827978715L119.88766255393148,24.76468827978715L123.69215010025619,19.462736497482638L124.24125139560238,19.421948358364716L127.731966773159,22.276974406684076L129.22238457481126,22.154622122891396L128.0849604630239,24.152975833324717L125.41789702848655,23.05185978936015L124.79035269094857,24.479224132065383L123.53526401587169,24.560785613638245L123.2999348892954,26.80363345112687L124.39813747998778,29.576361424300785L126.82987178794701,29.739454557957515L126.98675787233151,31.859579346157943L129.96759347563693,32.26727736492103L130.39903020769543,36.14011483146487L132.90920755784737,36.01782281877013L134.20351775402014,34.75410770729445L133.73285950086665,33.12342402048239L135.2624988236148,31.981889370808858L138.87087876445912,32.26727736492103L139.3415370176117,33.6126390167733L139.57686614419072,35.20252921492806L136.47836597759488,37.52605402600898L133.57597341648125,36.8330929152653L133.53675189538444,36.8330929152653L133.53675189538444,41.805732342367264L134.9487266548458,43.965705850968334L139.4592015809003,46.08476571557185L138.28255594801794,48.89635182846132L140.55740417159177,53.09284212741272L140.4005180872091,53.25580020503526L138.71399268007463,55.12975146910617L138.67477115897873,55.170488179282984L146.20530320943544,55.12975146910617L152.0493098527586,63.235219046382554L151.30410095193292,64.86418343065839L153.42206309112316,65.84151795171601L156.0499050045646,69.62837728892578L157.65798736950546,70.72769532850543L160.56037993061818,69.75052579638191L162.32534837994626,70.56483602658727L163.69810161830992,74.88029890024973L165.0316333355786,75.9794182170017L169.4636652194422,74.92100776332609L169.34600065615268,76.67143501953888L171.03252606328624,77.40414077725063L170.71875389451725,79.03230987442839L174.83701360961186,77.40414077725063L180.09269743649293,78.05541932289952L179.15138093018595,80.66038814629678L179.15138093018595,80.70108894044006L179.19060245128185,80.78249035866338L179.89658983101162,82.69535844724055L182.21065957568317,85.29991400306358L182.91664695541385,88.3925233188495L184.7992799680287,88.67735253679984L187.23101427598885,91.93234777093858L194.33010959438707,93.15287825555197L194.36933111548478,93.0715111282475L201.429204912788,94.16994841431892L208.56752175228394,90.30489514819237L213.19566124162793,88.92148967002936L213.07799667833842,89.04355747647378L213.11721819943432,102.14256655559461L213.8624271002618,102.99664849173723L217.70613616768242,100.84106113231155L221.35373762962172,100.71904207270336L223.19714912114068,101.77652392234972L223.43247824771788,105.51808059744963L224.92289604937105,107.59200179189043L227.2369657940426,108.16128825544502L230.9237887770787,107.14469766173056L233.86540285929004,110.15370537692547L235.0028269710756,113.77224586383818L237.90521953218922,114.95122641645344L238.6112069119199,115.19514764009023L245.16120093497557,112.99978518074363L244.80820724510886,114.70730320913685L244.80820724510886,114.7479572147954L244.80820724510886,114.7479572147954L246.6123972155301,116.53667892990666L244.0629983442832,118.16269712704957L244.14144138647498,118.44724126823417L245.47497310374274,122.3899332446208L245.47497310374274,122.43057686753696L245.51419462483864,122.43057686753696L248.37736566485637,125.1129350024662L247.1222769897804,126.86040390294579L242.41569445824553,127.02295401928473L241.35671338864995,130.0299738812048L237.47378280013436,131.61463468700072L237.43456127903664,131.61463468700072L236.84623846259456,130.720733630636L233.27708004284614,133.36172902131307L232.61031418421226,131.33021447705255L230.8061242137901,130.1518738027853L226.0603201611575,133.64613022876551L225.94265559786982,133.72738722842496L226.37409232992832,134.49931790728533L227.74684556829106,138.19618853292377L226.02109864006343,138.11494344287803L226.02109864006343,138.11494344287803L226.02109864006343,138.11494344287803L224.96211757046603,140.18662576544853L221.70673131948752,141.28334194717536L221.43218067181533,141.36457861966755L221.39295915071943,141.68952315442812L220.88307937646914,144.08588268929657L216.29416140822195,146.48205509066656L214.2154207901267,144.08588268929657L210.3324902016093,142.58310285117318L210.72470541257007,140.1053859660135L209.3911736953023,138.84614147425327L209.3911736953023,138.84614147425327L204.99836333253643,140.87715535116376L198.21304018290448,136.1649964071214L195.89897043823294,132.30535839990625L191.38849551217936,130.27377323475866L190.0941853160066,125.68188944868643L190.44717900587148,122.06478228982496L192.05526137081324,120.4796211673065L185.1522736578936,119.1382658330424L180.8771278584154,114.78861116534267L178.95527332470465,114.7479572147954L179.73970374662804,113.69093515087388L178.01395681839858,112.87781588344524L179.15138093018595,109.62511787103449L176.8373111855135,108.28327679863219L179.38671005676315,106.57539178968932L179.54359614114765,106.53472666843322L179.50437462005084,106.53472666843322L178.71994419812927,104.05404926648475L180.72024177403,102.42726326248362L193.3103500458892,103.8913746717144L193.7417867779468,102.22390875029282L191.62382463875474,100.43432898191645L194.290888073293,98.68531715752056L193.5456791724655,96.00058641941837L193.2711285247924,95.02426026765738L194.05555894671397,93.68175911289882L194.64388176315788,93.19356173503775L194.33010959438707,93.15287825555197M216.29416140822195,146.48205509066656L216.29416140822195,146.48205509066656L216.25493988712515,149.93383964411987L215.0782942542428,149.12168985393578L213.6270979736846,151.15202421699792L212.29356625641594,150.9896023869178L211.74446496107066,153.4258401244142L210.88159149695457,157.24222673895838L210.92081301805229,157.24222673895838L213.58787645258872,158.90667370742403L213.23488276272383,161.3016969475318L209.9794965117444,162.11352736935805L205.9004583177457,166.78114188746258L202.5274075034804,166.45646086362308L200.40944536428833,167.67399730987268L198.36992626728988,166.33470460968647L192.36903353958223,169.8654434817713L190.48640052696737,169.21614209310474L190.13340683710248,170.55531146049475L185.77981799543159,173.23347860749118L186.36814081187276,175.0187964848344L188.79987511983472,175.42453641111842L189.1528688096987,176.80401303727717L186.68191298064357,176.88515683926084L185.3483812633749,178.87311473582668L186.05436864310468,180.17130534029593L184.6031723625474,180.0090344336436L182.56365326554896,182.1184912320764L180.24958352087742,178.4268493826562L180.75946329512772,177.73715414415915L174.28791231426567,160.85518118563505L173.0328236391888,160.1245051989688L172.52294386494032,156.75505463163927L168.914563924096,149.24351368703083L165.30618398325169,145.18245936164794L162.09001925336815,145.22307256033628L160.40349384623642,143.5985027020522L151.7355376839896,120.03250936235918L153.50050613331587,119.09761776859227L155.22625306154623,122.14607035712766L158.52086083361974,120.88608068553913L157.18732911635288,118.08139830643904L165.502291588733,113.08109776964375L168.20857654436531,108.64923943623353L170.87563997890265,108.89321203517238L172.20917169617042,110.72294300406952L174.79779208851505,110.27568578112664L174.05258318768938,108.68990167452989L176.13132380578372,108.20195115858837L179.15138093018595,109.62511787103449M226.02109864006343,138.11494344287803L227.86451013158057,140.87715535116376L227.43307339952298,144.6138689398167L231.3944470302331,142.98926682696742L232.49264962092457,144.85755183849687L235.82647891409488,146.11654934711737L237.55222584232433,144.65448289058918L243.4746755278402,148.02525367167482L245.67108070922404,147.4567158324569L245.35730854045505,149.44655233845788L250.14233411418263,153.1822249965876L256.2216698840821,155.09049213656863L255.20191033558422,156.9580439400802L259.4378346139656,156.47086736638903L259.6731637405419,159.47500101169203L258.30041050217824,161.3422889716835L259.2025054873893,162.80356658098026L257.20220791148677,164.10242245589484L256.6531066161406,166.05060483799957L249.35790369226015,169.41905022329934L248.92646696020165,173.11174869482693L248.2204795804737,173.55808940162547L244.18066290757088,172.66540164463595L243.94533378099277,175.05937071295034L245.16120093497557,176.88515683926084L244.61209963962938,182.56470444701063L242.18036533166742,183.33542154759516L242.4549159793405,184.71455271305126L237.74833344780382,185.85026274425923L236.17947260396068,187.39151850025496L236.37558020944107,189.50048420213238L232.45342809982776,189.94659364841868L231.35522550913538,191.56875714869102L231.35522550913538,191.60931017833377L231.82588376228978,193.10973603200637L234.2968395913449,192.21759943474808L236.02258651957618,192.78532560942767L235.6303713086154,194.89393445593555L236.68935237821006,195.58325717351227L240.61150448782246,195.82654399767284L239.5133018971328,198.29985510918505L236.06180804067208,197.6916815569855L235.2381560976528,202.43512965040713L236.57168781492146,203.89451132300496L236.49324477272967,205.7997156812071L232.57109266311636,204.13773517150707L229.66870010200182,204.6647138781086L227.98217469486826,207.82640533168706L225.90343407677392,207.8669378276163L224.06002258525677,204.74578676047327L223.00104151565938,206.52933861063002L221.66750979839162,206.6509408287177L221.11840850304634,205.23221977316962L219.62799070139317,205.7186454484604L219.15733244823969,204.70525034478123L217.15703487233714,207.38054452090887L214.999851212051,206.73200871966105L215.03907273314508,208.6775770735494L213.39176884710741,208.27225999134703L212.99955363614663,209.9745576102723L212.13668017203145,209.3666044564202L211.39147127120668,212.52783626701762L209.62650282188042,212.8520477421987L208.25374958351495,212.97362621033813L205.782793754458,211.91993101818753L205.74357223336392,212.0009857096627L203.97860378403675,214.79724861173645L206.4103380919969,217.10702348762743L205.2336924591118,220.67267021047292L205.4298000645931,221.32092777028583L205.9004583177457,222.9415154402409L206.0573444021311,223.34664981664605L206.17500896541878,223.34664981664605L206.2926735287092,223.508702163537L208.13608502022726,223.83280445167884L208.37141414680355,224.39997574029258L208.44985718899534,224.68355770344897L208.41063566789853,224.68355770344897L208.29297110461084,224.84560343803787L208.21452806241905,225.41275720242788L208.01842045693775,225.29122507863622L206.5672241763823,227.47873445186474L203.70405313636365,228.0863500885573L202.37052141909498,228.97749937687695L199.27202125250187,229.3825592547048L198.99747060482878,229.01800558904756L196.52651477577092,229.54458180986853L191.50616007546705,217.83639203569896L182.56365326554896,182.1184912320764M248.2204795804737,173.55808940162547L249.20101760787475,173.7609694447608L249.90700498760634,175.05937071295034L251.5150873525481,174.2478762044484L251.3974227892586,172.74655612569632L253.94682166050825,172.50309205316012L254.26059382927724,172.46251452416436L257.94741681231335,175.26224106853283L268.0665692551156,174.32902659775982L274.69500632036033,169.90602437160783L275.36177217899603,169.45963169154902L275.7932089110536,169.6625382439472L276.3815317274939,169.54079447027198L276.3815317274939,169.41905022329934L279.4408103729929,172.01615824280407L278.69560147216544,174.65362607639827L275.126443052417,177.3314440145773L276.2638671642062,180.04960223846388L276.9306330228401,179.0353914811251L279.0093736409344,181.14491327842939L280.7743420902598,180.73924694962943L280.2644623160113,184.30893213009426L281.4803294699914,186.8642552120557L280.3036838371072,187.47263515255486L280.617456005878,189.2571491416868L283.9905068201433,190.83879379332075L286.38301960700846,189.5815954755401L285.4417031007015,191.3659912267592L282.73541814506825,192.25815163937796L277.4797343181863,191.04156306897744L277.32284823380087,191.04156306897744L275.63632282666913,192.5420156285645L271.8318352803435,200.2053908995956L270.92974029513243,202.0297341072942L271.400398548285,202.47566892373789L272.3809365756888,203.48913416074697L273.1653669976122,204.29988338373232L279.9899116683382,207.2589450500966L284.3435005100082,207.21841179143803L289.324633689218,209.2450124551865L292.0309186448512,212.81152148494198L291.63870343389044,215.0403905324174L291.63870343389044,215.1619608108981L297.0512733451551,216.25607287041157L297.1689379084437,216.7423330892086L297.678817682694,219.05197001514216L295.835406191175,224.1569035330872L295.71774162788734,224.4404875995392L295.71774162788734,224.4404875995392L295.67852010679053,224.5215111677992L296.1099568388481,225.89888119510806L295.835406191175,226.22295985581422L293.6390010097912,229.18002993905998L293.3252288410231,229.62559278837398L293.87433013636837,230.03064469072228L295.05097576925345,234.56688603654743L287.8342158875648,235.01237613282478L287.40277915550723,236.22731862840283L288.1479880563338,238.49509203164826L290.42283627990946,239.2239862561721L290.0698425900446,244.81164431793354L290.89349453306386,245.6618579342055L288.0303234930461,257.9672946678461L289.8345134634674,259.6670339546647L288.7755323938718,261.04295074143147L291.48181734950504,263.99693603740593L289.91295650565917,267.072044647688L289.75607042127467,267.39572410224673L287.9518804508525,266.060526490631L286.69679177577564,267.39572410224673L281.3626649067037,267.43618381748865L282.42164597629835,264.6848134622319L277.16596214941546,263.38997378192835L274.26356958830365,264.4824980203955L271.5180631115727,262.05461855287945L270.772854210747,262.98532624042286L267.4782464386735,262.7425353960723L263.7522019345415,256.67219773281795L260.536037204658,256.7531427489587L256.80999270052416,253.02947053413232L251.554308873644,251.12700049081764L248.0635934960883,247.0788325073661L247.0438339475886,245.6618579342055L247.82826436951018,243.55652745506995L243.82766921770508,239.30497351506233L245.04353637168606,239.38596057635164L246.73006177881962,237.28023272392875L245.55341614593635,235.94383603594542L246.22018200456932,233.47338488755486L249.08335304458706,231.85331662227372L247.98515045389559,228.45091407974928L249.67167586102914,228.0863500885573L251.9465240846048,224.7240692121918L251.0444290993937,222.41483325383228L243.2785679223589,223.02254271662923L241.67048555741894,220.6321536859448L239.9055171080936,221.19938045733352L238.7288714752085,223.3871629785549L231.78666224119388,221.92865755637217L227.86451013158057,222.98202910350665L227.0408581885622,220.18646859914134L221.35373762962172,219.1330069362075L222.9618199945644,220.59163711116412L222.72649086798629,222.41483325383228L221.51062371400712,222.53637604924893L219.39266157481688,226.506526059095L218.6866741950871,227.0736511187406L218.5297881107017,227.19517664314708L218.412123547414,227.316701717986L217.82380073097102,226.0609209254901L217.82380073097102,226.0204110679042L217.47080704110613,226.70907184761654L215.23518033862638,225.53428887592236L214.136977747934,226.83059872102444L211.35224975010897,224.88611474653203L208.48907871009123,224.76458067086946L208.44985718899534,224.68355770344897M289.91295650565917,267.072044647688L290.26595019552406,267.2743446677691L290.0698425900446,268.32628538111544L289.324633689218,270.5109815042174L289.5207412946984,270.7537168756951L291.48181734950504,272.9787106917215L294.1096592629474,271.5628223101671L294.1096592629474,273.9495716845149L296.0707353177522,275.68896208525143L294.42343143171456,274.9204051289746L292.6976845034851,274.15183092304983L290.57972236429305,273.1809756715811L290.0698425900446,273.54504962019223L287.28511459221954,272.8978043646921L286.85367786016104,273.0596168272655L286.65757025468156,272.9787106917215L282.93152575054955,274.7586014669016L280.6566775269721,273.7068590199626L275.16566457351473,275.2035596980313L271.5572846326704,273.46414463324436L267.2429173120954,274.1922826272969L262.53633478056054,271.03690595972967L262.53633478056054,271.0773613513113L261.39891066877226,272.00782212524246L262.18334109069565,272.9787106917215L260.1438219936954,273.1809756715811L245.31808701935915,272.00782212524246L242.7686881481104,276.2148069124348L237.19923215246126,278.8439101477811L236.29713716724928,281.1897093656223L234.17917502805722,281.59414134703L234.2968395913449,284.101513725916L233.15941547955845,283.7779920465748L232.84564331078946,284.38459270853696L230.25702291844573,284.8698655664243L228.84504815898345,282.079453457442L228.76660511679165,281.95812607065477L224.49145931731346,281.4323691243362L223.86391497977456,282.8478503236229L218.4513450685081,283.8993130316396L211.78368648216747,262.459277211713L196.52651477577092,229.54458180986853M296.0707353177522,275.68896208525143L296.5021720498089,275.8507613528948L296.8159442185788,276.3361545731775L297.0120518240601,276.53839972006494L296.9336087818674,276.4979507861135L296.8159442185788,276.3361545731775M296.9336087818674,276.4979507861135L298.0318113725589,278.034976751831L298.2279189780402,278.3989991374028L298.26714049913426,278.3989991374028L301.1695330602488,277.9945295819157L305.680007986306,280.0168297523355L312.7791033047033,275.68896208525143L312.818324825801,275.52716205363845L313.0144324312805,274.9204051289746L313.2497615578577,274.31363745314684L312.26922353045484,273.0191637834271L317.6425719206254,270.1064187129275L317.7994580050108,270.34915696359894L321.8000531568159,267.8407783234836L326.85962937821387,265.0489782181221L332.66441450044294,265.57498708000185L331.84076255742366,269.49956552519325L335.6844716248452,275.2035596980313L335.2138133716908,278.8439101477811L337.920098327324,278.6416785845604L338.3123135382848,278.6416785845604L339.0575224391123,280.13816397989217L336.86111725772935,283.73755162345765L336.11590835690185,290.40958170884164L336.07668683580596,290.5308794573052L333.21351579578914,289.68178631791375L329.6835788971366,290.9352022258515L329.6443573760407,290.9756342438593L329.3305852072717,294.21004337917293L335.72369314594107,300.59712031978506L334.7431551185382,302.41601125645843L335.84135770922876,303.305212516158L336.66500965224805,307.62964354489054L333.880281654423,308.96323950806413L330.8602245300208,314.0546887180569L331.1347751776939,316.1961115785182L330.2326801924828,317.00416214309985L332.89974362702014,319.75139687672936L331.37010430426926,320.47857063214906L331.2524397409816,322.9023762172046L333.2919588379809,323.62948585373533L333.880281654423,325.5683727125336L331.3308827831752,326.65895049511596L332.38986385276985,328.7188403904331L331.0563321355021,331.3440193121837L331.4485473464629,332.91903489933566L329.2913636861758,333.8074749194277L329.6443573760407,336.75532408470326L326.85962937821387,340.75270921975334L326.5066356883508,341.76208038526556L325.4476546187543,345.6378059170672L325.6437622242356,345.7185458235465L329.840464981522,345.55706583222377L332.54674993715525,348.98836231838527L336.35123748347905,349.9167755386368L341.4500352259747,346.72777961122824L342.7443454221484,347.0910969584854L342.273687168994,349.149827175213L343.76410497064717,349.8764102349894L346.0781747153196,346.7681483835097L346.5880544895699,347.41404268386054L345.685959504357,347.5755144782379L345.9212886309342,349.4323889640825L344.90152908243545,350.56261436010357L346.5096114473781,352.0964360521996L346.5096114473781,352.78259872458045L348.62757358656745,355.72891665177553L350.2748774726042,354.84101001461397L350.5102065991814,355.20424713123793L351.529966147682,356.81859105743877L350.1179913882206,358.1907279276476L349.412004008489,362.1857780499082L347.76470012245227,362.9121045771982L346.9802697005307,362.3471851722006L346.3527253629927,362.3875368431693L345.7644025465506,363.07350854395634L343.9994340972262,366.01900793485754L343.80332649174306,366.4628301137983L343.80332649174306,366.4224828612954L343.80332649174306,366.4628301137983L343.80332649174306,366.4628301137983L343.76410497064717,367.7135732975463L343.6464404073595,371.46555167422355L343.45033280188,372.3934023125154L342.2344656478999,375.3785052758433L339.5674022133626,375.41884288136634L339.488959171169,378.202033305098L337.6455476796509,379.5330517557277L337.7239907218427,382.27560861624033L334.1156107809984,380.5010357116438L332.8605221059224,381.2673387663199L331.52699038865467,379.8153829710142L333.8018386122294,370.57802087027505L332.78207906373063,368.6818618231464L331.21321821988386,365.81726883394765L329.8796865026179,363.39631437485036L329.840464981522,363.3559637992812L327.1734015469847,362.75069990941427L326.8988508993116,360.81378917367215L325.565319182042,361.94366605102834L324.07490138038884,360.9348490563965L321.9961607622954,362.26648169874045L318.4662238636429,361.2576734787258L316.7404769354125,362.06472224780225L314.073413500877,363.5173658388097L314.6225147962232,366.7452596590805L308.7000651107064,367.6732273975018L308.6216220685128,367.6732273975018L308.6608435896105,367.63288145385707L309.4452740115321,364.12261724833616L304.2680332268428,361.70155247327205L304.7779130010931,361.4997899521061L305.7192295074001,361.1366146495666L305.2093497331498,358.06965907559186L303.48360280492125,356.8589487513108L302.2677356509412,358.95748812453155L297.3258239928282,355.56748067087267L297.0120518240601,353.7512771895873L295.40396945911834,353.5494712775943L295.01175424815665,349.149827175213L296.423729007618,348.5443302954832L296.1099568388481,343.78073881084356L297.2081594295396,343.3770160677702L300.0713304695564,345.476325569005L300.6596532859985,344.7496551707252L298.85546331557816,342.32731601536784L299.79677982188514,341.2372108726413L297.1689379084437,338.69350516957866L295.63929858569554,334.37283446915126L293.4036718832158,332.4344220400478L292.7369060245819,333.04018709787374L287.12822850783414,326.61855931639275L284.029728341241,324.5989423979636L281.4018864277996,323.5890912614666L280.1467977527236,325.0028748818895L274.10668350391916,321.40771554027015L273.51836068747707,321.1653322427187L269.90998074663275,321.084537444681L267.9489046918261,319.91299232539814L268.0665692551156,319.5494015363645L268.1450122973074,319.2666061376617L268.4195629449805,318.5394076680104L268.3803414238846,314.74157426860984L268.1057907762115,313.2061646777454L268.3411199027878,313.08494530024336L268.6941135926527,312.96372550822866L270.14530987321086,312.35762032874663L273.63602525076476,313.3273836407866L275.4009937000901,313.44860218941153L275.4794367422837,313.367789869704L274.02824046172736,312.03435999315843L278.22494321901286,308.47830135151867L276.969854543936,306.70013775521784L277.4012912759945,305.3664561849562L280.4997914425876,304.7198045094799L282.65697510287646,305.85143714504625L282.50008901849105,302.6989413723536L284.5003865943936,299.95038079992287L288.9324184782572,302.37559248233265L290.5012793221031,301.1225873912897L285.87313983275817,299.222784564769L283.04919031383724,296.59522771097113L288.69708935168,296.9994800848676L287.8734374086607,294.8973166117644L289.1677476048326,294.169615119863L293.1683427566377,295.8675616426799L293.4036718832158,293.52275658969484L299.79677982188514,284.46547199164274L306.3859953660358,286.40651799913985L310.1512613912637,284.34415299595526L310.2297044334573,284.34415299595526L315.48538826033655,284.6272299896591L317.0934706252792,283.7779920465748L314.4656287118378,280.7852726343208L311.17102093976246,281.23015277747686L309.2491664060526,279.69326971976284L313.759641332108,277.7922930176494L312.9752109101846,275.4462617513059L312.818324825801,275.52716205363845M268.0665692551156,319.5494015363645L267.7920186074425,319.34740505186846L267.3213603542881,319.42820378297756L266.26237928469345,319.7917958075268L266.77225905894284,321.40771554027015L262.85010694932953,320.76135642454415L262.8893284704254,323.06395741325355L260.849809373427,323.22553787959487L260.2614865569849,325.2856249121237L259.4378346139656,325.3664102254611L259.2809485295811,325.3664102254611L259.2417270084861,325.3664102254611L258.53573962875544,323.14474773763004L256.49622053175517,322.9023762172046L255.00580273010291,319.993789775232L251.554308873644,320.8825496498748L249.82856194541364,320.2361810269085L245.20042245606965,322.98316690644947L242.4549159793405,320.59976481748004L240.92527665659145,321.32692129049883L240.80761209330376,321.40771554027015L238.7288714752085,316.31732033372055L236.49324477272967,316.96376005085267L232.76720026859766,315.7516759401635L232.76720026859766,319.6705988778633L231.55133311461668,320.0341884315312L231.0022318192705,322.25604413358747L232.02199136777108,324.3161869498374L230.8453457348869,326.53777682260716L231.31600398803948,330.6574525313572L226.4133138510242,308.43788953779654L226.7270860197914,305.68977756730783L224.60912388060297,303.87105614438565L218.9612248427593,284.101513725916L223.86391497977456,282.8478503236229M240.80761209330376,321.40771554027015L241.67048555741894,323.22553787959487L239.98396015028538,326.13386162636925L241.67048555741894,330.6574525313572L241.12138426207275,336.4726640206957L243.98455530209048,337.7244275717069L242.84713119030403,352.66151212406544L245.20042245606965,350.96625785508604L246.49473265224242,352.41933772757716L250.73065693062472,351.12771401115526L250.65221388843293,353.22657951810754L252.14263169008518,353.7512771895873L252.26029625337287,356.98002156841517L255.3195748988719,358.15037168765764L253.82915709721874,363.8805178663837L253.82915709721874,363.8805178663837L255.5549040254491,364.68750968051506L255.0450242511988,368.11702990035553L255.00580273010291,368.2380660312921L255.0450242511988,368.2380660312921L255.8686761942172,368.5204821450999L255.3195748988719,371.10247343256276L255.3195748988719,371.10247343256276L255.3195748988719,371.10247343256276L255.3195748988719,371.1428156331775L256.77077117942827,372.31272055979787L256.7315496583342,372.3530614578515L256.1040053207944,373.6842867623326L252.53484690104597,374.57174407943694L251.5150873525481,375.98356481793303L251.6719734369317,376.02390177484756L252.4956253799519,376.346595874188L254.33903687146903,376.99197577717916L259.6731637405419,376.83063183810486L260.6929232890416,374.77343600138977L259.6731637405419,373.92632265516124L261.43813218986816,373.40190958244705L269.4001009723843,375.05580287432826L268.7333351137486,376.5482782818425L270.69441116855705,380.29937443202857L272.9692593921309,380.33970677401317L273.63602525076476,381.67064992903386L270.9689618162274,383.2838516250024L271.2435124639005,385.5018919025157L269.2432148879989,386.6310262897525L270.02764530992044,389.45371570940415L274.57734175707174,392.76002915363654L272.930037871035,393.60672198461555L272.8908163499391,395.2194184730597L269.1647718458071,395.7435302310025L268.9686642403258,395.7435302310025L268.890221198134,396.2273193483485L268.6156705504609,396.7111023714342L268.6156705504609,396.5498420406875L264.1444171455023,397.5980220959473L263.3599867235789,399.17023862426777L260.6144802468507,399.9361670131641L258.8495117975244,397.114250237581L255.4764609832564,397.03362100266247L254.5743659980444,397.2351937728513L255.00580273010291,398.32366847428693L252.0249671267975,398.48492136664925L252.0249671267975,398.56554755950265L251.9465240846048,398.56554755950265L252.92706211200857,402.39509746420754L238.17977017986232,369.9728741694039L235.1989345765569,359.68387787211975L230.8453457348869,326.53777682260716M304.7779130010931,361.4997899521061L303.64048888930665,361.6612000567833L301.6794128344991,363.4366649066259L301.2087545813447,363.7594675845286L301.2087545813447,363.8401678162047L301.4833052290178,365.41378735561557L302.58150781971017,364.80855694344075L305.9153371128814,366.05935562400725L299.56145069530794,366.9873404243957L299.52222917421204,366.94699373926517L292.0309186448512,362.46824005359815L291.48181734950504,363.7594675845286L289.75607042127467,363.03315761798194L288.7755323938718,363.7191174030253L286.30457656481485,362.3068334573909L282.57853206068285,364.68750968051506L280.8135636113575,363.03315761798194L280.5390129636844,360.652375381983L276.5384178118793,362.8314023309432L275.6755443477632,360.36989955570186L273.08692395541857,359.5224591594397L269.51776553567197,360.1277757057086L268.7333351137486,361.9033138977229L267.8704616496343,360.9348490563965L267.7527970863466,361.98401816047544L264.1051956244046,363.39631437485036L264.26208170879,367.2697659987348L262.73244238604,366.2610934147011L260.6537017679457,367.43115108156314L260.0261574304077,365.97866020203253L256.0255622786026,367.8346107360924L255.8686761942172,368.5204821450999M337.6455476796509,379.5330517557277L338.3515350593825,382.19494801637427L336.93956029992114,386.4293976084866L337.6847692007468,388.3649888534537L334.507825991961,391.3085121390584L335.76291466703697,391.6713965581879L336.15512987799957,395.2194184730597L333.9195031755189,398.40429500491643L330.1934586713851,400.9842548869101L329.3698067283676,403.9671185251216L329.3305852072717,404.0880405763187L319.01532515898907,401.6292178895094L313.7204198110103,399.17023862426777L313.3674261211472,398.08178786888334L309.6021600959175,397.7592780295969L300.1889950328459,393.00194330176635L299.75755830078924,396.75141734836654L303.36593824163356,397.7189641095687L302.0716280454617,399.1299261820119L296.737501176387,397.67865014728534L295.32552641692655,398.56554755950265L294.34498838952277,397.5980220959473L290.77582996977526,401.8307666182927L284.5396081154895,399.4524245388534L282.61775358177874,401.5485981034517L283.20607639822174,403.6849656031153L283.20607639822174,403.72527328934905L282.89230422945184,403.7655809335995L281.95098772314486,403.9268110907749L281.87254468095216,403.9268110907749L281.4018864277996,402.23386092078556L280.5782344847803,403.1609618605098L274.69500632036033,402.0323142953099L272.8908163499391,403.4028106237067L272.7731517866496,399.3718002027399L271.8710568014394,399.21055102433434L270.57674660526664,399.4927366436441L268.8117781559413,398.64617358348926L268.576449029365,398.5252344841855L268.5372275082682,398.5252344841855L268.576449029365,398.16241490628545L268.6156705504609,396.7111023714342M329.3305852072717,404.0880405763187L328.62459782754013,406.74823022371413L325.40843309766024,406.9094479743792L323.25124943736955,409.44853931109947L328.50693326425244,416.66188062384265L328.15393957438755,419.72412648956924L331.1739966987898,419.6032528876881L331.1739966987898,422.1012319026803L335.0177057662113,425.16305486860654L335.72369314594107,428.7885914330874L332.31142081057624,432.57490955913636L332.03687016290314,435.07207141418223L330.3111232346746,435.63592506428233L330.7425599667313,436.763608519105L330.3503447557705,436.72333465714405L328.85992695411915,436.48169063453304L327.95783196890625,436.32059380900125L319.01532515898907,430.1178718312881L312.9752109101846,428.3857704077733L311.01413485537887,428.7885914330874L309.7982677013988,431.56794522112205L308.46473598413104,432.05129127959947L310.2297044334573,436.0386728038019L307.9548562098789,436.4011423028237L305.6015649441124,434.46793367558735L304.6994699589013,436.0386728038019L300.6204317649026,437.6093502649072L298.5024696257133,436.0386728038019L299.16923548434715,435.03179584911857L296.9336087818674,432.3735187273395L295.24708337473294,432.93741049253777L292.109361687043,431.89017657847216L288.0303234930461,426.9758646105L286.42224112810254,428.1440758302225L284.4611650732977,426.6535933880257L283.6767346513752,428.6677455546783L285.6770322272778,430.35955440002226L284.4611650732977,431.2859906444643L285.4809246217965,431.9304553148413L283.20607639822174,432.1721268778638L282.06865228643346,434.306828735555L277.95039257133976,433.01796580796656L276.6168608540702,434.3471050314895L274.81267088364984,434.306828735555L273.79291133515017,435.7970246467303L273.7144682929584,435.91784890773647L273.6752467718625,435.9581235803056L266.10549320030896,426.8952970506042L263.0462145548099,424.67962491239336L261.35968914767636,424.71991096781187L259.4378346139656,422.26238640072893L258.14352441779465,418.8780034733975L259.0456194030048,418.6362506948967L258.14352441779465,418.6362506948967L252.0249671267975,398.56554755950265M328.85992695411915,436.48169063453304L328.78148391192553,436.6427868116788L328.70304086973374,436.6427868116788L327.99705349000396,439.58267828790997L325.9967559141005,438.7772500023983L325.7222052664274,439.58267828790997L329.6443573760407,445.78393606935686L329.01681303850273,447.4347596751941L332.58597145824933,451.9842426074184L334.0763892599025,452.58811797434396L333.8410601333271,454.480202819812L336.11590835690185,457.0967713521276L336.312015962385,457.1772784969726L336.35123748347905,457.2175320099906L337.8416552851304,460.5986859045205L335.48836401936387,464.94547489222043L335.48836401936387,464.9857207953919L333.05662971140373,466.07234534818747L330.3503447557705,464.34178163275794L329.05603455959863,465.5491593187412L331.80154103632776,471.38432126435066L329.5659143338489,471.7062373332544L325.48687613985203,478.18426946622856L323.64346464833216,478.1038031812699L324.74166723902454,479.27054917983753L323.83957225381346,481.28210395923804L326.1144204773882,480.8798007169298L325.3299900554666,482.60967732999484L326.7419648149262,484.70152612540494L326.7419648149262,484.7417529689692L326.0359774351964,485.18424571556864L325.565319182042,483.69584255801703L321.3293949036615,484.54061836732683L318.0347871315862,488L306.1506662394586,479.02915612231254L303.32671672053766,474.080291402542L275.5971013055714,439.945115745173L273.7144682929584,435.91784890773647M153.50050613331587,119.09761776859227L151.7747592050864,118.77243127603629L151.30410095193292,118.6504854351058L150.44122748781774,118.48789021148286L145.30320822422527,112.10533212872883L142.91069543736012,111.5767791244964L143.7343473803803,110.68228353305653L142.24392957872624,110.35700577399939L141.22417003022656,107.87664638168462L135.6939355556733,102.3459216246647L132.51699234688567,101.93921009415885L128.59484023727236,97.05823669830374L126.90831483013972,92.01371804204041L125.65322615506284,91.68823560955752L121.37808035558464,85.78824240226754L118.828681484335,84.16044943995803L116.00473196541498,86.03240355324078L112.20024441909027,76.95637833663523" stroke="rgba(86, 111, 105, 0.18823529411764706)"></path>
	</g>
</svg>