<svg id="chart" viewBox="0 0 432 488" preserveAspectRatio="xMidYMid meet" pointer-events="auto" class="">
    <g class="regions">
        <path d="M219.93882352941182,201.47911105175854L220.8282352941169,202.96201473428937L222.28941176470653,205.29205846758123L224.38588235294264,207.03940410975292L231.81882352941284,207.51592509352622L232.51764705882306,209.10424227537987L237.66352941176592,209.89835121034366L256.2776470588251,206.08632636682387L264.60000000000036,207.35708609043013L266.7600000000002,205.71567213771868L272.28705882353097,207.25119268570415L273.68470588235505,204.8154818200901L279.7835294117649,203.65046644048334L285.31058823529565,209.52777115938943L282.6423529411786,216.67340228752482L283.341176470587,217.3613588269609L288.29647058823684,218.7371975266028L288.4870588235299,219.31925328459874L289.63058823529354,223.18153757395157L291.2188235294143,228.3124067791823L290.9647058823539,228.52395946889965L288.29647058823684,230.692239720649L287.0894117647076,238.62288121440588L284.357647058825,241.7942194962593L277.4329411764702,244.11953455479943L271.0164705882362,251.99180723306472L268.2847058823536,252.62567554668976L266.6329411764709,251.6748652441811L265.9341176470607,247.87115389551127L249.73411764705997,254.36870575025887L250.8141176470599,259.06881882778725L250.432941176472,259.1216225721005L247.89176470588245,259.49124473081065L246.17647058823604,263.2926613278746L236.0752941176488,263.02869827883796L227.88000000000284,262.8175252384003L216.06352941176374,265.08751427408106L212.44235294117607,270.259980224203L210.15529411764692,270.68216118422333L204.69176470588172,262.2367874535753L203.54823529411806,264.4540558314029L201.57882352941306,262.39517222026416L199.0376470588235,262.39517222026416L197.38588235294264,264.5068448293414L195.79764705882553,261.6032353765563L186.71294117647267,266.40715257672355L188.04705882352937,270.0488862843026L191.28705882352915,272.31802528027947L184.2988235294124,278.9128475970142L185.56941176470718,283.34330604851175L185.06117647058818,283.76520162682755L183.72705882353148,285.03083325599073L178.58117647058862,281.4446622451014L174.8964705882372,282.02482315082807L169.75058823529616,275.5365794827767L169.30588235294272,277.8050745577193L167.14588235294286,278.9128475970142L167.78117647058934,281.8665991726225L160.2847058823536,279.96781060114927L155.7105882352953,283.5542549858933L152.0894117647058,283.396043498155L148.08705882353206,286.98185347149683L148.0235294117665,287.03458102309787L148.0235294117665,286.98185347149683L148.9129411764734,280.8644839602357L147.96000000000095,279.38758806331634L143.51294117647012,277.277541298507L139.00235294117738,278.01608383476014L134.87294117647252,275.4838206180675L137.15999999999985,269.521141341917L135.95294117647063,267.410017346157L136.84235294117752,265.0347268648593L135.3811764705897,264.03173864768496L136.5882352941171,262.8175252384003L138.55764705882393,263.97894834965655L140.90823529411864,261.39204672450614L138.55764705882393,261.1808557589907L140.90823529411864,258.4879680894014L140.9717647058842,255.10812542238955L136.77882352941378,248.08249093679024L136.90588235294308,247.81831927209214L136.90588235294308,247.81831927209214L138.30352941176534,243.74961690606506L139.76470588235497,242.74551879030514L140.5905882352945,245.070718647823L142.432941176472,242.00562341383238L142.49647058823575,242.00562341383238L142.49647058823575,242.00562341383238L144.33882352941146,244.01384452516913L145.86352941176483,241.74136815303564L153.16941176470755,238.940038634928L168.98823529411857,217.20260182649554L162.8894117647087,215.35033923178935L162.8894117647087,215.35033923178935L163.07999999999993,213.97425631615351L163.33411764705852,212.49220982610768L165.17647058823604,211.69820896097553L168.79764705882553,207.67476277188507L171.5294117647063,204.02116088835237L171.6564705882356,204.02116088835237L172.4188235294132,204.07411664857773L173.0541176470615,204.12707226144312L178.136470588237,200.26092510019134L178.26352941176447,200.15499219882986L178.32705882353002,200.1020255268254L182.71058823529347,199.51938239571882L181.75764705882648,201.796885858741L178.39058823529558,203.33272259449814L180.29647058823502,204.65662028585166L188.7458823529414,202.750178428259L192.68470588235323,199.89015736325473L197.38588235294264,200.94947457429225L199.6729411764718,198.14215491122832L200.81647058823546,201.05540304979831L198.27529411764954,205.08024809737117L197.13176470588223,211.64527439414132L198.91058823529602,216.40879701511267L203.54823529411806,220.48331158062L211.0447058823538,215.985420947502L219.87529411764626,201.47911105175854L219.87529411764626,201.47911105175854Z" stroke-width="0.4" stroke-opacity="0.5" fill="rgb(232, 241, 250)" stroke="rgb(86,101,115)" pointer-events="all" style="cursor: pointer;"><title>West Khasi Hills</title></path>
        <path d="M398.39294117647114,261.76162534748664L399.98117647059007,260.65286822275357L400.23529411764866,260.70566762715725L400.2988235294106,260.70566762715725L402.6494117647071,261.6032353765563L403.7929411764726,270.0488862843026L406.84235294117934,268.6767194392596L406.5247058823552,266.61828633179357L408.55764705882393,269.36281504739736L410.5905882352963,266.8294177774246L411.73411764706,271.15710373720003L413.4494117647064,269.9433384493145L419.865882352944,276.59172655874L422.78823529411966,275.4838206180675L421.9623529411783,277.1720329208024L424.50352941176425,281.1282035170975L429.1411764705899,282.8686625421633L430.6658823529415,290.9887389898654L427.23529411764866,293.30813676991284L428.569411764709,294.88938553577873L426.28235294117803,296.7340131207666L427.6800000000021,299.4215856846231L432.0000000000018,301.7399773390275L428.3152941176468,304.26881688763706L423.4870588235317,303.162490011101L416.4352941176476,307.5347486224823L411.98823529411675,307.9561192891597L410.90823529411864,311.3794183142818L406.90588235294126,314.11762493116976L405.95294117647063,317.8030657304157L391.5952941176474,313.9070072960494L391.5952941176474,313.9596619179438L391.5952941176474,314.27558666578125L391.72235294117854,316.01308137697197L394.0729411764696,320.3298232415468L385.62352941176687,318.8032796547791L384.28941176470653,325.4349823132193L382.1294117647085,327.5398146254465L383.2094117647066,330.1705368161538L380.0329411764724,328.90783427113L377.6188235294121,331.380550379115L365.92941176470595,328.11860383331486L364.2776470588233,323.01414519715036L359.0682352941185,324.64561182344687L346.2988235294142,318.329500495769L348.522352941176,317.223971099741L344.9647058823539,316.1710277734319L348.58588235294155,310.06283598035134L349.9835294117638,304.2161360809864L347.76000000000204,300.21197751751515L345.7270588235315,299.8431319925053L344.90117647059014,289.5126142800618L340.8352941176472,282.4467474410949L341.2164705882369,279.5985800890835L354.8752941176481,272.84569383848293L370.0588235294126,271.26264494134284L381.17647058823786,268.72949688987865L387.2752941176477,265.56259445875276L393.43764705882495,266.6710694097055L394.9623529411765,262.8703187152887L395.1529411764732,262.923112047657L398.01176470588325,263.18707654177797L398.0752941176488,263.1342839319732L398.2023529411781,263.02869827883796Z" stroke-width="0.4" stroke-opacity="0.5" fill="rgb(232, 241, 250)" stroke="rgb(86,101,115)" pointer-events="all" style="cursor: pointer;"><title>East Jaintia Hills</title></path>
        <path d="M291.2188235294143,228.3124067791823L292.0447058823538,233.0717768687773L335.181176470589,233.54764882368772L335.3082352941201,233.86489022653586L335.37176470588383,233.86489022653586L336.0070588235285,236.0854329925137L331.24235294117534,246.18037389223764L332.51294117647194,249.03347886902475L329.7811764705875,257.1149785406383L331.8141176470599,260.8112660020897L329.7176470588256,264.03173864768496L332.38588235294264,270.5238444053721L330.73411764705816,272.4235601443743L332.195294117646,275.4310616094431L332.0682352941185,282.39400740737165L333.27529411764954,283.1850928383292L332.13176470588223,287.2454897959092L322.538823529414,284.8726338219749L314.3435294117662,291.25232087471795L313.835294117649,296.8921159099091L319.10823529411755,303.9000482476472L318.9176470588245,305.6911447959433L318.40941176470733,305.9545274539337L313.58117647059044,308.7461647326754L308.371764705882,306.9026755361688L279.402352941177,308.7461647326754L278.95764705882357,312.4326201898889L273.30352941176534,311.116108958714L271.7788235294138,313.7490425778883L264.2188235294143,316.32897289214816L260.8517647058834,312.7485696640283L258.31058823529565,312.69591177368693L258.56470588235425,308.4301503985125L242.68235294117767,314.64415907450984L239.50588235294344,314.4335471218369L238.87058823529696,312.27464353383857L234.93176470588332,311.8533661959668L231.2470588235301,308.6408271906166L229.78588235294228,309.6415108567862L226.2917647058839,307.90344845411937L222.60705882353068,298.7365534456858L227.11764705882342,297.8934037132117L229.59529411764743,294.04606887941145L232.51764705882306,294.30960926726493L234.7411764705903,292.51746410793885L240.6494117647071,294.04606887941145L243.06352941176556,290.88330523373224L248.40000000000146,291.99033111305243L250.62352941176505,290.30340933727166L250.87764705882364,283.396043498155L247.19294117647223,280.38977970727683L251.7670588235287,267.5683596525978L250.432941176472,259.1216225721005L250.8141176470599,259.06881882778725L249.73411764705997,254.36870575025887L265.9341176470607,247.87115389551127L266.6329411764709,251.6748652441811L268.2847058823536,252.62567554668976L271.0164705882362,251.99180723306472L277.4329411764702,244.11953455479943L284.357647058825,241.7942194962593L287.0894117647076,238.62288121440588L288.29647058823684,230.692239720649L290.9647058823539,228.52395946889965Z" stroke-width="0.4" stroke-opacity="0.5" fill="rgb(15, 87, 159)" stroke="rgb(86,101,115)" pointer-events="all" style="cursor: pointer;"><title>East Khasi Hills</title></path>
        <path d="M136.90588235294308,247.81831927209214L136.77882352941378,248.08249093679024L140.9717647058842,255.10812542238955L140.90823529411864,258.4879680894014L138.55764705882393,261.1808557589907L140.90823529411864,261.39204672450614L138.55764705882393,263.97894834965655L136.5882352941171,262.8175252384003L135.3811764705897,264.03173864768496L136.84235294117752,265.0347268648593L135.95294117647063,267.410017346157L137.15999999999985,269.521141341917L134.87294117647252,275.4838206180675L139.00235294117738,278.01608383476014L143.51294117647012,277.277541298507L147.96000000000095,279.38758806331634L148.9129411764734,280.8644839602357L148.0235294117665,286.98185347149683L148.0235294117665,287.03458102309787L148.08705882353206,286.98185347149683L148.34117647058883,287.2454897959092L151.39058823529558,289.0908437383878L157.10823529411937,288.669064027873L159.1411764705881,291.8849027966612L161.42823529411908,291.77947390774943L161.42823529411908,291.7267592485978L161.6188235294121,291.9376170264195L164.79529411764634,296.0488861722165L165.36705882353272,296.7340131207666L165.17647058823604,297.5245142070321L164.09647058823612,301.845352213933L166.76470588235497,304.00541142895827L166.955294117648,308.58815820609107L150.31058823529384,310.6421431591334L145.22823529411835,310.06283598035134L139.51058823529456,306.79732802812214L136.71529411764823,309.79950884517166L133.9200000000019,309.79950884517166L133.34823529411733,311.6427241148731L130.93411764705888,309.85217455674274L126.99529411764706,310.6421431591334L124.32705882353002,309.4308448803181L121.46823529411813,305.3224030909323L118.73647058823553,308.48281981004175L100.50352941176607,309.2728439039056L90.97411764705976,313.22248428136254L81.25411764706041,310.3261595589802L74.64705882352973,305.5331134915282L70.77176470588347,306.32325719195796L60.48000000000138,303.5839552822995L59.8447058823549,298.57846565580394L62.44941176470638,295.62725758267607L64.48235294117694,284.8199003903742L71.3435294117644,277.75232187895654L72.04235294117825,274.6924203762287L70.58117647059044,269.25726346334613L72.86823529411777,261.9200140172502L72.99529411764888,261.9728099513718L73.37647058823859,262.2367874535753L80.11058823529493,262.8703187152887L90.59294117647187,262.50076134200754L101.71058823529347,266.8294177774246L119.94352941176658,269.62669148391797L124.89882352941277,259.1216225721005Z" stroke-width="0.4" stroke-opacity="0.5" fill="#ffffff00" stroke="rgb(86,101,115)" pointer-events="all" style="cursor: pointer;"><title>South Garo Hills</title></path>
        <path d="M72.99529411764888,261.9728099513718L72.86823529411777,261.9200140172502L70.58117647059044,269.25726346334613L72.04235294117825,274.6924203762287L71.3435294117644,277.75232187895654L64.48235294117694,284.8199003903742L62.44941176470638,295.62725758267607L59.8447058823549,298.57846565580394L60.48000000000138,303.5839552822995L49.74352941176585,300.4754343248055L42.945882352943954,300.3173606686096L35.32235294117709,295.2583250619532L23.887058823531333,290.5670005289967L22.99764705882444,288.29999925883567L25.6658823529433,286.1381931466444L25.792941176470777,284.9781002547775L28.397647058825896,283.92341010057453L31.764705882353155,281.1282035170975L48.600000000000364,276.22243162889754L50.12470588235374,274.0592768628162L48.79058823529522,272.37079278435885L51.3952941176467,249.03347886902475L48.09176470588136,248.98064744033945L47.13882352941255,247.55414397628283L46.82117647059022,250.1429053373672L46.75764705882284,250.1429053373672L46.37647058823677,250.1429053373672L45.42352941176614,250.1429053373672L45.42352941176614,249.98441976101867L45.48705882352988,246.18037389223764L45.296470588235024,246.18037389223764L43.07294117647143,246.44456807495908L39.76941176470609,242.05847402940753L29.541176470589562,238.99289769514735L29.223529411765412,238.88717942903713L27.254117647058592,235.82109615437912L24.204705882355483,235.82109615437912L19.44000000000233,231.11529015877932L19.312941176471213,230.95664733992635L18.614117647059174,227.41328175172657L14.230588235293908,222.33507631904877L12.070588235294053,219.84837948749737L11.49882352941313,217.14968253289499L11.435294117647572,216.99092377173065L11.435294117647572,216.88508386395915L14.294117647059466,217.57303277357823L15.755294117647281,217.8905392923898L17.40705882353177,216.93800389121088L17.597647058824805,216.8321636899659L17.280000000002474,215.35033923178935L20.77411764705903,211.22179256751315L19.185882352943736,203.9152489258122L20.520000000000437,203.33272259449814L20.01176470588325,204.6036661464491L21.155294117648737,204.76252812267103L21.40941176470733,202.69721898319722L22.489411764705437,203.75637987673917L27.190588235294854,201.69096151298936L28.90588235294308,199.04266109719765L29.92235294117745,197.45350374299824L29.92235294117745,197.08268123813468L29.28705882353097,196.39399167033116L27.889411764705073,194.96355663172653L27.825882352943154,194.91057548729623L28.397647058825896,194.38075591328652L29.60470588235512,193.2680866857877L30.30352941176534,192.6322464189143L32.781176470589344,193.9039056571969L35.385882352942645,189.770701567169L39.13411764706143,188.81675736344732L39.960000000000946,185.7956174124165L41.92941176470595,184.1523391177352L43.581176470590435,182.72098059317705L44.34352941176439,182.50891827893975L48.536470588236625,181.236494522288L49.552941176472814,182.72098059317705L52.22117647058985,182.4559023293641L53.68235294117767,184.84147317201086L56.03294117647238,182.13780351517516L57.2400000000016,183.4631799958688L73.63058823529536,180.1230535838772L78.9035294117657,174.60790400929227L79.09411764705874,174.44878928867183L79.34823529411733,174.44878928867183L85.06588235294294,174.39575075086304L85.31999999999971,174.39575075086304L85.70117647058942,175.13827674012828L87.73411764705816,177.20658826602767L89.13176470588405,177.20658826602767L89.4494117647082,177.20658826602767L89.4494117647082,178.85046944919486L86.65411764706005,188.2867676280971L82.01647058823619,197.13565632476548L82.20705882353104,201.4261480677419L76.23529411764684,203.49159518073475L75.72705882352966,207.25119268570415L83.35058823529471,208.204212133086L84.87529411764808,214.18596784168267L84.87529411764808,214.29182272321577L84.62117647058949,214.66231018249846L82.65176470588267,217.14968253289499L85.447058823529,220.48331158062L86.46352941176701,230.90376610819658L83.35058823529471,233.33615163650074L84.2400000000016,235.23954227761396L81.88941176470689,242.26987503651617L83.03294117647056,248.7693202736932L82.71529411764823,249.40329480475293L82.01647058823619,250.5655271553278L81,252.41438842924026L77.25176470588485,253.99898526234392L76.48941176470726,254.57997141199985L72.67764705882473,260.3888690312883Z" stroke-width="0.4" stroke-opacity="0.5" fill="rgb(232, 241, 250)" stroke="rgb(86,101,115)" pointer-events="all" style="cursor: pointer;"><title>West Garo Hills</title></path>
        <path d="M162.8894117647087,215.35033923178935L168.98823529411857,217.20260182649554L153.16941176470755,238.940038634928L145.86352941176483,241.74136815303564L144.33882352941146,244.01384452516913L142.49647058823575,242.00562341383238L142.49647058823575,242.00562341383238L142.432941176472,242.00562341383238L140.5905882352945,245.070718647823L139.76470588235497,242.74551879030514L138.30352941176534,243.74961690606506L136.90588235294308,247.81831927209214L136.90588235294308,247.81831927209214L124.89882352941277,259.1216225721005L119.94352941176658,269.62669148391797L101.71058823529347,266.8294177774246L90.59294117647187,262.50076134200754L80.11058823529493,262.8703187152887L73.37647058823859,262.2367874535753L72.99529411764888,261.9728099513718L72.67764705882473,260.3888690312883L76.48941176470726,254.57997141199985L77.25176470588485,253.99898526234392L81,252.41438842924026L82.01647058823619,250.5655271553278L82.71529411764823,249.40329480475293L83.03294117647056,248.7693202736932L81.88941176470689,242.26987503651617L84.2400000000016,235.23954227761396L83.35058823529471,233.33615163650074L86.46352941176701,230.90376610819658L85.447058823529,220.48331158062L82.65176470588267,217.14968253289499L84.62117647058949,214.66231018249846L89.4494117647082,217.3084399735244L96.94588235294032,221.38276258544101L99.04235294117643,221.17113086490963L101.2023529411781,217.5201145069882L105.14117647058993,210.95711164802697L109.01647058823619,211.8040776536768L112.51058823529456,217.0967630925702L116.95764705882539,218.2609568899752L124.9623529411765,210.74536426598297L135.00000000000182,207.886544282444L139.38352941176527,205.66272094445912L144.78352941176672,205.13320091088326L146.43529411764757,204.9743420284126L147.07058823529587,204.86843537018558L155.52000000000044,214.66231018249846L161.36470588235352,215.9324982785556Z" stroke-width="0.4" stroke-opacity="0.5" fill="#ffffff00" stroke="rgb(86,101,115)" pointer-events="all" style="cursor: pointer;"><title>East Garo Hills</title></path>
        <path d="M335.181176470589,233.54764882368772L335.9435294117666,233.54764882368772L336.3882352941182,233.0717768687773L337.658823529413,231.59121072888502L338.357647058825,232.91315025669246L338.0400000000027,228.78839704212123L338.10352941176643,228.68262245133928L340.6447058823542,229.3701468413251L348.522352941176,221.5414848373648L348.6494117647071,221.5414848373648L349.9200000000019,222.86411899694576L354.2399999999998,222.59959948877713L361.0376470588235,219.58381821865078L364.2776470588233,220.21875910695326L371.64705882353155,215.35033923178935L371.26588235294184,217.3084399735244L374.8235294117658,216.93800389121088L375.58588235294155,219.2663398579357L378.3811764705897,218.89594176569972L380.28705882353097,220.9065879172681L379.77882352941197,225.45621647425105L384.0988235294135,228.04796262783384L389.181176470589,237.51278893645986L396.16941176470755,237.777102450455L396.55058823529544,244.80650556958926L399.4094117647055,247.13145594947946L400.61647058823655,248.08249093679024L401.4423529411797,247.7126495895177L403.6023529411759,246.76159629900076L406.0164705882362,245.70481520775684L407.985882352943,243.5382321928637L410.27294117647216,241.84707069394972L411.0988235294135,242.95691223139193L411.73411764706,244.5951324900052L411.6070588235307,244.70081932058383L411.4164705882358,244.75366251778223L409.4470588235308,247.18429246127516L409.4470588235308,247.18429246127516L409.0023529411774,250.5655271553278L399.02823529411944,257.69587067751263L397.6941176470591,260.3888690312883L398.01176470588325,262.02560574092786L398.39294117647114,261.76162534748664L398.2023529411781,263.02869827883796L398.0752941176488,263.1342839319732L398.01176470588325,263.18707654177797L395.1529411764732,262.923112047657L394.9623529411765,262.8703187152887L393.43764705882495,266.6710694097055L387.2752941176477,265.56259445875276L381.17647058823786,268.72949688987865L370.0588235294126,271.26264494134284L354.8752941176481,272.84569383848293L341.2164705882369,279.5985800890835L340.8352941176472,282.4467474410949L344.90117647059014,289.5126142800618L345.7270588235315,299.8431319925053L347.76000000000204,300.21197751751515L349.9835294117638,304.2161360809864L348.58588235294155,310.06283598035134L344.9647058823539,316.1710277734319L343.1858823529419,314.4335471218369L343.50352941176607,316.64485929664033L341.4705882352955,316.4869167331958L335.62588235294425,313.2751407504702L333.72000000000116,309.6415108567862L327.8117647058825,306.79732802812214L318.3458823529436,306.1652310160662L318.40941176470733,305.9545274539337L318.9176470588245,305.6911447959433L319.10823529411755,303.9000482476472L313.835294117649,296.8921159099091L314.3435294117662,291.25232087471795L322.538823529414,284.8726338219749L332.13176470588223,287.2454897959092L333.27529411764954,283.1850928383292L332.0682352941185,282.39400740737165L332.195294117646,275.4310616094431L330.73411764705816,272.4235601443743L332.38588235294264,270.5238444053721L329.7176470588256,264.03173864768496L331.8141176470599,260.8112660020897L329.7811764705875,257.1149785406383L332.51294117647194,249.03347886902475L331.24235294117534,246.18037389223764L336.0070588235285,236.0854329925137L335.37176470588383,233.86489022653586L335.3082352941201,233.86489022653586Z" stroke-width="0.4" stroke-opacity="0.5" fill="#ffffff00" stroke="rgb(86,101,115)" pointer-events="all" style="cursor: pointer;"><title>West Jaintia Hills</title></path>
        <path d="M148.08705882353206,286.98185347149683L152.0894117647058,283.396043498155L155.7105882352953,283.5542549858933L160.2847058823536,279.96781060114927L167.78117647058934,281.8665991726225L167.14588235294286,278.9128475970142L169.30588235294272,277.8050745577193L169.75058823529616,275.5365794827767L174.8964705882372,282.02482315082807L178.58117647058862,281.4446622451014L183.72705882353148,285.03083325599073L185.06117647058818,283.76520162682755L185.56941176470718,283.34330604851175L184.2988235294124,278.9128475970142L191.28705882352915,272.31802528027947L188.04705882352937,270.0488862843026L186.71294117647267,266.40715257672355L195.79764705882553,261.6032353765563L197.38588235294264,264.5068448293414L199.0376470588235,262.39517222026416L201.57882352941306,262.39517222026416L203.54823529411806,264.4540558314029L204.69176470588172,262.2367874535753L210.15529411764692,270.68216118422333L212.44235294117607,270.259980224203L216.06352941176374,265.08751427408106L227.88000000000284,262.8175252384003L236.0752941176488,263.02869827883796L246.17647058823604,263.2926613278746L247.89176470588245,259.49124473081065L250.432941176472,259.1216225721005L251.7670588235287,267.5683596525978L247.19294117647223,280.38977970727683L250.87764705882364,283.396043498155L250.62352941176505,290.30340933727166L248.40000000000146,291.99033111305243L243.06352941176556,290.88330523373224L240.6494117647071,294.04606887941145L234.7411764705903,292.51746410793885L232.51764705882306,294.30960926726493L229.59529411764743,294.04606887941145L227.11764705882342,297.8934037132117L222.60705882353068,298.7365534456858L226.8000000000011,309.37817803047574L214.09411764705874,306.5866313030019L209.64705882352973,303.1098062105666L207.80470588235403,304.58489873431654L190.84235294117752,305.3224030909323L183.15529411764692,303.9000482476472L166.955294117648,308.58815820609107L166.76470588235497,304.00541142895827L164.09647058823612,301.845352213933L165.17647058823604,297.5245142070321L165.36705882353272,296.7340131207666L164.79529411764634,296.0488861722165L161.6188235294121,291.9376170264195L161.42823529411908,291.7267592485978L161.42823529411908,291.77947390774943L159.1411764705881,291.8849027966612L157.10823529411937,288.669064027873L151.39058823529558,289.0908437383878L148.34117647058883,287.2454897959092Z" stroke-width="0.4" stroke-opacity="0.5" fill="#ffffff00" stroke="rgb(86,101,115)" pointer-events="all" style="cursor: pointer;"><title>South West Khasi Hills</title></path>
        <path d="M172.4188235294132,204.07411664857773L171.6564705882356,204.02116088835237L171.5294117647063,204.02116088835237L168.79764705882553,207.67476277188507L165.17647058823604,211.69820896097553L163.33411764705852,212.49220982610768L163.07999999999993,213.97425631615351L162.8894117647087,215.35033923178935L162.8894117647087,215.35033923178935L161.36470588235352,215.9324982785556L155.52000000000044,214.66231018249846L147.07058823529587,204.86843537018558L146.43529411764757,204.9743420284126L144.78352941176672,205.13320091088326L139.38352941176527,205.66272094445912L135.00000000000182,207.886544282444L124.9623529411765,210.74536426598297L116.95764705882539,218.2609568899752L112.51058823529456,217.0967630925702L109.01647058823619,211.8040776536768L105.14117647058993,210.95711164802697L101.2023529411781,217.5201145069882L99.04235294117643,221.17113086490963L96.94588235294032,221.38276258544101L89.4494117647082,217.3084399735244L84.62117647058949,214.66231018249846L84.87529411764808,214.29182272321577L84.87529411764808,214.18596784168267L83.35058823529471,208.204212133086L75.72705882352966,207.25119268570415L76.23529411764684,203.49159518073475L82.20705882353104,201.4261480677419L82.01647058823619,197.13565632476548L86.65411764706005,188.2867676280971L89.4494117647082,178.85046944919486L89.4494117647082,177.20658826602767L95.54823529411806,174.28967322882818L104.06117647058818,183.940292827343L100.24941176470566,191.6784460798608L100.9482352941177,192.52627097039613L106.09411764706056,189.45272549666515L105.33176470588296,188.12776781911907L110.0964705882343,186.00764294236296L111.68470588235505,182.61494973286835L116.95764705882539,185.6365967083584L114.35294117647209,189.29373546249053L116.64000000000124,192.31431829828216L117.97411764706158,188.86975552238027L118.80000000000109,188.39276676010695L130.4258823529417,183.14509809868468L130.48941176470908,183.092083929846L131.4423529411797,184.41739364333944L134.0470588235312,183.19811211914475L133.79294117647078,185.5835895104933L134.68235294117767,187.43875323992324L135.3811764705897,186.90872498603585L135.57176470588456,187.06773501812722L135.2541176470604,187.75676307998629L134.55529411764837,189.0817466771482L134.0470588235312,189.92968760364238L136.71529411764823,188.44576610392278L136.14352941176548,190.19466137017434L138.43058823529464,190.45963143583867L139.25647058823597,190.5656184259351L139.44705882353082,190.19466137017434L143.70352941176498,183.51619312611183L147.6423529411768,184.1523391177352L147.51529411764932,186.0606489542447L148.78588235294046,184.52341441535282L154.12235294117636,185.05350937717276L154.63058823529536,183.83426879212448L159.33176470588296,189.6647101359158L159.39529411764852,184.78846374998693L161.74588235294323,185.53058216437012L163.71529411764823,184.2053503195043L166.51058823529638,189.6647101359158L166.82823529412053,194.3277731428575L175.0235294117665,194.2218071584948L175.1505882352958,195.12249917820554L173.5623529411787,200.31389132955246Z" stroke-width="0.4" stroke-opacity="0.5" fill="#ffffff00" stroke="rgb(86,101,115)" pointer-events="all" style="cursor: pointer;"><title>North Garo Hills</title></path>
        <path d="M29.541176470589562,238.99289769514735L39.76941176470609,242.05847402940753L43.07294117647143,246.44456807495908L45.296470588235024,246.18037389223764L45.48705882352988,246.18037389223764L45.42352941176614,249.98441976101867L45.42352941176614,250.1429053373672L46.37647058823677,250.1429053373672L46.75764705882284,250.1429053373672L46.82117647059022,250.1429053373672L47.13882352941255,247.55414397628283L48.09176470588136,248.98064744033945L51.3952941176467,249.03347886902475L48.79058823529522,272.37079278435885L50.12470588235374,274.0592768628162L48.600000000000364,276.22243162889754L31.764705882353155,281.1282035170975L28.397647058825896,283.92341010057453L25.792941176470777,284.9781002547775L25.6658823529433,286.1381931466444L22.99764705882444,288.29999925883567L13.341176470588834,286.98185347149683L8.512941176470122,290.2506906693252L2.7952941176499735,288.8272324938712L3.494117647058374,285.2417638262905L0.6352941176483,280.600760811948L1.8189894035458565e-12,274.00651396753483L3.811764705884343,264.24289839517587L8.068235294118494,259.80805808133573L8.258823529413348,255.00249577954446L10.16470588235461,254.89686555710114L9.783529411764903,253.1010630779465L7.56000000000131,252.30874400038965L8.89411764705983,248.29382565436526L8.957647058823568,248.29382565436526L22.616470588236552,244.38375708402054L24.141176470589926,241.58281325012786L24.204705882355483,241.58281325012786L27.063529411765558,242.4812737154307Z" stroke-width="0.4" stroke-opacity="0.5" fill="rgb(200, 221, 240)" stroke="rgb(86,101,115)" pointer-events="all" style="cursor: pointer;"><title>South West Garo Hills</title></path>
        <path d="M338.10352941176643,228.68262245133928L338.0400000000027,228.78839704212123L338.357647058825,232.91315025669246L337.658823529413,231.59121072888502L336.3882352941182,233.0717768687773L335.9435294117666,233.54764882368772L335.181176470589,233.54764882368772L292.0447058823538,233.0717768687773L291.2188235294143,228.3124067791823L289.63058823529354,223.18153757395157L288.4870588235299,219.31925328459874L288.29647058823684,218.7371975266028L283.341176470587,217.3613588269609L282.6423529411786,216.67340228752482L285.31058823529565,209.52777115938943L279.7835294117649,203.65046644048334L273.68470588235505,204.8154818200901L272.28705882353097,207.25119268570415L266.7600000000002,205.71567213771868L264.60000000000036,207.35708609043013L256.2776470588251,206.08632636682387L237.66352941176592,209.89835121034366L232.51764705882306,209.10424227537987L231.81882352941284,207.51592509352622L224.38588235294264,207.03940410975292L222.28941176470653,205.29205846758123L220.8282352941169,202.96201473428937L219.93882352941182,201.47911105175854L225.08470588235468,200.57872026326822L232.45411764705932,199.25453870580304L235.75764705882466,201.637999118901L238.36235294117614,198.83078112691874L244.96941176470682,197.2945806984867L240.01411764706063,196.12910441964777L241.34823529411915,193.05614229654748L244.2705882352966,193.37405799308863L244.39764705882408,190.6716048239664L249.03529411764976,186.90872498603585L244.14352941176548,189.71770592557186L244.07999999999993,187.65076039260794L246.55764705882393,185.53058216437012L246.30352941176716,182.34986998497334L251.0682352941203,179.59282059324823L255.26117647059073,170.523535401549L257.80235294117847,172.96365397338832L262.63058823529536,172.32713168310238L261.9317647058833,178.00203248032403L264.02823529411944,181.66064527488743L262.4400000000005,185.0005005483149L259.8352941176472,184.68244446104381L259.51764705882306,185.9016304738766L265.61647058823655,190.9365682288808L268.34823529412097,191.25451943085454L274.5741176470601,184.84147317201086L274.89176470588427,184.04631626920718L275.65411764706005,181.97875210434904L275.8447058823549,181.34253310121312L275.90823529411864,179.43374779943224L275.9717647058824,170.25828612981468L277.11529411764786,166.38522237316602L283.7858823529423,161.44989348157515L285.81882352941284,162.1398558250271L290.77411764705903,156.6194496208841L290.9647058823539,156.72562653600335L298.5247058823534,160.06989302429292L296.80941176470697,169.09114507482764L299.0964705882361,171.63754167131947L303.67058823529624,172.53930816213597L302.9717647058824,174.44878928867183L303.0988235294117,174.60790400929227L304.3694117647083,176.09291016772158L306.0847058823547,173.865357188095L313.6447058823542,171.6905879504052L314.40705882353177,169.62167267834593L323.491764705881,170.57658480890586L330.0988235294117,167.92393187300468L335.181176470589,168.71976688322547L340.5176470588249,163.3604965831978L341.0258823529439,163.67891161288208L341.53411764706107,164.05038901978332L342.67764705882473,164.84638739955062L347.1882352941193,165.16477734688488L354.04941176470857,165.27090613525797L355.5741176470601,165.27090613525797L354.30352941176534,166.43828340981236L354.30352941176534,166.54440503553633L354.1129411764723,170.523535401549L341.40705882352995,179.4867722125946L339.7552941176491,180.6532717219734L338.10352941176643,184.78846374998693L339.31058823529384,187.43875323992324L338.357647058825,190.14166691294668L338.42117647058876,190.14166691294668L341.40705882352995,190.77759062994573L344.13882352941255,188.9757513959521L345.28235294117803,190.9365682288808L348.6494117647071,190.45963143583867L341.66117647058854,196.34101451566994L341.7247058823541,199.7312546911685L337.9129411764716,205.34501069187536L337.4047058823544,212.38634495464976L339.43764705882313,217.2555209733723L336.8964705882354,221.32985487509586L336.8964705882354,221.38276258544101L336.8964705882354,221.38276258544101L336.96000000000095,221.43567014926703L338.4847058823525,224.92724553206517L338.6117647058836,227.78351482151675Z" stroke-width="0.4" stroke-opacity="1" fill="rgb(232, 241, 250)" stroke="rgb(86,101,115)" pointer-events="all" style="cursor: pointer;"><title>Ribhoi</title></path></g><g class="state-borders" fill="none" stroke-width="1.5"></g><g class="district-borders" fill="none" stroke-width="1.5">
        <path d="M291.2188235294143,228.3124067791823L290.9647058823539,228.52395946889965L288.29647058823684,230.692239720649L287.0894117647076,238.62288121440588L284.357647058825,241.7942194962593L277.4329411764702,244.11953455479943L271.0164705882362,251.99180723306472L268.2847058823536,252.62567554668976L266.6329411764709,251.6748652441811L265.9341176470607,247.87115389551127L249.73411764705997,254.36870575025887L250.8141176470599,259.06881882778725L250.432941176472,259.1216225721005L247.89176470588245,259.49124473081065L246.17647058823604,263.2926613278746L236.0752941176488,263.02869827883796L227.88000000000284,262.8175252384003L216.06352941176374,265.08751427408106L212.44235294117607,270.259980224203L210.15529411764692,270.68216118422333L204.69176470588172,262.2367874535753L203.54823529411806,264.4540558314029L201.57882352941306,262.39517222026416L199.0376470588235,262.39517222026416L197.38588235294264,264.5068448293414L195.79764705882553,261.6032353765563L186.71294117647267,266.40715257672355L188.04705882352937,270.0488862843026L191.28705882352915,272.31802528027947L184.2988235294124,278.9128475970142L185.56941176470718,283.34330604851175L185.06117647058818,283.76520162682755L183.72705882353148,285.03083325599073L178.58117647058862,281.4446622451014L174.8964705882372,282.02482315082807L169.75058823529616,275.5365794827767L169.30588235294272,277.8050745577193L167.14588235294286,278.9128475970142L167.78117647058934,281.8665991726225L160.2847058823536,279.96781060114927L155.7105882352953,283.5542549858933L152.0894117647058,283.396043498155L148.08705882353206,286.98185347149683L148.0235294117665,287.03458102309787L148.0235294117665,286.98185347149683L148.9129411764734,280.8644839602357L147.96000000000095,279.38758806331634L143.51294117647012,277.277541298507L139.00235294117738,278.01608383476014L134.87294117647252,275.4838206180675L137.15999999999985,269.521141341917L135.95294117647063,267.410017346157L136.84235294117752,265.0347268648593L135.3811764705897,264.03173864768496L136.5882352941171,262.8175252384003L138.55764705882393,263.97894834965655L140.90823529411864,261.39204672450614L138.55764705882393,261.1808557589907L140.90823529411864,258.4879680894014L140.9717647058842,255.10812542238955L136.77882352941378,248.08249093679024L136.90588235294308,247.81831927209214L136.90588235294308,247.81831927209214L138.30352941176534,243.74961690606506L139.76470588235497,242.74551879030514L140.5905882352945,245.070718647823L142.432941176472,242.00562341383238L142.49647058823575,242.00562341383238L142.49647058823575,242.00562341383238L144.33882352941146,244.01384452516913L145.86352941176483,241.74136815303564L153.16941176470755,238.940038634928L168.98823529411857,217.20260182649554L162.8894117647087,215.35033923178935L162.8894117647087,215.35033923178935L163.07999999999993,213.97425631615351L163.33411764705852,212.49220982610768L165.17647058823604,211.69820896097553L168.79764705882553,207.67476277188507L171.5294117647063,204.02116088835237L171.6564705882356,204.02116088835237L172.4188235294132,204.07411664857773L173.0541176470615,204.12707226144312L178.136470588237,200.26092510019134L178.26352941176447,200.15499219882986L178.32705882353002,200.1020255268254L182.71058823529347,199.51938239571882L181.75764705882648,201.796885858741L178.39058823529558,203.33272259449814L180.29647058823502,204.65662028585166L188.7458823529414,202.750178428259L192.68470588235323,199.89015736325473L197.38588235294264,200.94947457429225L199.6729411764718,198.14215491122832L200.81647058823546,201.05540304979831L198.27529411764954,205.08024809737117L197.13176470588223,211.64527439414132L198.91058823529602,216.40879701511267L203.54823529411806,220.48331158062L211.0447058823538,215.985420947502L219.87529411764626,201.47911105175854L219.87529411764626,201.47911105175854L219.93882352941182,201.47911105175854M338.10352941176643,228.68262245133928L338.0400000000027,228.78839704212123L338.357647058825,232.91315025669246L337.658823529413,231.59121072888502L336.3882352941182,233.0717768687773L335.9435294117666,233.54764882368772L335.181176470589,233.54764882368772L292.0447058823538,233.0717768687773L291.2188235294143,228.3124067791823L289.63058823529354,223.18153757395157L288.4870588235299,219.31925328459874L288.29647058823684,218.7371975266028L283.341176470587,217.3613588269609L282.6423529411786,216.67340228752482L285.31058823529565,209.52777115938943L279.7835294117649,203.65046644048334L273.68470588235505,204.8154818200901L272.28705882353097,207.25119268570415L266.7600000000002,205.71567213771868L264.60000000000036,207.35708609043013L256.2776470588251,206.08632636682387L237.66352941176592,209.89835121034366L232.51764705882306,209.10424227537987L231.81882352941284,207.51592509352622L224.38588235294264,207.03940410975292L222.28941176470653,205.29205846758123L220.8282352941169,202.96201473428937L219.93882352941182,201.47911105175854L225.08470588235468,200.57872026326822L232.45411764705932,199.25453870580304L235.75764705882466,201.637999118901L238.36235294117614,198.83078112691874L244.96941176470682,197.2945806984867L240.01411764706063,196.12910441964777L241.34823529411915,193.05614229654748L244.2705882352966,193.37405799308863L244.39764705882408,190.6716048239664L249.03529411764976,186.90872498603585L244.14352941176548,189.71770592557186L244.07999999999993,187.65076039260794L246.55764705882393,185.53058216437012L246.30352941176716,182.34986998497334L251.0682352941203,179.59282059324823L255.26117647059073,170.523535401549L257.80235294117847,172.96365397338832L262.63058823529536,172.32713168310238L261.9317647058833,178.00203248032403L264.02823529411944,181.66064527488743L262.4400000000005,185.0005005483149L259.8352941176472,184.68244446104381L259.51764705882306,185.9016304738766L265.61647058823655,190.9365682288808L268.34823529412097,191.25451943085454L274.5741176470601,184.84147317201086L274.89176470588427,184.04631626920718L275.65411764706005,181.97875210434904L275.8447058823549,181.34253310121312L275.90823529411864,179.43374779943224L275.9717647058824,170.25828612981468L277.11529411764786,166.38522237316602L283.7858823529423,161.44989348157515L285.81882352941284,162.1398558250271L290.77411764705903,156.6194496208841L290.9647058823539,156.72562653600335L298.5247058823534,160.06989302429292L296.80941176470697,169.09114507482764L299.0964705882361,171.63754167131947L303.67058823529624,172.53930816213597L302.9717647058824,174.44878928867183L303.0988235294117,174.60790400929227L304.3694117647083,176.09291016772158L306.0847058823547,173.865357188095L313.6447058823542,171.6905879504052L314.40705882353177,169.62167267834593L323.491764705881,170.57658480890586L330.0988235294117,167.92393187300468L335.181176470589,168.71976688322547L340.5176470588249,163.3604965831978L341.0258823529439,163.67891161288208L341.53411764706107,164.05038901978332L342.67764705882473,164.84638739955062L347.1882352941193,165.16477734688488L354.04941176470857,165.27090613525797L355.5741176470601,165.27090613525797L354.30352941176534,166.43828340981236L354.30352941176534,166.54440503553633L354.1129411764723,170.523535401549L341.40705882352995,179.4867722125946L339.7552941176491,180.6532717219734L338.10352941176643,184.78846374998693L339.31058823529384,187.43875323992324L338.357647058825,190.14166691294668L338.42117647058876,190.14166691294668L341.40705882352995,190.77759062994573L344.13882352941255,188.9757513959521L345.28235294117803,190.9365682288808L348.6494117647071,190.45963143583867L341.66117647058854,196.34101451566994L341.7247058823541,199.7312546911685L337.9129411764716,205.34501069187536L337.4047058823544,212.38634495464976L339.43764705882313,217.2555209733723L336.8964705882354,221.32985487509586L336.8964705882354,221.38276258544101L336.8964705882354,221.38276258544101L336.96000000000095,221.43567014926703L338.4847058823525,224.92724553206517L338.6117647058836,227.78351482151675L338.10352941176643,228.68262245133928L340.6447058823542,229.3701468413251L348.522352941176,221.5414848373648L348.6494117647071,221.5414848373648L349.9200000000019,222.86411899694576L354.2399999999998,222.59959948877713L361.0376470588235,219.58381821865078L364.2776470588233,220.21875910695326L371.64705882353155,215.35033923178935L371.26588235294184,217.3084399735244L374.8235294117658,216.93800389121088L375.58588235294155,219.2663398579357L378.3811764705897,218.89594176569972L380.28705882353097,220.9065879172681L379.77882352941197,225.45621647425105L384.0988235294135,228.04796262783384L389.181176470589,237.51278893645986L396.16941176470755,237.777102450455L396.55058823529544,244.80650556958926L399.4094117647055,247.13145594947946L400.61647058823655,248.08249093679024L401.4423529411797,247.7126495895177L403.6023529411759,246.76159629900076L406.0164705882362,245.70481520775684L407.985882352943,243.5382321928637L410.27294117647216,241.84707069394972L411.0988235294135,242.95691223139193L411.73411764706,244.5951324900052L411.6070588235307,244.70081932058383L411.4164705882358,244.75366251778223L409.4470588235308,247.18429246127516L409.4470588235308,247.18429246127516L409.0023529411774,250.5655271553278L399.02823529411944,257.69587067751263L397.6941176470591,260.3888690312883L398.01176470588325,262.02560574092786L398.39294117647114,261.76162534748664L399.98117647059007,260.65286822275357L400.23529411764866,260.70566762715725L400.2988235294106,260.70566762715725L402.6494117647071,261.6032353765563L403.7929411764726,270.0488862843026L406.84235294117934,268.6767194392596L406.5247058823552,266.61828633179357L408.55764705882393,269.36281504739736L410.5905882352963,266.8294177774246L411.73411764706,271.15710373720003L413.4494117647064,269.9433384493145L419.865882352944,276.59172655874L422.78823529411966,275.4838206180675L421.9623529411783,277.1720329208024L424.50352941176425,281.1282035170975L429.1411764705899,282.8686625421633L430.6658823529415,290.9887389898654L427.23529411764866,293.30813676991284L428.569411764709,294.88938553577873L426.28235294117803,296.7340131207666L427.6800000000021,299.4215856846231L432.0000000000018,301.7399773390275L428.3152941176468,304.26881688763706L423.4870588235317,303.162490011101L416.4352941176476,307.5347486224823L411.98823529411675,307.9561192891597L410.90823529411864,311.3794183142818L406.90588235294126,314.11762493116976L405.95294117647063,317.8030657304157L391.5952941176474,313.9070072960494L391.5952941176474,313.9596619179438L391.5952941176474,314.27558666578125L391.72235294117854,316.01308137697197L394.0729411764696,320.3298232415468L385.62352941176687,318.8032796547791L384.28941176470653,325.4349823132193L382.1294117647085,327.5398146254465L383.2094117647066,330.1705368161538L380.0329411764724,328.90783427113L377.6188235294121,331.380550379115L365.92941176470595,328.11860383331486L364.2776470588233,323.01414519715036L359.0682352941185,324.64561182344687L346.2988235294142,318.329500495769L348.522352941176,317.223971099741L344.9647058823539,316.1710277734319L348.58588235294155,310.06283598035134L349.9835294117638,304.2161360809864L347.76000000000204,300.21197751751515L345.7270588235315,299.8431319925053L344.90117647059014,289.5126142800618L340.8352941176472,282.4467474410949L341.2164705882369,279.5985800890835L354.8752941176481,272.84569383848293L370.0588235294126,271.26264494134284L381.17647058823786,268.72949688987865L387.2752941176477,265.56259445875276L393.43764705882495,266.6710694097055L394.9623529411765,262.8703187152887L395.1529411764732,262.923112047657L398.01176470588325,263.18707654177797L398.0752941176488,263.1342839319732L398.2023529411781,263.02869827883796L398.39294117647114,261.76162534748664M335.181176470589,233.54764882368772L335.3082352941201,233.86489022653586L335.37176470588383,233.86489022653586L336.0070588235285,236.0854329925137L331.24235294117534,246.18037389223764L332.51294117647194,249.03347886902475L329.7811764705875,257.1149785406383L331.8141176470599,260.8112660020897L329.7176470588256,264.03173864768496L332.38588235294264,270.5238444053721L330.73411764705816,272.4235601443743L332.195294117646,275.4310616094431L332.0682352941185,282.39400740737165L333.27529411764954,283.1850928383292L332.13176470588223,287.2454897959092L322.538823529414,284.8726338219749L314.3435294117662,291.25232087471795L313.835294117649,296.8921159099091L319.10823529411755,303.9000482476472L318.9176470588245,305.6911447959433L318.40941176470733,305.9545274539337L313.58117647059044,308.7461647326754L308.371764705882,306.9026755361688L279.402352941177,308.7461647326754L278.95764705882357,312.4326201898889L273.30352941176534,311.116108958714L271.7788235294138,313.7490425778883L264.2188235294143,316.32897289214816L260.8517647058834,312.7485696640283L258.31058823529565,312.69591177368693L258.56470588235425,308.4301503985125L242.68235294117767,314.64415907450984L239.50588235294344,314.4335471218369L238.87058823529696,312.27464353383857L234.93176470588332,311.8533661959668L231.2470588235301,308.6408271906166L229.78588235294228,309.6415108567862L226.2917647058839,307.90344845411937L222.60705882353068,298.7365534456858L227.11764705882342,297.8934037132117L229.59529411764743,294.04606887941145L232.51764705882306,294.30960926726493L234.7411764705903,292.51746410793885L240.6494117647071,294.04606887941145L243.06352941176556,290.88330523373224L248.40000000000146,291.99033111305243L250.62352941176505,290.30340933727166L250.87764705882364,283.396043498155L247.19294117647223,280.38977970727683L251.7670588235287,267.5683596525978L250.432941176472,259.1216225721005M148.08705882353206,286.98185347149683L148.34117647058883,287.2454897959092L151.39058823529558,289.0908437383878L157.10823529411937,288.669064027873L159.1411764705881,291.8849027966612L161.42823529411908,291.77947390774943L161.42823529411908,291.7267592485978L161.6188235294121,291.9376170264195L164.79529411764634,296.0488861722165L165.36705882353272,296.7340131207666L165.17647058823604,297.5245142070321L164.09647058823612,301.845352213933L166.76470588235497,304.00541142895827L166.955294117648,308.58815820609107L150.31058823529384,310.6421431591334L145.22823529411835,310.06283598035134L139.51058823529456,306.79732802812214L136.71529411764823,309.79950884517166L133.9200000000019,309.79950884517166L133.34823529411733,311.6427241148731L130.93411764705888,309.85217455674274L126.99529411764706,310.6421431591334L124.32705882353002,309.4308448803181L121.46823529411813,305.3224030909323L118.73647058823553,308.48281981004175L100.50352941176607,309.2728439039056L90.97411764705976,313.22248428136254L81.25411764706041,310.3261595589802L74.64705882352973,305.5331134915282L70.77176470588347,306.32325719195796L60.48000000000138,303.5839552822995L59.8447058823549,298.57846565580394L62.44941176470638,295.62725758267607L64.48235294117694,284.8199003903742L71.3435294117644,277.75232187895654L72.04235294117825,274.6924203762287L70.58117647059044,269.25726346334613L72.86823529411777,261.9200140172502L72.99529411764888,261.9728099513718L73.37647058823859,262.2367874535753L80.11058823529493,262.8703187152887L90.59294117647187,262.50076134200754L101.71058823529347,266.8294177774246L119.94352941176658,269.62669148391797L124.89882352941277,259.1216225721005L136.90588235294308,247.81831927209214M60.48000000000138,303.5839552822995L49.74352941176585,300.4754343248055L42.945882352943954,300.3173606686096L35.32235294117709,295.2583250619532L23.887058823531333,290.5670005289967L22.99764705882444,288.29999925883567L25.6658823529433,286.1381931466444L25.792941176470777,284.9781002547775L28.397647058825896,283.92341010057453L31.764705882353155,281.1282035170975L48.600000000000364,276.22243162889754L50.12470588235374,274.0592768628162L48.79058823529522,272.37079278435885L51.3952941176467,249.03347886902475L48.09176470588136,248.98064744033945L47.13882352941255,247.55414397628283L46.82117647059022,250.1429053373672L46.75764705882284,250.1429053373672L46.37647058823677,250.1429053373672L45.42352941176614,250.1429053373672L45.42352941176614,249.98441976101867L45.48705882352988,246.18037389223764L45.296470588235024,246.18037389223764L43.07294117647143,246.44456807495908L39.76941176470609,242.05847402940753L29.541176470589562,238.99289769514735L29.223529411765412,238.88717942903713L27.254117647058592,235.82109615437912L24.204705882355483,235.82109615437912L19.44000000000233,231.11529015877932L19.312941176471213,230.95664733992635L18.614117647059174,227.41328175172657L14.230588235293908,222.33507631904877L12.070588235294053,219.84837948749737L11.49882352941313,217.14968253289499L11.435294117647572,216.99092377173065L11.435294117647572,216.88508386395915L14.294117647059466,217.57303277357823L15.755294117647281,217.8905392923898L17.40705882353177,216.93800389121088L17.597647058824805,216.8321636899659L17.280000000002474,215.35033923178935L20.77411764705903,211.22179256751315L19.185882352943736,203.9152489258122L20.520000000000437,203.33272259449814L20.01176470588325,204.6036661464491L21.155294117648737,204.76252812267103L21.40941176470733,202.69721898319722L22.489411764705437,203.75637987673917L27.190588235294854,201.69096151298936L28.90588235294308,199.04266109719765L29.92235294117745,197.45350374299824L29.92235294117745,197.08268123813468L29.28705882353097,196.39399167033116L27.889411764705073,194.96355663172653L27.825882352943154,194.91057548729623L28.397647058825896,194.38075591328652L29.60470588235512,193.2680866857877L30.30352941176534,192.6322464189143L32.781176470589344,193.9039056571969L35.385882352942645,189.770701567169L39.13411764706143,188.81675736344732L39.960000000000946,185.7956174124165L41.92941176470595,184.1523391177352L43.581176470590435,182.72098059317705L44.34352941176439,182.50891827893975L48.536470588236625,181.236494522288L49.552941176472814,182.72098059317705L52.22117647058985,182.4559023293641L53.68235294117767,184.84147317201086L56.03294117647238,182.13780351517516L57.2400000000016,183.4631799958688L73.63058823529536,180.1230535838772L78.9035294117657,174.60790400929227L79.09411764705874,174.44878928867183L79.34823529411733,174.44878928867183L85.06588235294294,174.39575075086304L85.31999999999971,174.39575075086304L85.70117647058942,175.13827674012828L87.73411764705816,177.20658826602767L89.13176470588405,177.20658826602767L89.4494117647082,177.20658826602767L89.4494117647082,178.85046944919486L86.65411764706005,188.2867676280971L82.01647058823619,197.13565632476548L82.20705882353104,201.4261480677419L76.23529411764684,203.49159518073475L75.72705882352966,207.25119268570415L83.35058823529471,208.204212133086L84.87529411764808,214.18596784168267L84.87529411764808,214.29182272321577L84.62117647058949,214.66231018249846L82.65176470588267,217.14968253289499L85.447058823529,220.48331158062L86.46352941176701,230.90376610819658L83.35058823529471,233.33615163650074L84.2400000000016,235.23954227761396L81.88941176470689,242.26987503651617L83.03294117647056,248.7693202736932L82.71529411764823,249.40329480475293L82.01647058823619,250.5655271553278L81,252.41438842924026L77.25176470588485,253.99898526234392L76.48941176470726,254.57997141199985L72.67764705882473,260.3888690312883L72.99529411764888,261.9728099513718M84.62117647058949,214.66231018249846L89.4494117647082,217.3084399735244L96.94588235294032,221.38276258544101L99.04235294117643,221.17113086490963L101.2023529411781,217.5201145069882L105.14117647058993,210.95711164802697L109.01647058823619,211.8040776536768L112.51058823529456,217.0967630925702L116.95764705882539,218.2609568899752L124.9623529411765,210.74536426598297L135.00000000000182,207.886544282444L139.38352941176527,205.66272094445912L144.78352941176672,205.13320091088326L146.43529411764757,204.9743420284126L147.07058823529587,204.86843537018558L155.52000000000044,214.66231018249846L161.36470588235352,215.9324982785556L162.8894117647087,215.35033923178935M344.9647058823539,316.1710277734319L343.1858823529419,314.4335471218369L343.50352941176607,316.64485929664033L341.4705882352955,316.4869167331958L335.62588235294425,313.2751407504702L333.72000000000116,309.6415108567862L327.8117647058825,306.79732802812214L318.3458823529436,306.1652310160662L318.40941176470733,305.9545274539337M222.60705882353068,298.7365534456858L226.8000000000011,309.37817803047574L214.09411764705874,306.5866313030019L209.64705882352973,303.1098062105666L207.80470588235403,304.58489873431654L190.84235294117752,305.3224030909323L183.15529411764692,303.9000482476472L166.955294117648,308.58815820609107M89.4494117647082,177.20658826602767L95.54823529411806,174.28967322882818L104.06117647058818,183.940292827343L100.24941176470566,191.6784460798608L100.9482352941177,192.52627097039613L106.09411764706056,189.45272549666515L105.33176470588296,188.12776781911907L110.0964705882343,186.00764294236296L111.68470588235505,182.61494973286835L116.95764705882539,185.6365967083584L114.35294117647209,189.29373546249053L116.64000000000124,192.31431829828216L117.97411764706158,188.86975552238027L118.80000000000109,188.39276676010695L130.4258823529417,183.14509809868468L130.48941176470908,183.092083929846L131.4423529411797,184.41739364333944L134.0470588235312,183.19811211914475L133.79294117647078,185.5835895104933L134.68235294117767,187.43875323992324L135.3811764705897,186.90872498603585L135.57176470588456,187.06773501812722L135.2541176470604,187.75676307998629L134.55529411764837,189.0817466771482L134.0470588235312,189.92968760364238L136.71529411764823,188.44576610392278L136.14352941176548,190.19466137017434L138.43058823529464,190.45963143583867L139.25647058823597,190.5656184259351L139.44705882353082,190.19466137017434L143.70352941176498,183.51619312611183L147.6423529411768,184.1523391177352L147.51529411764932,186.0606489542447L148.78588235294046,184.52341441535282L154.12235294117636,185.05350937717276L154.63058823529536,183.83426879212448L159.33176470588296,189.6647101359158L159.39529411764852,184.78846374998693L161.74588235294323,185.53058216437012L163.71529411764823,184.2053503195043L166.51058823529638,189.6647101359158L166.82823529412053,194.3277731428575L175.0235294117665,194.2218071584948L175.1505882352958,195.12249917820554L173.5623529411787,200.31389132955246L172.4188235294132,204.07411664857773M22.99764705882444,288.29999925883567L13.341176470588834,286.98185347149683L8.512941176470122,290.2506906693252L2.7952941176499735,288.8272324938712L3.494117647058374,285.2417638262905L0.6352941176483,280.600760811948L1.8189894035458565e-12,274.00651396753483L3.811764705884343,264.24289839517587L8.068235294118494,259.80805808133573L8.258823529413348,255.00249577954446L10.16470588235461,254.89686555710114L9.783529411764903,253.1010630779465L7.56000000000131,252.30874400038965L8.89411764705983,248.29382565436526L8.957647058823568,248.29382565436526L22.616470588236552,244.38375708402054L24.141176470589926,241.58281325012786L24.204705882355483,241.58281325012786L27.063529411765558,242.4812737154307L29.541176470589562,238.99289769514735" stroke="rgba(0, 123, 255, 0.18823529411764706)"></path></g></svg>