<svg xmlns="http://www.w3.org/2000/svg" viewBox="265 901 249 212" preserveAspectRatio="xMidYMid meet" pointer-events="auto">
	<g class="regionsUT">
		<path title="Pondicherry" d="M 418.95525,1073.2292 C 418.33678,1072.8541 418.17209,1072.7367 417.94522,1072.5098 L 417.67415,1072.2386 L 417.52296,1071.4866 L 417.37176,1070.7345 L 417.0782,1070.145 L 416.78464,1069.5555 L 416.22023,1068.9879 C 415.90981,1068.6757 415.66275,1068.4136 415.6712,1068.4055 C 415.67966,1068.3974 416.44311,1068.3278 417.36775,1068.2509 L 419.04891,1068.1111 L 420.7895,1068.1116 C 422.20876,1068.112 422.5301,1068.1204 422.5301,1068.157 C 422.5301,1068.3281 422.23387,1069.6044 422.10731,1069.9787 C 421.9551,1070.4287 421.95273,1070.4425 421.95273,1070.8789 L 421.95273,1071.322 L 421.66404,1071.7542 L 421.37536,1072.1865 L 421.37536,1072.4855 L 421.37536,1072.7846 L 421.07819,1073.2248 L 420.78101,1073.665 L 420.2376,1073.6712 L 419.6942,1073.6775 L 418.95525,1073.2292 z M 415.40974,1073.3986 L 415.28139,1073.1392 L 415.3928,1072.7993 C 415.45408,1072.6123 415.51839,1072.4594 415.53572,1072.4594 C 415.56242,1072.4594 416.00923,1073.3082 416.00923,1073.3589 C 416.00923,1073.3685 415.96778,1073.3764 415.91712,1073.3764 C 415.85483,1073.3764 415.77856,1073.4219 415.68155,1073.5171 L 415.53809,1073.6579 L 415.40974,1073.3986 z M 416.79038,1075.6886 C 416.79038,1075.5178 416.76032,1075.482 416.61693,1075.482 L 416.48471,1075.482 L 416.48471,1075.2275 L 416.48471,1074.973 L 417.02812,1074.7009 L 417.57152,1074.4288 L 417.57152,1075.1083 L 417.57152,1075.7877 L 417.18095,1075.7877 L 416.79038,1075.7877 L 416.79038,1075.6886 z" fill="#f2f0f0" stroke-width="0.4" id="Puducherry" stroke-opacity="0.5" stroke="rgb(86, 111, 105)" pointer-events="all" style="cursor: pointer;"><title>Puducherry</title></path>
		<path title="Karaikal" d="M 417.26608,1107.1698 L 417.02812,1106.6948 L 417.02812,1106.3284 L 417.02812,1105.962 L 417.27435,1105.7205 C 417.40977,1105.5877 417.6926,1105.365 417.90285,1105.2258 L 418.28511,1104.9726 L 418.95569,1105.0845 C 419.32451,1105.146 419.67594,1105.2054 419.73665,1105.2165 L 419.84703,1105.2366 L 419.84703,1106.4407 L 419.84703,1107.6449 L 418.67554,1107.6449 L 417.50405,1107.6449 L 417.26608,1107.1698 z" fill="#f2f0f0" stroke-width="0.4" id="Karaikal" stroke-opacity="0.5" stroke="rgb(86, 111, 105)" pointer-events="all" style="cursor: pointer;" ><title>Karaikal</title></path>
		<path title="Yanam" d="M 506.31708,908.20688 L 505.7952,907.68455 L 505.66287,907.28912 C 505.54147,906.92635 505.53054,906.8758 505.53054,906.6772 L 505.53054,906.46072 L 505.74017,906.25011 L 505.94981,906.0395 L 506.29894,906.0395 L 506.64807,906.0395 L 507.34411,906.31731 L 508.04014,906.59513 L 508.46226,907.01536 C 508.85634,907.40769 508.8914,907.44992 508.99007,907.65123 L 509.09576,907.86685 L 508.98822,908.18246 L 508.88068,908.49806 L 508.53309,908.61364 L 508.1855,908.72922 L 507.51223,908.72922 L 506.83897,908.72922 L 506.31708,908.20688 z" fill="#f2f0f0" stroke-width="0.4" id="Yanam" stroke-opacity="0.5" stroke="rgb(86, 111, 105)" pointer-events="all" style="cursor: pointer;" ><title>Yanam</title></path>
		<path title="Mahe" d="M 271.79127,1073.0215 C 271.76698,1072.9653 271.52376,1072.4169 271.25078,1071.8027 C 270.82341,1070.8411 270.72739,1070.645 270.55971,1070.3914 C 270.4526,1070.2294 270.37123,1070.0905 270.3789,1070.0829 C 270.42474,1070.037 271.34938,1069.8368 272.09147,1069.712 L 272.95819,1069.5663 L 274.18595,1070.2462 L 275.4137,1070.9261 L 275.41456,1071.135 L 275.41542,1071.3439 L 275.5415,1071.3511 L 275.66758,1071.3584 L 275.55951,1071.4154 C 275.50007,1071.4467 275.44807,1071.4753 275.44396,1071.4789 C 275.43984,1071.4825 275.49175,1071.5956 275.55931,1071.7302 L 275.68215,1071.975 L 275.58335,1072.2715 C 275.49346,1072.5412 275.47872,1072.5692 275.41996,1072.5809 C 275.38444,1072.588 274.96633,1072.6488 274.49083,1072.7159 C 274.01533,1072.7831 273.24047,1072.9023 272.76893,1072.9808 C 272.2974,1073.0593 271.89445,1073.1235 271.87351,1073.1235 C 271.85164,1073.1235 271.81662,1073.0801 271.79127,1073.0215 z" fill="#f2f0f0" stroke-width="0.4" id="Mahe" stroke-opacity="0.5" stroke="rgb(86, 111, 105)" pointer-events="all" style="cursor: pointer;" ><title>Mahe</title></path>
	</g>
</svg>