<svg id="tr_state" width="100%" viewBox="0 0 432 488" preserveAspectRatio="xMidYMid meet" pointer-events="auto" class="">
	<g class="regions">
		<path d="M312.2890863572902,165.88002324298668L312.2890863572902,165.88002324298668L311.0816996945032,183.391354528816L313.06526349765045,183.8845196133234L322.2069053730447,183.76122891617524L325.1391301255244,186.47353587693942L331.8659986753373,208.4117648765532L332.2109662932817,230.33792327760602L336.60930342200663,239.44975154438725L337.7304481803076,252.49821640282698L337.7304481803076,252.74437300048612L326.5190005972836,244.12799206597265L321.94817965958646,245.11281514025177L318.2397777667429,257.7902501780691L310.13303874516714,264.8041955989793L309.2706197003172,271.44785568065254L305.04476638056803,272.43200816752596L290.2111588091793,265.66547280661507L283.7430159728174,246.34380992082242L276.67117980506373,243.1431447649975L276.9299055185147,255.32892601179265L270.6342464911286,258.28249688362393L278.5685017037322,305.26429692735655L276.06748647366476,308.2142041180059L280.8970331248165,315.09648286844913L280.8970331248165,322.1004558203349L271.4966655359749,326.1548331221584L272.10035886736296,338.68397799483864L262.09629794712964,334.63085524680264L260.37145985743336,339.6664921616766L252.60968845380194,343.10510424027325L251.14357607755665,341.26302689445674L250.0224313192557,344.4559077832364L247.95262561162235,337.0873416726081L250.62612465065104,333.0340591883041L240.10461230350484,323.5748218558001L239.5009189721095,318.0456720253851L233.20525994471973,311.6554900917681L232.34284089986613,310.79519609265844L233.11901804023364,307.3538367912015L229.84182566980962,303.1746488599156L226.99584282181604,300.59316944522925L226.82335901284387,299.3638354562663L223.3736828334513,272.1859723057214L218.71661999127173,269.8485564692046L223.3736828334513,263.5737675303626L222.33877997963282,259.75920075445447L222.76998950205598,258.77473754784296L222.94247331102815,258.405557616029L225.87469806350782,252.25205829327388L223.977376164843,243.38935886173022L227.6857780576902,218.63725917933425L224.40858568726617,188.9391088413504L226.39214949041707,184.87083141623225L218.80286189575781,175.49988011699952L217.25050761502644,164.27648681483424L219.1478295136949,129.476078291289L216.1293628567255,121.94429499540911L219.4065552271495,119.10406866247376L220.0102485585412,118.48660106420084L217.16426571054035,87.23008365253827L236.5686942196262,97.98117611092675L243.64053038737984,92.6677856536071L245.36536847707976,95.75705360699158L242.51938562907526,102.05840713424277L248.90128656095476,106.50581334462004L255.3694293973167,118.85708278442235L261.1476369977936,120.3389748300724L266.7533607893092,129.10569634802778L267.01208650276385,129.476078291289L279.7758883665156,139.47507712415518L279.5171626530573,144.16509318861063L286.4165150118497,137.62360171480032L288.9175302419062,139.5985057324233L290.2974007136654,132.06865454520903L296.8517854545098,134.90794741988975L302.6299930549867,131.94520239552457L309.01189398686984,133.30315480366517L305.04476638056803,153.9136093792249L309.0981358913559,155.76432213699354L312.7202958797134,157.6149483693298L312.80653778419946,157.6149483693298Z" stroke-width="0.4" stroke-opacity="0.5" fill="#f2f0f0" stroke="rgb(86,111,105)" id="Dhalai" pointer-events="all" style="cursor: pointer;"><title>Dhalai</title></path>
		<path d="M125.23039552973569,354.76965228814333L121.0045422099829,356.73387804200866L116.08875365434506,360.5392952386892L116.08875365434506,369.8671984304983L113.32901271083028,370.35808146241743L111.86290033458863,375.02117505800106L108.41322415519608,379.3156573641345L105.39475749822668,382.0148145891899L101.08266227398781,384.22308302260535L97.02929276320356,384.59111613362256L92.02726230308326,384.3457610953674L93.40713277483883,379.6837347851797L95.90814800489898,380.78794710146576L95.30445467350728,377.22982250244604L88.23261850575363,373.1805440185499L90.30242421338698,365.8171874465079L95.21821276902483,365.2035142443556L98.06419561701841,358.32974154284784L89.44000516853703,360.7847937902825L87.97389279229537,354.1558122602528L90.73363373581014,352.43701082050575L86.85274803399443,352.06868676065733L86.85274803399443,341.26302689445674L80.38460519763612,330.8230068582998L78.74600901241865,320.3802941758004L74.95136521508903,320.8717763981458L74.1751880747288,316.81686936472033L69.60436713703166,318.0456720253851L70.29430237291308,313.13023717284887L63.91240144103358,312.02418191015386L67.01711000248906,301.8224659619873L61.41138621097707,302.68295123219104L56.6680814643114,288.4211107878864L52.35598624006889,287.314377607554L51.23484148177158,264.065943284033L55.115727183587296,268.2491935785938L60.893934784064186,268.7413120207366L60.80769287958174,271.20181379218593L67.44831952490858,268.2491935785938L63.39495001412797,265.91154861492487L65.29227191279278,258.1594357736285L50.28618053243554,257.6671875576676L51.23484148177158,242.03516258761465L65.72348143521594,238.95727335745232L70.72551189533624,245.23591632130683L75.46881664199827,242.6507120281667L84.86918423084353,247.94404656723236L90.56114992684161,241.1733774658751L95.30445467350728,248.31332286770885L96.42559943181186,235.87914731926685L111.34544890768302,241.1733774658751L115.8300279408868,239.94222366956456L116.34747936779968,232.80078434252027L129.6287326584643,234.40156266840222L131.09484503469866,239.08039347250178L140.40897071906147,240.55780530252287L149.46437068996602,238.21854471009738L165.5916068286242,227.3822896295178L165.6778487331103,227.998064670428L165.85033254208247,228.9832849952072L167.1439611093556,236.61791917230858L167.57517063177875,239.44975154438725L166.9714773003834,243.63557144408787L166.71275158693243,244.0048874783397L158.17480304292985,246.71310097597325L158.4335287563881,251.63665640438649L156.70869066669184,253.11360506230722L154.98385257699556,254.59049929788216L149.80933830790673,253.4828337227318L148.68819354960578,258.77473754784296L137.21802025312718,266.40369570682014L128.85255551810042,282.8871405744576L118.93473650234591,290.38856133688387L120.22836506961539,307.3538367912015L112.6390774749525,310.9180963574245L117.46862412610426,322.83764555607013L113.0702869973793,333.4025561737935L116.43372127228213,336.71887820306165L115.39881841847091,345.92946034477336L125.05791172076351,352.55978476465134Z" stroke-width="0.4" stroke-opacity="0.5" fill="#f2f0f0" stroke="rgb(86,111,105)" pointer-events="all" style="cursor: pointer;"><title>Sipahijala</title></path>
		<path d="M222.94247331102815,258.405557616029L222.76998950205598,258.77473754784296L222.33877997963282,259.75920075445447L223.3736828334513,263.5737675303626L218.71661999127173,269.8485564692046L223.3736828334513,272.1859723057214L226.82335901284387,299.3638354562663L226.99584282181604,300.59316944522925L229.84182566980962,303.1746488599156L233.11901804023364,307.3538367912015L232.34284089986613,310.79519609265844L233.20525994471973,311.6554900917681L231.4804218550198,319.64305964048435L239.0697094496827,326.40053990067827L244.24422371877154,339.5436791932252L242.69186943804743,355.8745409613657L233.20525994471973,367.78087948262964L222.0800542661782,374.6530555058698L220.78642569890508,382.8735998599641L224.75355330520688,386.92191537621966L220.6139418899329,387.9032646846799L215.95687904775696,389.00725443976535L215.78439523878478,388.76192596473174L209.488736211395,380.78794710146576L211.29981620557737,373.4259662977711L195.17258006691918,360.29379520435396L186.20342200049708,361.64402704517124L178.01044107443886,345.92946034477336L177.83795726547032,345.8066663423524L175.33694203541017,351.20925096001065L168.86879919904823,351.94591133154245L162.91810778959916,344.8243009419248L136.52808501724576,348.2624757832218L136.35560120827358,349.121973976311L135.57942406791335,353.29642063412484L134.88948883203557,356.73387804200866L131.18108693918475,356.73387804200866L127.04147552391441,353.91027365134414L125.23039552973569,354.76965228814333L125.05791172076351,352.55978476465134L115.39881841847091,345.92946034477336L116.43372127228213,336.71887820306165L113.0702869973793,333.4025561737935L117.46862412610426,322.83764555607013L112.6390774749525,310.9180963574245L120.22836506961539,307.3538367912015L118.93473650234591,290.38856133688387L128.85255551810042,282.8871405744576L137.21802025312718,266.40369570682014L148.68819354960578,258.77473754784296L149.80933830790673,253.4828337227318L154.98385257699556,254.59049929788216L156.70869066669184,253.11360506230722L158.4335287563881,251.63665640438649L158.17480304292985,246.71310097597325L166.71275158693243,244.0048874783397L166.9714773003834,243.63557144408787L167.57517063177875,239.44975154438725L167.1439611093556,236.61791917230858L168.09262205868436,236.4947914778122L168.1788639631668,235.632887002198L169.81746014838427,236.24853495162915L189.04940484849794,233.90902231769542L201.89944861672848,237.2335519591761L208.7988009755136,233.90902231769542L216.30184666569403,245.97451546014508L214.1457990535746,253.9751333126278L220.35521617648192,260.0053127811134Z" stroke-width="0.4" stroke-opacity="0.5" fill="#f2f0f0" stroke="rgb(86,111,105)" pointer-events="all" style="cursor: pointer;"><title>Gomati</title></path>
		<path d="M219.4065552271495,119.10406866247376L216.1293628567255,121.94429499540911L219.1478295136949,129.476078291289L217.25050761502644,164.27648681483424L218.80286189575781,175.49988011699952L226.39214949041707,184.87083141623225L224.40858568726617,188.9391088413504L227.6857780576902,218.63725917933425L223.977376164843,243.38935886173022L225.87469806350782,252.25205829327388L222.94247331102815,258.405557616029L220.35521617648192,260.0053127811134L214.1457990535746,253.9751333126278L216.30184666569403,245.97451546014508L208.7988009755136,233.90902231769542L201.89944861672848,237.2335519591761L189.04940484849794,233.90902231769542L169.81746014838427,236.24853495162915L168.1788639631668,235.632887002198L168.09262205868436,236.4947914778122L167.1439611093556,236.61791917230858L165.85033254208247,228.9832849952072L165.6778487331103,227.998064670428L165.76409063759638,227.8749104215558L162.05568874475284,190.66491892653448L156.44996495323358,189.8020232486988L158.86473827881127,182.40500599102597L156.1912392397826,182.77488956301022L153.00028877384102,177.22627419154196L153.7764659142049,173.15679658939098L146.79087165094097,161.56266194209275L145.49724308366422,149.22474961768876L139.28782596076053,143.79484899942963L143.85864689845403,132.80935933388628L146.35966212851054,136.5126748048133L158.86473827881127,140.21564298900012L170.50739538426205,139.84536179198494L174.04331346813706,136.2657979137539L173.26713632777683,133.0562578409972L177.83795726547032,134.5376164527379L184.4785839108008,130.95757129458616L186.89335723637487,110.21160111830613L191.72290388752663,105.64107930213504L189.04940484849794,95.75705360699158L193.62022578619144,91.30843076351175L199.0534657687349,112.68193244837312L203.79677051540057,112.92895705511091L211.38605811006346,119.22756102089443Z" stroke-width="0.4" stroke-opacity="0.5" fill="#f2f0f0" stroke="rgb(86,111,105)" pointer-events="all" style="cursor: pointer;"><title>Khowai</title></path>
		<path d="M165.6778487331103,227.998064670428L165.5916068286242,227.3822896295178L149.46437068996602,238.21854471009738L140.40897071906147,240.55780530252287L131.09484503469866,239.08039347250178L129.6287326584643,234.40156266840222L116.34747936779968,232.80078434252027L115.8300279408868,239.94222366956456L111.34544890768302,241.1733774658751L96.42559943181186,235.87914731926685L95.30445467350728,248.31332286770885L90.56114992684161,241.1733774658751L84.86918423084353,247.94404656723236L75.46881664199827,242.6507120281667L70.72551189533624,245.23591632130683L71.24296332224549,226.5201886255145L76.76244520927139,215.06479410800694L68.82818999666779,199.9090551541476L69.25939951909459,195.71864621478198L75.46881664199827,192.3906541052038L72.62283379400469,187.33650381305142L82.62689471424164,186.3502532134271L79.52218615278616,180.43223542523265L80.64333091109074,176.97965106425454L85.90408708466202,168.2235367168978L86.93898993848052,172.6634982136584L89.52624707302311,171.55355443833196L91.5960527806601,163.53637119325685L113.76022223325708,170.56691167275676L112.12162604804325,162.05609847340475L118.76225269337738,148.23755042153152L113.50149651980246,138.36420229349278L112.81156128392104,130.21683174643022L120.40084887858757,128.98223492751913L128.0763783777329,129.84645675734646L130.31866789434207,133.79694409594777L130.23242598985962,131.57484362930336L142.30629261772629,134.0438364256952L139.28782596076053,143.79484899942963L145.49724308366422,149.22474961768876L146.79087165094097,161.56266194209275L153.7764659142049,173.15679658939098L153.00028877384102,177.22627419154196L156.1912392397826,182.77488956301022L158.86473827881127,182.40500599102597L156.44996495323358,189.8020232486988L162.05568874475284,190.66491892653448L165.76409063759638,227.8749104215558Z" stroke-width="0.4" stroke-opacity="0.5" fill="#f2f0f0" stroke="rgb(86,111,105)" id="West Tripura" pointer-events="all" style="cursor: pointer;"><title>West Tripura</title></path>
		<path d="M97.02929276320356,384.59111613362256L101.08266227398781,384.22308302260535L105.39475749822668,382.0148145891899L108.41322415519608,379.3156573641345L111.86290033458863,375.02117505800106L113.32901271083028,370.35808146241743L116.08875365434506,369.8671984304983L116.08875365434506,360.5392952386892L121.0045422099829,356.73387804200866L125.23039552973569,354.76965228814333L127.04147552391441,353.91027365134414L131.18108693918475,356.73387804200866L134.88948883203557,356.73387804200866L135.57942406791335,353.29642063412484L136.35560120827358,349.121973976311L136.52808501724576,348.2624757832218L162.91810778959916,344.8243009419248L168.86879919904823,351.94591133154245L175.33694203541017,351.20925096001065L177.83795726547032,345.8066663423524L178.01044107443886,345.92946034477336L186.20342200049708,361.64402704517124L195.17258006691918,360.29379520435396L211.29981620557737,373.4259662977711L209.488736211395,380.78794710146576L215.78439523878478,388.76192596473174L215.95687904775696,389.00725443976535L220.6139418899329,387.9032646846799L225.61597235005684,386.92191537621966L225.61597235005684,394.89469545858265L229.6693418608411,400.1681406025127L229.06564852944575,406.91225310300524L236.13748469720304,425.05452878299275L235.87875898374477,439.1460255735328L242.00193420216965,440.86118191089554L233.72271137162534,450.04830075838436L224.92603711417541,448.21104121384906L226.56463329938924,460.58033909610276L223.3736828334513,456.78421725139924L224.14985997381154,459.35582189380784L209.488736211395,473.3131617340787L202.2444162346692,473.0683368309883L199.57091719564414,476.37335048044133L190.34303341576742,476.7405578837215L188.7044372305536,474.0476277279995L181.28763344486288,487.9999999999991L178.35540869237957,482.4930475744168L175.76815155783333,483.22735029887554L179.56279535516296,482.00350517408333L177.5792315520157,477.96455897256055L172.92216870983611,476.4957533111383L169.21376681698894,479.9228852471033L163.86676873892793,476.00613981064L163.78052683444912,470.37516700658944L159.64091541917514,469.5182124596977L161.27951160438533,463.51903188597953L158.5197706608742,463.51903188597953L161.88320493578067,457.6414366434219L156.27748114426868,457.6414366434219L156.10499733530014,441.35121342650564L150.93048306620767,437.5533162712927L152.6553211559076,431.0593234551625L148.6019516451197,429.466300340152L151.9653859200298,425.05452878299275L147.30832307784658,425.78985700521207L149.72309640342064,422.2356483990443L145.15227546572714,421.13255547038534L147.22208117336413,416.96504746225037L145.41100117918177,415.12630616877505L149.80933830790673,413.28748229355006L148.6019516451197,410.71299007824564L139.46030976972907,409.36438189250475L142.82374404463917,408.2609421282068L140.75393833700218,402.0075543634066L133.768344073731,402.37542718120403L139.37406786524662,399.80024791439973L135.83814978136797,394.15881176615676L131.95726407955226,394.0361631946171L134.80324692754948,389.7432310144595L124.71294410282644,391.21514434297023L125.1441536252496,385.8178691818275L122.03944506379776,382.13749930697486L122.72938029967918,391.21514434297023L119.71091364270978,388.1485983231132L118.84849459786346,390.96982914156433L122.03944506379776,393.66821526932745L117.46862412610426,394.15881176615676L119.88339745167468,399.3097191774432L115.74378603640798,399.80024791439973L117.29614031713209,402.1301790039033L114.19143175568024,405.56351960073334L116.08875365434506,405.80874718257746L113.93270604222562,412.9197076062637L120.48709078307002,434.61276755741164L119.6246717382237,439.88110134418093L124.45421838937182,444.04628230652816L124.02300886694866,450.1707818101222L118.41728507543667,452.252903898524L111.0867231942284,447.84357945562897L104.61858035786281,438.1659040818231L100.7376946560471,422.6033394436454L97.97795371253233,421.00998775639346L96.68432514526285,394.6494023680625L98.92661466186837,392.19639040406037L96.51184133629795,392.0737359364848L94.26955181968879,384.8364696955896Z" stroke-width="0.4" stroke-opacity="0.5" fill="#f2f0f0" stroke="rgb(86,111,105)" id="South Tripura" pointer-events="all" style="cursor: pointer;"><title>South Tripura</title></path>
		<path d="M308.0632330375338,46.54696910778239L305.9934273298968,66.46101063232527L307.7182654195967,69.05774695272521L307.54578161062454,79.31935346330829L315.6525206322003,81.42079680273491L317.5498425308615,89.45468915205947L325.397855838979,95.13921945400216L327.2089358331614,103.66447295301805L333.93580438297795,100.32872441379186L334.62573961885573,100.32872441379186L336.78178723097517,104.15863385396096L345.6647033929112,106.62934522747037L345.5784614884251,110.82919848604433L345.233493870488,114.16405684072379L329.1924996363123,126.6363945142175L335.3156748547299,131.20448138717802L334.7982234278279,133.42660270585566L328.50256440043086,150.21192417355087L326.1740329793429,152.80314018052104L322.72435679995033,150.9522889228656L319.44716442952995,155.39418650838707L320.48206728334117,161.19258050993813L320.91327680576796,163.1663081982224L320.0508577609253,164.52318895013286L312.2890863572902,165.88002324298668L312.80653778419946,157.6149483693298L312.7202958797134,157.6149483693298L309.0981358913559,155.76432213699354L305.04476638056803,153.9136093792249L309.01189398686984,133.30315480366517L302.6299930549867,131.94520239552457L296.8517854545098,134.90794741988975L290.2974007136654,132.06865454520903L288.9175302419062,139.5985057324233L286.4165150118497,137.62360171480032L279.5171626530573,144.16509318861063L279.7758883665156,139.47507712415518L267.01208650276385,129.476078291289L266.7533607893092,129.10569634802778L263.04495889646205,119.22756102089443L272.10035886736296,81.66801802666487L266.4946350758546,58.546084568509286L277.1023893274869,52.11402729737256L281.84569407415256,60.40128905894835L286.58899882081823,61.39069547070267L280.37958169790727,44.56737935705951L285.0366445400905,45.55718678041558L288.65880452844794,40.85537793374715L290.5561264271164,44.31992357946547Z" stroke-width="0.4" stroke-opacity="0.5" fill="#f2f0f0" stroke="rgb(86,111,105)" pointer-events="all" style="cursor: pointer;"><title>Unokoti</title></path>
		<path d="M337.7304481803076,252.49821640282698L336.60930342200663,239.44975154438725L332.2109662932817,230.33792327760602L331.8659986753373,208.4117648765532L325.1391301255244,186.47353587693942L322.2069053730447,183.76122891617524L313.06526349765045,183.8845196133234L311.0816996945032,183.391354528816L312.2890863572902,165.88002324298668L312.2890863572902,165.88002324298668L320.0508577609253,164.52318895013286L320.91327680576796,163.1663081982224L320.48206728334117,161.19258050993813L319.44716442952995,155.39418650838707L322.72435679995033,150.9522889228656L326.1740329793429,152.80314018052104L328.50256440043086,150.21192417355087L334.7982234278279,133.42660270585566L335.3156748547299,131.20448138717802L329.1924996363123,126.6363945142175L345.233493870488,114.16405684072379L345.5784614884251,110.82919848604433L345.6647033929112,106.62934522747037L336.78178723097517,104.15863385396096L334.62573961885573,100.32872441379186L333.93580438297795,100.32872441379186L327.2089358331614,103.66447295301805L325.397855838979,95.13921945400216L317.5498425308615,89.45468915205947L315.6525206322003,81.42079680273491L307.54578161062454,79.31935346330829L307.7182654195967,69.05774695272521L305.9934273298968,66.46101063232527L308.0632330375338,46.54696910778239L319.44716442952995,44.56737935705951L327.6401453555882,31.57382860195321L335.57440056818814,31.945133004957825L330.4861282035854,11.27046530745065L332.1247243887956,0.6193412605289268L335.57440056818814,-9.094947017729282e-13L348.4244443364223,5.821417860025576L347.9069929095167,7.059904836299211L352.5640557516963,7.679133519443894L353.08150717860553,7.92682222944768L353.1677490830916,8.05066599235488L352.99526527411945,23.404236260631478L357.6523281162954,26.375195384633116L357.7385700207815,26.746549338006844L361.4469719136323,52.23773069024173L349.8905567126676,74.62160212616527L347.30329957812137,86.2413296176419L342.47375292697325,87.72445132760004L349.45934719024444,90.56694462284759L349.8043148081815,90.44336223786286L350.23552433060104,90.56694462284759L370.2436461710786,85.25255066608952L381.7138194675608,107.37052837849205L379.38528804647285,109.96455945753314L381.62757756307474,115.89313145837241L380.5064328047738,131.4513899348176L376.1080956760452,146.63329916353268L380.075223282347,163.41301724561436L374.9007090132618,174.88329260338924L375.2456766312025,183.8845196133234L379.81649756889965,189.18565772622242L375.84936996259785,199.5393309356332L376.798030911923,205.0848337548241L376.3668213894998,205.45450648832957L370.7610975979878,204.09902302565206L368.863775699323,203.60610851106594L368.51880808138594,203.60610851106594L367.2251795141128,205.70095307146948L364.2929547616295,210.5063567940606L363.86174523920636,211.24559825056986L367.656389036536,219.4995304123895L360.6707947732684,220.3617830149533L360.6707947732684,220.3617830149533L360.584552868786,220.3617830149533L362.9993261943564,247.20548375241196L362.9993261943564,247.3285785006683L356.1862157400574,249.1749543301612L357.30736049836196,256.19040665569537L351.27042718442317,269.8485564692046L347.56202529157235,266.77280206686464L349.28686338127227,259.8822569565209L346.2683967243029,253.4828337227318Z" stroke-width="0.4" stroke-opacity="0.5" fill="#f2f0f0" stroke="rgb(86,111,105)" id="North Tripura" pointer-events="all" style="cursor: pointer;"><title>North Tripura</title></path></g>
		<g class="state-borders" fill="none" stroke-width="1.5"></g>
		<g class="district-borders" fill="none" stroke-width="1.5">
		<path d="M337.7304481803076,252.49821640282698L336.60930342200663,239.44975154438725L332.2109662932817,230.33792327760602L331.8659986753373,208.4117648765532L325.1391301255244,186.47353587693942L322.2069053730447,183.76122891617524L313.06526349765045,183.8845196133234L311.0816996945032,183.391354528816L312.2890863572902,165.88002324298668L312.2890863572902,165.88002324298668L320.0508577609253,164.52318895013286L320.91327680576796,163.1663081982224L320.48206728334117,161.19258050993813L319.44716442952995,155.39418650838707L322.72435679995033,150.9522889228656L326.1740329793429,152.80314018052104L328.50256440043086,150.21192417355087L334.7982234278279,133.42660270585566L335.3156748547299,131.20448138717802L329.1924996363123,126.6363945142175L345.233493870488,114.16405684072379L345.5784614884251,110.82919848604433L345.6647033929112,106.62934522747037L336.78178723097517,104.15863385396096L334.62573961885573,100.32872441379186L333.93580438297795,100.32872441379186L327.2089358331614,103.66447295301805L325.397855838979,95.13921945400216L317.5498425308615,89.45468915205947L315.6525206322003,81.42079680273491L307.54578161062454,79.31935346330829L307.7182654195967,69.05774695272521L305.9934273298968,66.46101063232527L308.0632330375338,46.54696910778239L319.44716442952995,44.56737935705951L327.6401453555882,31.57382860195321L335.57440056818814,31.945133004957825L330.4861282035854,11.27046530745065L332.1247243887956,0.6193412605289268L335.57440056818814,-9.094947017729282e-13L348.4244443364223,5.821417860025576L347.9069929095167,7.059904836299211L352.5640557516963,7.679133519443894L353.08150717860553,7.92682222944768L353.1677490830916,8.05066599235488L352.99526527411945,23.404236260631478L357.6523281162954,26.375195384633116L357.7385700207815,26.746549338006844L361.4469719136323,52.23773069024173L349.8905567126676,74.62160212616527L347.30329957812137,86.2413296176419L342.47375292697325,87.72445132760004L349.45934719024444,90.56694462284759L349.8043148081815,90.44336223786286L350.23552433060104,90.56694462284759L370.2436461710786,85.25255066608952L381.7138194675608,107.37052837849205L379.38528804647285,109.96455945753314L381.62757756307474,115.89313145837241L380.5064328047738,131.4513899348176L376.1080956760452,146.63329916353268L380.075223282347,163.41301724561436L374.9007090132618,174.88329260338924L375.2456766312025,183.8845196133234L379.81649756889965,189.18565772622242L375.84936996259785,199.5393309356332L376.798030911923,205.0848337548241L376.3668213894998,205.45450648832957L370.7610975979878,204.09902302565206L368.863775699323,203.60610851106594L368.51880808138594,203.60610851106594L367.2251795141128,205.70095307146948L364.2929547616295,210.5063567940606L363.86174523920636,211.24559825056986L367.656389036536,219.4995304123895L360.6707947732684,220.3617830149533L360.6707947732684,220.3617830149533L360.584552868786,220.3617830149533L362.9993261943564,247.20548375241196L362.9993261943564,247.3285785006683L356.1862157400574,249.1749543301612L357.30736049836196,256.19040665569537L351.27042718442317,269.8485564692046L347.56202529157235,266.77280206686464L349.28686338127227,259.8822569565209L346.2683967243029,253.4828337227318L337.7304481803076,252.49821640282698L337.7304481803076,252.74437300048612L326.5190005972836,244.12799206597265L321.94817965958646,245.11281514025177L318.2397777667429,257.7902501780691L310.13303874516714,264.8041955989793L309.2706197003172,271.44785568065254L305.04476638056803,272.43200816752596L290.2111588091793,265.66547280661507L283.7430159728174,246.34380992082242L276.67117980506373,243.1431447649975L276.9299055185147,255.32892601179265L270.6342464911286,258.28249688362393L278.5685017037322,305.26429692735655L276.06748647366476,308.2142041180059L280.8970331248165,315.09648286844913L280.8970331248165,322.1004558203349L271.4966655359749,326.1548331221584L272.10035886736296,338.68397799483864L262.09629794712964,334.63085524680264L260.37145985743336,339.6664921616766L252.60968845380194,343.10510424027325L251.14357607755665,341.26302689445674L250.0224313192557,344.4559077832364L247.95262561162235,337.0873416726081L250.62612465065104,333.0340591883041L240.10461230350484,323.5748218558001L239.5009189721095,318.0456720253851L233.20525994471973,311.6554900917681L232.34284089986613,310.79519609265844L233.11901804023364,307.3538367912015L229.84182566980962,303.1746488599156L226.99584282181604,300.59316944522925L226.82335901284387,299.3638354562663L223.3736828334513,272.1859723057214L218.71661999127173,269.8485564692046L223.3736828334513,263.5737675303626L222.33877997963282,259.75920075445447L222.76998950205598,258.77473754784296L222.94247331102815,258.405557616029L225.87469806350782,252.25205829327388L223.977376164843,243.38935886173022L227.6857780576902,218.63725917933425L224.40858568726617,188.9391088413504L226.39214949041707,184.87083141623225L218.80286189575781,175.49988011699952L217.25050761502644,164.27648681483424L219.1478295136949,129.476078291289L216.1293628567255,121.94429499540911L219.4065552271495,119.10406866247376L220.0102485585412,118.48660106420084L217.16426571054035,87.23008365253827L236.5686942196262,97.98117611092675L243.64053038737984,92.6677856536071L245.36536847707976,95.75705360699158L242.51938562907526,102.05840713424277L248.90128656095476,106.50581334462004L255.3694293973167,118.85708278442235L261.1476369977936,120.3389748300724L266.7533607893092,129.10569634802778L267.01208650276385,129.476078291289L279.7758883665156,139.47507712415518L279.5171626530573,144.16509318861063L286.4165150118497,137.62360171480032L288.9175302419062,139.5985057324233L290.2974007136654,132.06865454520903L296.8517854545098,134.90794741988975L302.6299930549867,131.94520239552457L309.01189398686984,133.30315480366517L305.04476638056803,153.9136093792249L309.0981358913559,155.76432213699354L312.7202958797134,157.6149483693298L312.80653778419946,157.6149483693298L312.2890863572902,165.88002324298668M233.20525994471973,311.6554900917681L231.4804218550198,319.64305964048435L239.0697094496827,326.40053990067827L244.24422371877154,339.5436791932252L242.69186943804743,355.8745409613657L233.20525994471973,367.78087948262964L222.0800542661782,374.6530555058698L220.78642569890508,382.8735998599641L224.75355330520688,386.92191537621966L220.6139418899329,387.9032646846799L215.95687904775696,389.00725443976535L215.78439523878478,388.76192596473174L209.488736211395,380.78794710146576L211.29981620557737,373.4259662977711L195.17258006691918,360.29379520435396L186.20342200049708,361.64402704517124L178.01044107443886,345.92946034477336L177.83795726547032,345.8066663423524L175.33694203541017,351.20925096001065L168.86879919904823,351.94591133154245L162.91810778959916,344.8243009419248L136.52808501724576,348.2624757832218L136.35560120827358,349.121973976311L135.57942406791335,353.29642063412484L134.88948883203557,356.73387804200866L131.18108693918475,356.73387804200866L127.04147552391441,353.91027365134414L125.23039552973569,354.76965228814333L121.0045422099829,356.73387804200866L116.08875365434506,360.5392952386892L116.08875365434506,369.8671984304983L113.32901271083028,370.35808146241743L111.86290033458863,375.02117505800106L108.41322415519608,379.3156573641345L105.39475749822668,382.0148145891899L101.08266227398781,384.22308302260535L97.02929276320356,384.59111613362256L92.02726230308326,384.3457610953674L93.40713277483883,379.6837347851797L95.90814800489898,380.78794710146576L95.30445467350728,377.22982250244604L88.23261850575363,373.1805440185499L90.30242421338698,365.8171874465079L95.21821276902483,365.2035142443556L98.06419561701841,358.32974154284784L89.44000516853703,360.7847937902825L87.97389279229537,354.1558122602528L90.73363373581014,352.43701082050575L86.85274803399443,352.06868676065733L86.85274803399443,341.26302689445674L80.38460519763612,330.8230068582998L78.74600901241865,320.3802941758004L74.95136521508903,320.8717763981458L74.1751880747288,316.81686936472033L69.60436713703166,318.0456720253851L70.29430237291308,313.13023717284887L63.91240144103358,312.02418191015386L67.01711000248906,301.8224659619873L61.41138621097707,302.68295123219104L56.6680814643114,288.4211107878864L52.35598624006889,287.314377607554L51.23484148177158,264.065943284033L55.115727183587296,268.2491935785938L60.893934784064186,268.7413120207366L60.80769287958174,271.20181379218593L67.44831952490858,268.2491935785938L63.39495001412797,265.91154861492487L65.29227191279278,258.1594357736285L50.28618053243554,257.6671875576676L51.23484148177158,242.03516258761465L65.72348143521594,238.95727335745232L70.72551189533624,245.23591632130683L75.46881664199827,242.6507120281667L84.86918423084353,247.94404656723236L90.56114992684161,241.1733774658751L95.30445467350728,248.31332286770885L96.42559943181186,235.87914731926685L111.34544890768302,241.1733774658751L115.8300279408868,239.94222366956456L116.34747936779968,232.80078434252027L129.6287326584643,234.40156266840222L131.09484503469866,239.08039347250178L140.40897071906147,240.55780530252287L149.46437068996602,238.21854471009738L165.5916068286242,227.3822896295178L165.6778487331103,227.998064670428L165.85033254208247,228.9832849952072L167.1439611093556,236.61791917230858L167.57517063177875,239.44975154438725L166.9714773003834,243.63557144408787L166.71275158693243,244.0048874783397L158.17480304292985,246.71310097597325L158.4335287563881,251.63665640438649L156.70869066669184,253.11360506230722L154.98385257699556,254.59049929788216L149.80933830790673,253.4828337227318L148.68819354960578,258.77473754784296L137.21802025312718,266.40369570682014L128.85255551810042,282.8871405744576L118.93473650234591,290.38856133688387L120.22836506961539,307.3538367912015L112.6390774749525,310.9180963574245L117.46862412610426,322.83764555607013L113.0702869973793,333.4025561737935L116.43372127228213,336.71887820306165L115.39881841847091,345.92946034477336L125.05791172076351,352.55978476465134L125.23039552973569,354.76965228814333M167.1439611093556,236.61791917230858L168.09262205868436,236.4947914778122L168.1788639631668,235.632887002198L169.81746014838427,236.24853495162915L189.04940484849794,233.90902231769542L201.89944861672848,237.2335519591761L208.7988009755136,233.90902231769542L216.30184666569403,245.97451546014508L214.1457990535746,253.9751333126278L220.35521617648192,260.0053127811134L222.94247331102815,258.405557616029M165.6778487331103,227.998064670428L165.76409063759638,227.8749104215558L162.05568874475284,190.66491892653448L156.44996495323358,189.8020232486988L158.86473827881127,182.40500599102597L156.1912392397826,182.77488956301022L153.00028877384102,177.22627419154196L153.7764659142049,173.15679658939098L146.79087165094097,161.56266194209275L145.49724308366422,149.22474961768876L139.28782596076053,143.79484899942963L143.85864689845403,132.80935933388628L146.35966212851054,136.5126748048133L158.86473827881127,140.21564298900012L170.50739538426205,139.84536179198494L174.04331346813706,136.2657979137539L173.26713632777683,133.0562578409972L177.83795726547032,134.5376164527379L184.4785839108008,130.95757129458616L186.89335723637487,110.21160111830613L191.72290388752663,105.64107930213504L189.04940484849794,95.75705360699158L193.62022578619144,91.30843076351175L199.0534657687349,112.68193244837312L203.79677051540057,112.92895705511091L211.38605811006346,119.22756102089443L219.4065552271495,119.10406866247376M70.72551189533624,245.23591632130683L71.24296332224549,226.5201886255145L76.76244520927139,215.06479410800694L68.82818999666779,199.9090551541476L69.25939951909459,195.71864621478198L75.46881664199827,192.3906541052038L72.62283379400469,187.33650381305142L82.62689471424164,186.3502532134271L79.52218615278616,180.43223542523265L80.64333091109074,176.97965106425454L85.90408708466202,168.2235367168978L86.93898993848052,172.6634982136584L89.52624707302311,171.55355443833196L91.5960527806601,163.53637119325685L113.76022223325708,170.56691167275676L112.12162604804325,162.05609847340475L118.76225269337738,148.23755042153152L113.50149651980246,138.36420229349278L112.81156128392104,130.21683174643022L120.40084887858757,128.98223492751913L128.0763783777329,129.84645675734646L130.31866789434207,133.79694409594777L130.23242598985962,131.57484362930336L142.30629261772629,134.0438364256952L139.28782596076053,143.79484899942963M220.6139418899329,387.9032646846799L225.61597235005684,386.92191537621966L225.61597235005684,394.89469545858265L229.6693418608411,400.1681406025127L229.06564852944575,406.91225310300524L236.13748469720304,425.05452878299275L235.87875898374477,439.1460255735328L242.00193420216965,440.86118191089554L233.72271137162534,450.04830075838436L224.92603711417541,448.21104121384906L226.56463329938924,460.58033909610276L223.3736828334513,456.78421725139924L224.14985997381154,459.35582189380784L209.488736211395,473.3131617340787L202.2444162346692,473.0683368309883L199.57091719564414,476.37335048044133L190.34303341576742,476.7405578837215L188.7044372305536,474.0476277279995L181.28763344486288,487.9999999999991L178.35540869237957,482.4930475744168L175.76815155783333,483.22735029887554L179.56279535516296,482.00350517408333L177.5792315520157,477.96455897256055L172.92216870983611,476.4957533111383L169.21376681698894,479.9228852471033L163.86676873892793,476.00613981064L163.78052683444912,470.37516700658944L159.64091541917514,469.5182124596977L161.27951160438533,463.51903188597953L158.5197706608742,463.51903188597953L161.88320493578067,457.6414366434219L156.27748114426868,457.6414366434219L156.10499733530014,441.35121342650564L150.93048306620767,437.5533162712927L152.6553211559076,431.0593234551625L148.6019516451197,429.466300340152L151.9653859200298,425.05452878299275L147.30832307784658,425.78985700521207L149.72309640342064,422.2356483990443L145.15227546572714,421.13255547038534L147.22208117336413,416.96504746225037L145.41100117918177,415.12630616877505L149.80933830790673,413.28748229355006L148.6019516451197,410.71299007824564L139.46030976972907,409.36438189250475L142.82374404463917,408.2609421282068L140.75393833700218,402.0075543634066L133.768344073731,402.37542718120403L139.37406786524662,399.80024791439973L135.83814978136797,394.15881176615676L131.95726407955226,394.0361631946171L134.80324692754948,389.7432310144595L124.71294410282644,391.21514434297023L125.1441536252496,385.8178691818275L122.03944506379776,382.13749930697486L122.72938029967918,391.21514434297023L119.71091364270978,388.1485983231132L118.84849459786346,390.96982914156433L122.03944506379776,393.66821526932745L117.46862412610426,394.15881176615676L119.88339745167468,399.3097191774432L115.74378603640798,399.80024791439973L117.29614031713209,402.1301790039033L114.19143175568024,405.56351960073334L116.08875365434506,405.80874718257746L113.93270604222562,412.9197076062637L120.48709078307002,434.61276755741164L119.6246717382237,439.88110134418093L124.45421838937182,444.04628230652816L124.02300886694866,450.1707818101222L118.41728507543667,452.252903898524L111.0867231942284,447.84357945562897L104.61858035786281,438.1659040818231L100.7376946560471,422.6033394436454L97.97795371253233,421.00998775639346L96.68432514526285,394.6494023680625L98.92661466186837,392.19639040406037L96.51184133629795,392.0737359364848L94.26955181968879,384.8364696955896L97.02929276320356,384.59111613362256M266.7533607893092,129.10569634802778L263.04495889646205,119.22756102089443L272.10035886736296,81.66801802666487L266.4946350758546,58.546084568509286L277.1023893274869,52.11402729737256L281.84569407415256,60.40128905894835L286.58899882081823,61.39069547070267L280.37958169790727,44.56737935705951L285.0366445400905,45.55718678041558L288.65880452844794,40.85537793374715L290.5561264271164,44.31992357946547L308.0632330375338,46.54696910778239" stroke="rgba(86, 111, 105, 0.18823529411764706)"></path>
	</g>
</svg>